SplineFontDB: 3.0
FontName: YesevaOne
FullName: Yeseva One
FamilyName: Yeseva One
Weight: Book
Copyright: Copyright (c) May 20, 2011, Jovanny Lemonad (lemonad@jovanny.ru), with Reserved Font Name "Yeseva" and "Yeseva One". This Font Software is licensed under the SIL Open Font License, Version 1.1. This license is available with a FAQ at: http://scripts.sil.org/OFL
Version: 001.001
ItalicAngle: 0
UnderlinePosition: -103
UnderlineWidth: 102
Ascent: 1638
Descent: 410
sfntRevision: 0x00010000
LayerCount: 2
Layer: 0 1 "Back"  1
Layer: 1 1 "Fore"  0
XUID: [1021 288 713564382 3874684]
FSType: 0
OS2Version: 3
OS2_WeightWidthSlopeOnly: 0
OS2_UseTypoMetrics: 1
CreationTime: 1309712760
ModificationTime: 1310118980
PfmFamily: 17
TTFWeight: 400
TTFWidth: 5
LineGap: 0
VLineGap: 0
Panose: 2 0 5 5 0 0 0 2 0 4
OS2TypoAscent: 267
OS2TypoAOffset: 1
OS2TypoDescent: -204
OS2TypoDOffset: 1
OS2TypoLinegap: 0
OS2WinAscent: 0
OS2WinAOffset: 1
OS2WinDescent: 0
OS2WinDOffset: 1
HheadAscent: 0
HheadAOffset: 1
HheadDescent: 0
HheadDOffset: 1
OS2SubXSize: 1434
OS2SubYSize: 1331
OS2SubXOff: 0
OS2SubYOff: 287
OS2SupXSize: 1434
OS2SupYSize: 1331
OS2SupXOff: 0
OS2SupYOff: 977
OS2StrikeYSize: 102
OS2StrikeYPos: 512
OS2Vendor: 'PYRS'
OS2CodePages: 00000001.00000000
OS2UnicodeRanges: 800000af.0000000a.00000000.00000000
Lookup: 258 0 0 "'kern' Horizontal Kerning in Latin lookup 0"  {"'kern' Horizontal Kerning in Latin lookup 0 subtable"  } ['kern' ('DFLT' <'dflt' > 'latn' <'dflt' > ) ]
DEI: 91125
TtTable: prep
PUSHW_1
 511
SCANCTRL
PUSHB_1
 4
SCANTYPE
EndTTInstrs
ShortTable: maxp 16
  1
  0
  243
  125
  19
  107
  4
  2
  0
  1
  1
  0
  64
  0
  2
  1
EndShort

StartChar: exclam
Encoding: 33 33 4
Width: 676
Flags: W
LayerCount: 2
Fore
SplineSet
133 1229 m 1,0,1
 133 1337 133 1337 192.5 1400.5 c 128,-1,2
 252 1464 252 1464 338 1464 c 256,3,4
 424 1464 424 1464 483.5 1400.5 c 128,-1,5
 543 1337 543 1337 543 1229 c 1,6,-1
 379 440 l 1,7,-1
 297 440 l 1,8,-1
 133 1229 l 1,0,1
174 143 m 0,9,10
 174 215 174 215 220 261 c 128,-1,11
 266 307 266 307 338 307 c 256,12,13
 410 307 410 307 456 261 c 128,-1,14
 502 215 502 215 502 143 c 0,15,16
 502 72 502 72 456 26 c 128,-1,17
 410 -20 410 -20 338 -20 c 256,18,19
 266 -20 266 -20 220 26 c 128,-1,20
 174 72 174 72 174 143 c 0,9,10
EndSplineSet
EndChar

StartChar: quotedbl
Encoding: 34 34 5
Width: 819
Flags: W
LayerCount: 2
Fore
SplineSet
102 1311 m 1,0,1
 102 1381 102 1381 138 1417.5 c 128,-1,2
 174 1454 174 1454 236 1454 c 0,3,4
 297 1454 297 1454 333 1417 c 128,-1,5
 369 1380 369 1380 369 1311 c 1,6,-1
 287 911 l 1,7,-1
 184 911 l 1,8,-1
 102 1311 l 1,0,1
451 1311 m 1,9,10
 451 1381 451 1381 486.5 1417.5 c 128,-1,11
 522 1454 522 1454 584 1454 c 0,12,13
 645 1454 645 1454 681 1417 c 128,-1,14
 717 1380 717 1380 717 1311 c 1,15,-1
 635 911 l 1,16,-1
 532 911 l 1,17,-1
 451 1311 l 1,9,10
EndSplineSet
EndChar

StartChar: numbersign
Encoding: 35 35 6
Width: 1423
Flags: W
LayerCount: 2
Fore
SplineSet
41 399 m 1,0,-1
 41 481 l 1,1,-1
 354 481 l 1,2,-1
 442 952 l 1,3,-1
 123 952 l 1,4,-1
 123 1034 l 1,5,-1
 459 1034 l 1,6,-1
 532 1434 l 1,7,-1
 635 1434 l 1,8,-1
 561 1034 l 1,9,-1
 981 1034 l 1,10,-1
 1055 1434 l 1,11,-1
 1157 1434 l 1,12,-1
 1083 1034 l 1,13,-1
 1382 1034 l 1,14,-1
 1382 952 l 1,15,-1
 1067 952 l 1,16,-1
 979 481 l 1,17,-1
 1300 481 l 1,18,-1
 1300 399 l 1,19,-1
 965 399 l 1,20,-1
 891 0 l 1,21,-1
 788 0 l 1,22,-1
 862 399 l 1,23,-1
 442 399 l 1,24,-1
 369 0 l 1,25,-1
 266 0 l 1,26,-1
 340 399 l 1,27,-1
 41 399 l 1,0,-1
457 481 m 1,28,-1
 877 481 l 1,29,-1
 965 952 l 1,30,-1
 545 952 l 1,31,-1
 457 481 l 1,28,-1
EndSplineSet
EndChar

StartChar: dollar
Encoding: 36 36 7
Width: 1341
Flags: W
LayerCount: 2
Fore
SplineSet
102 1116 m 0,0,1
 102 1192 102 1192 131 1256.5 c 128,-1,2
 160 1321 160 1321 223.5 1367 c 128,-1,3
 287 1413 287 1413 388 1438.5 c 128,-1,4
 489 1464 489 1464 635 1464 c 1,5,-1
 635 1597 l 1,6,-1
 707 1597 l 1,7,-1
 707 1458 l 1,8,9
 779 1448 779 1448 831 1423.5 c 128,-1,10
 883 1399 883 1399 920 1374 c 0,11,12
 961 1345 961 1345 993 1311 c 1,13,14
 1016 1346 1016 1346 1040 1372 c 1,15,16
 1063 1395 1063 1395 1092.5 1414.5 c 128,-1,17
 1122 1434 1122 1434 1157 1434 c 2,18,-1
 1198 1434 l 1,19,-1
 1198 1044 l 1,20,-1
 1106 1044 l 1,21,22
 1079 1103 1079 1103 1039 1166 c 128,-1,23
 999 1229 999 1229 949 1282 c 128,-1,24
 899 1335 899 1335 837.5 1371 c 128,-1,25
 776 1407 776 1407 707 1413 c 1,26,-1
 707 897 l 1,27,-1
 973 707 l 2,28,29
 1022 672 1022 672 1070 630 c 128,-1,30
 1118 588 1118 588 1156 540 c 128,-1,31
 1194 492 1194 492 1216.5 438.5 c 128,-1,32
 1239 385 1239 385 1239 328 c 0,33,34
 1239 248 1239 248 1211.5 182.5 c 128,-1,35
 1184 117 1184 117 1120.5 71 c 128,-1,36
 1057 25 1057 25 955.5 -2 c 128,-1,37
 854 -29 854 -29 707 -31 c 1,38,-1
 707 -164 l 1,39,-1
 635 -164 l 1,40,-1
 635 -29 l 1,41,42
 555 -21 555 -21 495.5 4 c 128,-1,43
 436 29 436 29 395 55 c 0,44,45
 348 86 348 86 317 123 c 1,46,47
 294 88 294 88 270 61 c 1,48,49
 247 38 247 38 217.5 19 c 128,-1,50
 188 0 188 0 154 0 c 2,51,-1
 113 0 l 1,52,-1
 113 389 l 1,53,-1
 205 389 l 1,54,55
 232 328 232 328 273.5 262.5 c 128,-1,56
 315 197 315 197 369.5 143.5 c 128,-1,57
 424 90 424 90 490.5 55 c 128,-1,58
 557 20 557 20 635 20 c 1,59,-1
 635 535 l 1,60,-1
 369 727 l 2,61,62
 320 762 320 762 271.5 803 c 128,-1,63
 223 844 223 844 185 892 c 128,-1,64
 147 940 147 940 124.5 995 c 128,-1,65
 102 1050 102 1050 102 1116 c 0,0,1
461 1208 m 0,66,67
 461 1124 461 1124 508 1066 c 128,-1,68
 555 1008 555 1008 635 948 c 1,69,-1
 635 1409 l 1,70,71
 549 1395 549 1395 505 1341.5 c 128,-1,72
 461 1288 461 1288 461 1208 c 0,66,67
707 27 m 1,73,74
 795 43 795 43 838 96.5 c 128,-1,75
 881 150 881 150 881 236 c 0,76,77
 881 318 881 318 833.5 371 c 128,-1,78
 786 424 786 424 707 483 c 1,79,-1
 707 27 l 1,73,74
EndSplineSet
EndChar

StartChar: percent
Encoding: 37 37 8
Width: 1587
Flags: W
LayerCount: 2
Fore
SplineSet
82 1096 m 256,0,1
 82 1258 82 1258 171 1356 c 128,-1,2
 260 1454 260 1454 430 1454 c 256,3,4
 600 1454 600 1454 689 1355.5 c 128,-1,5
 778 1257 778 1257 778 1096 c 0,6,7
 778 934 778 934 689 835.5 c 128,-1,8
 600 737 600 737 430 737 c 256,9,10
 260 737 260 737 171 835.5 c 128,-1,11
 82 934 82 934 82 1096 c 256,0,1
195 0 m 1,12,-1
 1290 1434 l 1,13,-1
 1382 1434 l 1,14,-1
 297 0 l 1,15,-1
 195 0 l 1,12,-1
317 1096 m 256,16,17
 317 920 317 920 350 849 c 128,-1,18
 383 778 383 778 430 778 c 0,19,20
 453 778 453 778 473.5 794.5 c 128,-1,21
 494 811 494 811 509 849 c 128,-1,22
 524 887 524 887 533.5 947.5 c 128,-1,23
 543 1008 543 1008 543 1096 c 256,24,25
 543 1184 543 1184 533.5 1244.5 c 128,-1,26
 524 1305 524 1305 509 1342.5 c 128,-1,27
 494 1380 494 1380 473.5 1396.5 c 128,-1,28
 453 1413 453 1413 430 1413 c 0,29,30
 383 1413 383 1413 350 1342.5 c 128,-1,31
 317 1272 317 1272 317 1096 c 256,16,17
809 338 m 256,32,33
 809 500 809 500 898 598 c 128,-1,34
 987 696 987 696 1157 696 c 256,35,36
 1327 696 1327 696 1416 598 c 128,-1,37
 1505 500 1505 500 1505 338 c 256,38,39
 1505 176 1505 176 1416 78 c 128,-1,40
 1327 -20 1327 -20 1157 -20 c 256,41,42
 987 -20 987 -20 898 78 c 128,-1,43
 809 176 809 176 809 338 c 256,32,33
1044 338 m 256,44,45
 1044 162 1044 162 1077 91 c 128,-1,46
 1110 20 1110 20 1157 20 c 0,47,48
 1180 20 1180 20 1200.5 36.5 c 128,-1,49
 1221 53 1221 53 1236 91 c 128,-1,50
 1251 129 1251 129 1260.5 189.5 c 128,-1,51
 1270 250 1270 250 1270 338 c 256,52,53
 1270 426 1270 426 1260.5 486.5 c 128,-1,54
 1251 547 1251 547 1236 585 c 128,-1,55
 1221 623 1221 623 1200.5 639 c 128,-1,56
 1180 655 1180 655 1157 655 c 0,57,58
 1110 655 1110 655 1077 584.5 c 128,-1,59
 1044 514 1044 514 1044 338 c 256,44,45
EndSplineSet
EndChar

StartChar: ampersand
Encoding: 38 38 9
Width: 1546
Flags: W
LayerCount: 2
Fore
SplineSet
61 328 m 0,0,1
 61 387 61 387 79.5 435 c 128,-1,2
 98 483 98 483 128 521 c 128,-1,3
 158 559 158 559 197 587.5 c 128,-1,4
 236 616 236 616 276 637 c 0,5,6
 370 686 370 686 492 707 c 1,7,-1
 358 891 l 2,8,9
 319 944 319 944 282.5 1012.5 c 128,-1,10
 246 1081 246 1081 246 1167 c 0,11,12
 246 1233 246 1233 270.5 1287 c 128,-1,13
 295 1341 295 1341 347 1381 c 128,-1,14
 399 1421 399 1421 483 1442.5 c 128,-1,15
 567 1464 567 1464 686 1464 c 0,16,17
 772 1464 772 1464 835.5 1439.5 c 128,-1,18
 899 1415 899 1415 944 1386 c 0,19,20
 997 1351 997 1351 1034 1311 c 1,21,22
 1057 1346 1057 1346 1081 1372 c 1,23,24
 1104 1395 1104 1395 1133.5 1414.5 c 128,-1,25
 1163 1434 1163 1434 1198 1434 c 2,26,-1
 1239 1434 l 1,27,-1
 1239 1044 l 1,28,-1
 1147 1044 l 1,29,30
 1120 1105 1120 1105 1078 1171 c 128,-1,31
 1036 1237 1036 1237 982 1290 c 128,-1,32
 928 1343 928 1343 860.5 1378 c 128,-1,33
 793 1413 793 1413 717 1413 c 0,34,35
 656 1413 656 1413 614.5 1370 c 128,-1,36
 573 1327 573 1327 573 1249 c 0,37,38
 573 1210 573 1210 587.5 1172.5 c 128,-1,39
 602 1135 602 1135 621.5 1099 c 128,-1,40
 641 1063 641 1063 665 1031 c 2,41,-1
 707 973 l 1,42,-1
 1096 430 l 1,43,44
 1114 477 1114 477 1130 530 c 0,45,46
 1144 577 1144 577 1155.5 637.5 c 128,-1,47
 1167 698 1167 698 1167 768 c 1,48,-1
 963 788 l 1,49,-1
 963 819 l 1,50,-1
 1403 819 l 1,51,-1
 1403 788 l 1,52,-1
 1219 768 l 1,53,54
 1219 694 1219 694 1203.5 626.5 c 128,-1,55
 1188 559 1188 559 1171 506 c 0,56,57
 1151 445 1151 445 1126 389 c 1,58,-1
 1372 51 l 1,59,-1
 1485 31 l 1,60,-1
 1485 0 l 1,61,-1
 1147 0 l 2,62,63
 1086 0 1086 0 1028.5 24.5 c 128,-1,64
 971 49 971 49 932 102 c 1,65,66
 905 79 905 79 873.5 56 c 128,-1,67
 842 33 842 33 800 13.5 c 128,-1,68
 758 -6 758 -6 705.5 -18.5 c 128,-1,69
 653 -31 653 -31 584 -31 c 0,70,71
 443 -31 443 -31 343.5 -2 c 128,-1,72
 244 27 244 27 181.5 76 c 128,-1,73
 119 125 119 125 90 189.5 c 128,-1,74
 61 254 61 254 61 328 c 0,0,1
410 348 m 0,75,76
 410 260 410 260 429.5 197.5 c 128,-1,77
 449 135 449 135 481.5 96 c 128,-1,78
 514 57 514 57 556 38.5 c 128,-1,79
 598 20 598 20 645 20 c 0,80,81
 723 20 723 20 788.5 58 c 128,-1,82
 854 96 854 96 901 143 c 1,83,-1
 512 676 l 1,84,-1
 496 659 l 2,85,86
 480 643 480 643 461 605 c 128,-1,87
 442 567 442 567 426 503.5 c 128,-1,88
 410 440 410 440 410 348 c 0,75,76
EndSplineSet
EndChar

StartChar: quotesingle
Encoding: 39 39 10
Width: 471
Flags: W
LayerCount: 2
Fore
SplineSet
102 1311 m 1,0,1
 102 1381 102 1381 138 1417.5 c 128,-1,2
 174 1454 174 1454 236 1454 c 0,3,4
 297 1454 297 1454 333 1417 c 128,-1,5
 369 1380 369 1380 369 1311 c 1,6,-1
 287 911 l 1,7,-1
 184 911 l 1,8,-1
 102 1311 l 1,0,1
EndSplineSet
EndChar

StartChar: parenleft
Encoding: 40 40 11
Width: 727
Flags: W
LayerCount: 2
Fore
SplineSet
102 543 m 256,0,1
 102 715 102 715 147.5 871.5 c 128,-1,2
 193 1028 193 1028 271.5 1160 c 128,-1,3
 350 1292 350 1292 456.5 1397.5 c 128,-1,4
 563 1503 563 1503 686 1577 c 1,5,-1
 707 1556 l 1,6,7
 568 1386 568 1386 499 1130 c 128,-1,8
 430 874 430 874 430 543 c 0,9,10
 430 211 430 211 498.5 -45 c 128,-1,11
 567 -301 567 -301 707 -471 c 1,12,-1
 686 -492 l 1,13,14
 563 -418 563 -418 456.5 -312.5 c 128,-1,15
 350 -207 350 -207 271.5 -75 c 128,-1,16
 193 57 193 57 147.5 214 c 128,-1,17
 102 371 102 371 102 543 c 256,0,1
EndSplineSet
EndChar

StartChar: parenright
Encoding: 41 41 12
Width: 727
Flags: W
LayerCount: 2
Fore
SplineSet
20 -471 m 1,0,1
 159 -301 159 -301 228 -45 c 128,-1,2
 297 211 297 211 297 543 c 256,3,4
 297 875 297 875 228.5 1130.5 c 128,-1,5
 160 1386 160 1386 20 1556 c 1,6,-1
 41 1577 l 1,7,8
 164 1503 164 1503 270.5 1397.5 c 128,-1,9
 377 1292 377 1292 456 1160 c 128,-1,10
 535 1028 535 1028 580 871.5 c 128,-1,11
 625 715 625 715 625 543 c 256,12,13
 625 371 625 371 580 214 c 128,-1,14
 535 57 535 57 456 -75 c 128,-1,15
 377 -207 377 -207 270.5 -312.5 c 128,-1,16
 164 -418 164 -418 41 -492 c 1,17,-1
 20 -471 l 1,0,1
EndSplineSet
EndChar

StartChar: asterisk
Encoding: 42 42 13
Width: 979
Flags: W
LayerCount: 2
Fore
SplineSet
102 1161 m 0,0,1
 102 1206 102 1206 135 1244 c 128,-1,2
 168 1282 168 1282 211 1282 c 0,3,4
 248 1282 248 1282 285 1260 c 1,5,-1
 446 1096 l 1,6,-1
 377 1311 l 1,7,8
 377 1434 377 1434 489 1434 c 0,9,10
 602 1434 602 1434 602 1311 c 1,11,-1
 532 1096 l 1,12,-1
 694 1260 l 1,13,14
 731 1282 731 1282 768 1282 c 0,15,16
 811 1282 811 1282 844 1244 c 128,-1,17
 877 1206 877 1206 877 1161 c 0,18,19
 877 1104 877 1104 807 1065 c 1,20,-1
 612 1024 l 1,21,-1
 803 983 l 1,22,23
 872 944 872 944 872 887 c 0,24,25
 872 842 872 842 839.5 804 c 128,-1,26
 807 766 807 766 764 766 c 0,27,28
 727 766 727 766 690 788 c 1,29,-1
 530 952 l 1,30,-1
 602 737 l 1,31,32
 602 614 602 614 489 614 c 0,33,34
 377 614 377 614 377 737 c 1,35,-1
 449 952 l 1,36,-1
 289 788 l 1,37,38
 252 766 252 766 215 766 c 0,39,40
 172 766 172 766 139 804 c 128,-1,41
 106 842 106 842 106 887 c 0,42,43
 106 944 106 944 176 983 c 1,44,-1
 367 1024 l 1,45,-1
 172 1065 l 1,46,47
 102 1104 102 1104 102 1161 c 0,0,1
EndSplineSet
EndChar

StartChar: plus
Encoding: 43 43 14
Width: 1096
Flags: W
LayerCount: 2
Fore
SplineSet
61 635 m 1,0,-1
 61 727 l 1,1,-1
 502 727 l 1,2,-1
 502 1188 l 1,3,-1
 594 1188 l 1,4,-1
 594 727 l 1,5,-1
 1034 727 l 1,6,-1
 1034 635 l 1,7,-1
 594 635 l 1,8,-1
 594 174 l 1,9,-1
 502 174 l 1,10,-1
 502 635 l 1,11,-1
 61 635 l 1,0,-1
EndSplineSet
EndChar

StartChar: comma
Encoding: 44 44 15
Width: 573
Flags: W
LayerCount: 2
Fore
SplineSet
123 143 m 256,0,1
 123 215 123 215 167 261 c 128,-1,2
 211 307 211 307 276 307 c 0,3,4
 348 307 348 307 399.5 257 c 128,-1,5
 451 207 451 207 451 104 c 0,6,7
 451 -25 451 -25 411 -98.5 c 128,-1,8
 371 -172 371 -172 324 -211 c 0,9,10
 269 -256 269 -256 199 -272 c 1,11,-1
 180 -233 l 1,12,13
 231 -217 231 -217 274 -184 c 0,14,15
 311 -155 311 -155 343 -108 c 128,-1,16
 375 -61 375 -61 383 16 c 1,17,18
 367 6 367 6 350 -2 c 0,19,20
 334 -10 334 -10 316.5 -15 c 128,-1,21
 299 -20 299 -20 276 -20 c 0,22,23
 210 -20 210 -20 166.5 25.5 c 128,-1,24
 123 71 123 71 123 143 c 256,0,1
EndSplineSet
EndChar

StartChar: hyphen
Encoding: 45 45 16
Width: 788
Flags: W
LayerCount: 2
Fore
SplineSet
61 635 m 1,0,-1
 61 748 l 1,1,-1
 727 748 l 1,2,-1
 727 635 l 1,3,-1
 61 635 l 1,0,-1
EndSplineSet
EndChar

StartChar: period
Encoding: 46 46 17
Width: 573
Flags: W
LayerCount: 2
Fore
SplineSet
123 143 m 256,0,1
 123 215 123 215 169 261 c 128,-1,2
 215 307 215 307 287 307 c 256,3,4
 359 307 359 307 405 261 c 128,-1,5
 451 215 451 215 451 143 c 256,6,7
 451 71 451 71 404.5 25.5 c 128,-1,8
 358 -20 358 -20 287 -20 c 0,9,10
 215 -20 215 -20 169 25.5 c 128,-1,11
 123 71 123 71 123 143 c 256,0,1
EndSplineSet
EndChar

StartChar: slash
Encoding: 47 47 18
Width: 799
Flags: W
LayerCount: 2
Fore
SplineSet
20 0 m 1,0,-1
 686 1434 l 1,1,-1
 778 1434 l 1,2,-1
 123 0 l 1,3,-1
 20 0 l 1,0,-1
EndSplineSet
EndChar

StartChar: zero
Encoding: 48 48 19
Width: 1413
Flags: W
LayerCount: 2
Fore
SplineSet
102 717 m 256,0,1
 102 897 102 897 149.5 1036.5 c 128,-1,2
 197 1176 197 1176 277.5 1271 c 128,-1,3
 358 1366 358 1366 469 1415 c 128,-1,4
 580 1464 580 1464 707 1464 c 256,5,6
 834 1464 834 1464 944.5 1415 c 128,-1,7
 1055 1366 1055 1366 1136 1271 c 128,-1,8
 1217 1176 1217 1176 1264 1036.5 c 128,-1,9
 1311 897 1311 897 1311 717 c 256,10,11
 1311 537 1311 537 1264 397.5 c 128,-1,12
 1217 258 1217 258 1136 163 c 128,-1,13
 1055 68 1055 68 944.5 18.5 c 128,-1,14
 834 -31 834 -31 707 -31 c 256,15,16
 580 -31 580 -31 469 18.5 c 128,-1,17
 358 68 358 68 277.5 163 c 128,-1,18
 197 258 197 258 149.5 397.5 c 128,-1,19
 102 537 102 537 102 717 c 256,0,1
461 717 m 256,20,21
 461 510 461 510 482.5 374 c 128,-1,22
 504 238 504 238 537.5 157 c 128,-1,23
 571 76 571 76 615 43 c 128,-1,24
 659 10 659 10 707 10 c 0,25,26
 752 10 752 10 797 43 c 128,-1,27
 842 76 842 76 875.5 157 c 128,-1,28
 909 238 909 238 930.5 374 c 128,-1,29
 952 510 952 510 952 717 c 256,30,31
 952 924 952 924 930.5 1060 c 128,-1,32
 909 1196 909 1196 875.5 1277 c 128,-1,33
 842 1358 842 1358 797 1390.5 c 128,-1,34
 752 1423 752 1423 707 1423 c 0,35,36
 660 1423 660 1423 615.5 1390.5 c 128,-1,37
 571 1358 571 1358 537.5 1277 c 128,-1,38
 504 1196 504 1196 482.5 1060 c 128,-1,39
 461 924 461 924 461 717 c 256,20,21
EndSplineSet
EndChar

StartChar: one
Encoding: 49 49 20
Width: 850
Flags: W
LayerCount: 2
Fore
SplineSet
20 1126 m 1,0,-1
 440 1434 l 1,1,-1
 625 1434 l 1,2,-1
 625 51 l 1,3,-1
 788 31 l 1,4,-1
 788 0 l 1,5,-1
 113 0 l 1,6,-1
 113 31 l 1,7,-1
 276 51 l 1,8,-1
 276 1208 l 1,9,-1
 51 1075 l 1,10,-1
 20 1126 l 1,0,-1
EndSplineSet
EndChar

StartChar: two
Encoding: 50 50 21
Width: 1229
Flags: W
LayerCount: 2
Fore
SplineSet
61 0 m 1,0,-1
 61 51 l 2,1,2
 61 182 61 182 115.5 283.5 c 128,-1,3
 170 385 170 385 252 471 c 128,-1,4
 334 557 334 557 430 633 c 128,-1,5
 526 709 526 709 608 785.5 c 128,-1,6
 690 862 690 862 744.5 947 c 128,-1,7
 799 1032 799 1032 799 1137 c 0,8,9
 799 1276 799 1276 727 1344.5 c 128,-1,10
 655 1413 655 1413 502 1413 c 0,11,12
 467 1413 467 1413 436.5 1408 c 128,-1,13
 406 1403 406 1403 381 1397 c 0,14,15
 352 1389 352 1389 328 1382 c 1,16,-1
 328 1055 l 1,17,18
 315 1051 315 1051 301 1049 c 0,19,20
 289 1047 289 1047 271.5 1045.5 c 128,-1,21
 254 1044 254 1044 236 1044 c 0,22,23
 150 1044 150 1044 105.5 1090.5 c 128,-1,24
 61 1137 61 1137 61 1198 c 0,25,26
 61 1247 61 1247 94 1295 c 128,-1,27
 127 1343 127 1343 191.5 1381 c 128,-1,28
 256 1419 256 1419 351 1441.5 c 128,-1,29
 446 1464 446 1464 573 1464 c 0,30,31
 723 1464 723 1464 831.5 1433.5 c 128,-1,32
 940 1403 940 1403 1009.5 1346.5 c 128,-1,33
 1079 1290 1079 1290 1113 1213.5 c 128,-1,34
 1147 1137 1147 1137 1147 1044 c 0,35,36
 1147 952 1147 952 1111 882.5 c 128,-1,37
 1075 813 1075 813 1015.5 757.5 c 128,-1,38
 956 702 956 702 877.5 657 c 128,-1,39
 799 612 799 612 713 571 c 2,40,-1
 541 489 l 1,41,42
 453 449 453 449 374 400.5 c 128,-1,43
 295 352 295 352 232.5 291.5 c 128,-1,44
 170 231 170 231 133 154 c 1,45,-1
 920 154 l 1,46,47
 924 207 924 207 944.5 257 c 128,-1,48
 965 307 965 307 987 346 c 0,49,50
 1012 391 1012 391 1044 430 c 1,51,-1
 1106 430 l 1,52,-1
 1106 0 l 1,53,-1
 61 0 l 1,0,-1
EndSplineSet
EndChar

StartChar: three
Encoding: 51 51 22
Width: 1239
Flags: W
LayerCount: 2
Fore
SplineSet
41 236 m 0,0,1
 41 297 41 297 85 343 c 128,-1,2
 129 389 129 389 215 389 c 0,3,4
 233 389 233 389 250.5 387 c 128,-1,5
 268 385 268 385 281 383 c 0,6,7
 295 381 295 381 307 379 c 1,8,-1
 307 51 l 1,9,10
 332 43 332 43 362 35 c 1,11,12
 389 29 389 29 424 24.5 c 128,-1,13
 459 20 459 20 502 20 c 0,14,15
 656 20 656 20 732.5 101 c 128,-1,16
 809 182 809 182 809 369 c 0,17,18
 809 539 809 539 729 623 c 128,-1,19
 649 707 649 707 502 707 c 2,20,-1
 348 707 l 1,21,-1
 348 758 l 1,22,-1
 471 758 l 2,23,24
 618 758 618 758 698 840 c 128,-1,25
 778 922 778 922 778 1075 c 0,26,27
 778 1253 778 1253 706.5 1333 c 128,-1,28
 635 1413 635 1413 512 1413 c 0,29,30
 477 1413 477 1413 446.5 1408 c 128,-1,31
 416 1403 416 1403 391 1397 c 0,32,33
 362 1389 362 1389 338 1382 c 1,34,-1
 338 1055 l 1,35,36
 326 1051 326 1051 311 1049 c 0,37,38
 299 1047 299 1047 281.5 1045.5 c 128,-1,39
 264 1044 264 1044 246 1044 c 0,40,41
 160 1044 160 1044 116 1090.5 c 128,-1,42
 72 1137 72 1137 72 1198 c 0,43,44
 72 1247 72 1247 104.5 1295 c 128,-1,45
 137 1343 137 1343 201.5 1381 c 128,-1,46
 266 1419 266 1419 361.5 1441.5 c 128,-1,47
 457 1464 457 1464 584 1464 c 0,48,49
 707 1464 707 1464 807 1437.5 c 128,-1,50
 907 1411 907 1411 978 1362 c 128,-1,51
 1049 1313 1049 1313 1087.5 1240 c 128,-1,52
 1126 1167 1126 1167 1126 1075 c 0,53,54
 1126 936 1126 936 1016.5 845 c 128,-1,55
 907 754 907 754 676 737 c 1,56,57
 916 721 916 721 1036.5 621.5 c 128,-1,58
 1157 522 1157 522 1157 369 c 0,59,60
 1157 176 1157 176 1001.5 72.5 c 128,-1,61
 846 -31 846 -31 553 -31 c 0,62,63
 426 -31 426 -31 331 -8.5 c 128,-1,64
 236 14 236 14 171 52 c 128,-1,65
 106 90 106 90 73.5 138.5 c 128,-1,66
 41 187 41 187 41 236 c 0,0,1
EndSplineSet
EndChar

StartChar: four
Encoding: 52 52 23
Width: 1290
Flags: W
LayerCount: 2
Fore
SplineSet
0 328 m 1,0,-1
 0 379 l 1,1,-1
 952 1454 l 1,2,-1
 1024 1454 l 1,3,-1
 1024 410 l 1,4,-1
 1270 410 l 1,5,-1
 1270 328 l 1,6,-1
 1024 328 l 1,7,-1
 1024 51 l 1,8,-1
 1188 31 l 1,9,-1
 1188 0 l 1,10,-1
 512 0 l 1,11,-1
 512 31 l 1,12,-1
 676 51 l 1,13,-1
 676 328 l 1,14,-1
 0 328 l 1,0,-1
102 410 m 1,15,-1
 676 410 l 1,16,-1
 676 1055 l 1,17,-1
 102 410 l 1,15,-1
EndSplineSet
EndChar

StartChar: five
Encoding: 53 53 24
Width: 1219
Flags: W
LayerCount: 2
Fore
SplineSet
61 236 m 0,0,1
 61 297 61 297 105.5 343 c 128,-1,2
 150 389 150 389 236 389 c 0,3,4
 254 389 254 389 271.5 387 c 128,-1,5
 289 385 289 385 301 383 c 0,6,7
 315 381 315 381 328 379 c 1,8,-1
 328 51 l 1,9,10
 352 43 352 43 381 35 c 0,11,12
 406 29 406 29 436.5 24.5 c 128,-1,13
 467 20 467 20 502 20 c 0,14,15
 567 20 567 20 620.5 43 c 128,-1,16
 674 66 674 66 711 117 c 128,-1,17
 748 168 748 168 768 250 c 128,-1,18
 788 332 788 332 788 451 c 0,19,20
 788 674 788 674 710.5 772 c 128,-1,21
 633 870 633 870 502 870 c 0,22,23
 432 870 432 870 371.5 854 c 128,-1,24
 311 838 311 838 264 819 c 0,25,26
 211 797 211 797 164 768 c 1,27,-1
 113 819 l 1,28,-1
 154 1434 l 1,29,-1
 879 1434 l 1,30,31
 883 1487 883 1487 903.5 1534 c 128,-1,32
 924 1581 924 1581 946 1616 c 0,33,34
 971 1655 971 1655 1004 1690 c 1,35,-1
 1065 1690 l 1,36,-1
 1065 1280 l 1,37,-1
 205 1280 l 1,38,-1
 174 840 l 1,39,40
 219 862 219 862 279 881 c 0,41,42
 328 897 328 897 397.5 909.5 c 128,-1,43
 467 922 467 922 553 922 c 0,44,45
 831 922 831 922 984 802 c 128,-1,46
 1137 682 1137 682 1137 451 c 0,47,48
 1137 211 1137 211 984 90 c 128,-1,49
 831 -31 831 -31 553 -31 c 0,50,51
 434 -31 434 -31 342 -8.5 c 128,-1,52
 250 14 250 14 187.5 52 c 128,-1,53
 125 90 125 90 93 138 c 128,-1,54
 61 186 61 186 61 236 c 0,0,1
EndSplineSet
EndChar

StartChar: six
Encoding: 54 54 25
Width: 1311
Flags: W
LayerCount: 2
Fore
SplineSet
102 717 m 0,0,1
 102 1079 102 1079 256 1271.5 c 128,-1,2
 410 1464 410 1464 696 1464 c 0,3,4
 807 1464 807 1464 895 1441.5 c 128,-1,5
 983 1419 983 1419 1043.5 1381 c 128,-1,6
 1104 1343 1104 1343 1135.5 1295 c 128,-1,7
 1167 1247 1167 1247 1167 1198 c 0,8,9
 1167 1137 1167 1137 1123 1090.5 c 128,-1,10
 1079 1044 1079 1044 993 1044 c 0,11,12
 973 1044 973 1044 956.5 1045.5 c 128,-1,13
 940 1047 940 1047 928 1049 c 0,14,15
 913 1051 913 1051 901 1055 c 1,16,-1
 901 1382 l 1,17,18
 879 1389 879 1389 856 1397 c 0,19,20
 836 1403 836 1403 810 1408 c 128,-1,21
 784 1413 784 1413 758 1413 c 0,22,23
 692 1413 692 1413 637 1382.5 c 128,-1,24
 582 1352 582 1352 540 1283 c 128,-1,25
 498 1214 498 1214 474.5 1102.5 c 128,-1,26
 451 991 451 991 451 829 c 1,27,-1
 524 844 l 1,28,29
 559 850 559 850 606 855 c 128,-1,30
 653 860 653 860 707 860 c 0,31,32
 848 860 848 860 947.5 827.5 c 128,-1,33
 1047 795 1047 795 1109 737.5 c 128,-1,34
 1171 680 1171 680 1200 601 c 128,-1,35
 1229 522 1229 522 1229 430 c 0,36,37
 1229 334 1229 334 1193 250 c 128,-1,38
 1157 166 1157 166 1085.5 103.5 c 128,-1,39
 1014 41 1014 41 908.5 5 c 128,-1,40
 803 -31 803 -31 666 -31 c 0,41,42
 539 -31 539 -31 435.5 12 c 128,-1,43
 332 55 332 55 258 146.5 c 128,-1,44
 184 238 184 238 143 379 c 128,-1,45
 102 520 102 520 102 717 c 0,0,1
451 553 m 2,46,47
 451 391 451 391 467 286.5 c 128,-1,48
 483 182 483 182 513 120.5 c 128,-1,49
 543 59 543 59 585 34.5 c 128,-1,50
 627 10 627 10 676 10 c 0,51,52
 715 10 715 10 751.5 32.5 c 128,-1,53
 788 55 788 55 817 105.5 c 128,-1,54
 846 156 846 156 863.5 235.5 c 128,-1,55
 881 315 881 315 881 430 c 0,56,57
 881 623 881 623 824.5 716 c 128,-1,58
 768 809 768 809 645 809 c 0,59,60
 606 809 606 809 571.5 804 c 128,-1,61
 537 799 537 799 510 793 c 2,62,-1
 451 778 l 1,63,-1
 451 553 l 2,46,47
EndSplineSet
EndChar

StartChar: seven
Encoding: 55 55 26
Width: 1167
Flags: W
LayerCount: 2
Fore
SplineSet
61 1004 m 1,0,-1
 61 1434 l 1,1,-1
 1106 1434 l 1,2,-1
 1106 1382 l 2,3,4
 1106 1271 1106 1271 1074 1173 c 128,-1,5
 1042 1075 1042 1075 994 978 c 128,-1,6
 946 881 946 881 891 779.5 c 128,-1,7
 836 678 836 678 787.5 561 c 128,-1,8
 739 444 739 444 707.5 306 c 128,-1,9
 676 168 676 168 676 0 c 1,10,-1
 307 0 l 1,11,12
 327 174 327 174 379.5 311.5 c 128,-1,13
 432 449 432 449 501.5 561.5 c 128,-1,14
 571 674 571 674 651 767 c 2,15,-1
 805 944 l 2,16,17
 879 1028 879 1028 940 1109 c 128,-1,18
 1001 1190 1001 1190 1034 1280 c 1,19,-1
 248 1280 l 1,20,21
 244 1227 244 1227 223.5 1176.5 c 128,-1,22
 203 1126 203 1126 180 1087 c 0,23,24
 153 1042 153 1042 123 1004 c 1,25,-1
 61 1004 l 1,0,-1
EndSplineSet
EndChar

StartChar: eight
Encoding: 56 56 27
Width: 1290
Flags: W
LayerCount: 2
Fore
SplineSet
82 317 m 0,0,1
 82 393 82 393 107.5 452.5 c 128,-1,2
 133 512 133 512 177 558 c 128,-1,3
 221 604 221 604 280.5 640 c 128,-1,4
 340 676 340 676 410 707 c 1,5,6
 353 742 353 742 302.5 780.5 c 128,-1,7
 252 819 252 819 214 867 c 128,-1,8
 176 915 176 915 154.5 973.5 c 128,-1,9
 133 1032 133 1032 133 1106 c 0,10,11
 133 1276 133 1276 271.5 1370 c 128,-1,12
 410 1464 410 1464 696 1464 c 0,13,14
 815 1464 815 1464 902 1438.5 c 128,-1,15
 989 1413 989 1413 1045.5 1369 c 128,-1,16
 1102 1325 1102 1325 1129.5 1265.5 c 128,-1,17
 1157 1206 1157 1206 1157 1137 c 0,18,19
 1157 1071 1157 1071 1131.5 1020 c 128,-1,20
 1106 969 1106 969 1063 928 c 128,-1,21
 1020 887 1020 887 962.5 853 c 128,-1,22
 905 819 905 819 840 788 c 1,23,24
 910 749 910 749 975 708.5 c 128,-1,25
 1040 668 1040 668 1092.5 617.5 c 128,-1,26
 1145 567 1145 567 1176.5 505.5 c 128,-1,27
 1208 444 1208 444 1208 369 c 0,28,29
 1208 289 1208 289 1171.5 216 c 128,-1,30
 1135 143 1135 143 1058 88 c 128,-1,31
 981 33 981 33 863 1 c 128,-1,32
 745 -31 745 -31 584 -31 c 0,33,34
 461 -31 461 -31 366.5 -1 c 128,-1,35
 272 29 272 29 209.5 78 c 128,-1,36
 147 127 147 127 114.5 189 c 128,-1,37
 82 251 82 251 82 317 c 0,0,1
143 317 m 0,38,39
 143 264 143 264 171 211 c 128,-1,40
 199 158 199 158 251 116 c 128,-1,41
 303 74 303 74 377 47 c 128,-1,42
 451 20 451 20 543 20 c 0,43,44
 697 20 697 20 778.5 97 c 128,-1,45
 860 174 860 174 860 297 c 0,46,47
 860 354 860 354 825.5 406.5 c 128,-1,48
 791 459 791 459 736.5 505 c 128,-1,49
 682 551 682 551 614.5 591 c 128,-1,50
 547 631 547 631 481 666 c 1,51,52
 411 643 411 643 350 610.5 c 128,-1,53
 289 578 289 578 243 535 c 128,-1,54
 197 492 197 492 170 437.5 c 128,-1,55
 143 383 143 383 143 317 c 0,38,39
481 1178 m 0,56,57
 481 1121 481 1121 505.5 1071.5 c 128,-1,58
 530 1022 530 1022 572 980 c 128,-1,59
 614 938 614 938 667.5 901 c 128,-1,60
 721 864 721 864 778 829 c 1,61,62
 844 856 844 856 901 888 c 128,-1,63
 958 920 958 920 1001 956.5 c 128,-1,64
 1044 993 1044 993 1070 1038 c 128,-1,65
 1096 1083 1096 1083 1096 1137 c 0,66,67
 1096 1194 1096 1194 1073.5 1244 c 128,-1,68
 1051 1294 1051 1294 1006 1332 c 128,-1,69
 961 1370 961 1370 893 1391.5 c 128,-1,70
 825 1413 825 1413 737 1413 c 0,71,72
 620 1413 620 1413 550.5 1345.5 c 128,-1,73
 481 1278 481 1278 481 1178 c 0,56,57
EndSplineSet
EndChar

StartChar: nine
Encoding: 57 57 28
Width: 1311
Flags: W
LayerCount: 2
Fore
SplineSet
82 1004 m 0,0,1
 82 1100 82 1100 118 1184 c 128,-1,2
 154 1268 154 1268 225.5 1330.5 c 128,-1,3
 297 1393 297 1393 401.5 1428.5 c 128,-1,4
 506 1464 506 1464 645 1464 c 0,5,6
 772 1464 772 1464 875.5 1421 c 128,-1,7
 979 1378 979 1378 1052.5 1287 c 128,-1,8
 1126 1196 1126 1196 1167 1054.5 c 128,-1,9
 1208 913 1208 913 1208 717 c 0,10,11
 1208 354 1208 354 1054.5 161.5 c 128,-1,12
 901 -31 901 -31 614 -31 c 0,13,14
 504 -31 504 -31 416 -8.5 c 128,-1,15
 328 14 328 14 267.5 52 c 128,-1,16
 207 90 207 90 175 138 c 128,-1,17
 143 186 143 186 143 236 c 0,18,19
 143 297 143 297 187 343 c 128,-1,20
 231 389 231 389 317 389 c 0,21,22
 336 389 336 389 353.5 387 c 128,-1,23
 371 385 371 385 383 383 c 0,24,25
 397 381 397 381 410 379 c 1,26,-1
 410 51 l 1,27,-1
 455 35 l 1,28,29
 475 29 475 29 499.5 24.5 c 128,-1,30
 524 20 524 20 553 20 c 0,31,32
 616 20 616 20 672.5 51 c 128,-1,33
 729 82 729 82 770 150.5 c 128,-1,34
 811 219 811 219 835.5 330.5 c 128,-1,35
 860 442 860 442 860 604 c 1,36,37
 825 596 825 596 786 588 c 0,38,39
 752 582 752 582 704.5 577.5 c 128,-1,40
 657 573 657 573 604 573 c 0,41,42
 463 573 463 573 363.5 606 c 128,-1,43
 264 639 264 639 201.5 696.5 c 128,-1,44
 139 754 139 754 110.5 832.5 c 128,-1,45
 82 911 82 911 82 1004 c 0,0,1
430 1004 m 0,46,47
 430 811 430 811 486.5 718 c 128,-1,48
 543 625 543 625 666 625 c 0,49,50
 705 625 705 625 738.5 629 c 128,-1,51
 772 633 772 633 801 639 c 1,52,-1
 860 655 l 1,53,-1
 860 881 l 2,54,55
 860 1042 860 1042 843.5 1146.5 c 128,-1,56
 827 1251 827 1251 797.5 1312.5 c 128,-1,57
 768 1374 768 1374 726 1398.5 c 128,-1,58
 684 1423 684 1423 635 1423 c 0,59,60
 596 1423 596 1423 559 1400.5 c 128,-1,61
 522 1378 522 1378 493.5 1328 c 128,-1,62
 465 1278 465 1278 447.5 1198 c 128,-1,63
 430 1118 430 1118 430 1004 c 0,46,47
EndSplineSet
EndChar

StartChar: colon
Encoding: 58 58 29
Width: 573
Flags: W
LayerCount: 2
Fore
SplineSet
123 143 m 256,0,1
 123 215 123 215 169 261 c 128,-1,2
 215 307 215 307 287 307 c 256,3,4
 359 307 359 307 405 261 c 128,-1,5
 451 215 451 215 451 143 c 256,6,7
 451 71 451 71 404.5 25.5 c 128,-1,8
 358 -20 358 -20 287 -20 c 0,9,10
 215 -20 215 -20 169 25.5 c 128,-1,11
 123 71 123 71 123 143 c 256,0,1
123 881 m 256,12,13
 123 953 123 953 169 998.5 c 128,-1,14
 215 1044 215 1044 287 1044 c 256,15,16
 359 1044 359 1044 405 998 c 128,-1,17
 451 952 451 952 451 881 c 0,18,19
 451 809 451 809 404.5 763 c 128,-1,20
 358 717 358 717 287 717 c 0,21,22
 215 717 215 717 169 763 c 128,-1,23
 123 809 123 809 123 881 c 256,12,13
EndSplineSet
EndChar

StartChar: semicolon
Encoding: 59 59 30
Width: 594
Flags: W
LayerCount: 2
Fore
SplineSet
123 143 m 0,0,1
 123 215 123 215 167 261 c 128,-1,2
 211 307 211 307 276 307 c 0,3,4
 348 307 348 307 399.5 257 c 128,-1,5
 451 207 451 207 451 104 c 0,6,7
 451 -25 451 -25 411 -98.5 c 128,-1,8
 371 -172 371 -172 324 -211 c 0,9,10
 268 -256 268 -256 199 -272 c 1,11,-1
 180 -233 l 1,12,13
 231 -217 231 -217 274 -184 c 0,14,15
 311 -156 311 -156 343 -108.5 c 128,-1,16
 375 -61 375 -61 383 16 c 1,17,18
 367 6 367 6 350 -2 c 0,19,20
 334 -10 334 -10 316.5 -15 c 128,-1,21
 299 -20 299 -20 276 -20 c 0,22,23
 211 -20 211 -20 167 26 c 128,-1,24
 123 72 123 72 123 143 c 0,0,1
123 881 m 0,25,26
 123 952 123 952 169 998 c 128,-1,27
 215 1044 215 1044 287 1044 c 0,28,29
 358 1044 358 1044 404.5 998 c 128,-1,30
 451 952 451 952 451 881 c 0,31,32
 451 809 451 809 404.5 763 c 128,-1,33
 358 717 358 717 287 717 c 0,34,35
 215 717 215 717 169 763 c 128,-1,36
 123 809 123 809 123 881 c 0,25,26
EndSplineSet
EndChar

StartChar: less
Encoding: 60 60 31
Width: 1004
Flags: W
LayerCount: 2
Fore
SplineSet
0 594 m 1,0,-1
 901 1208 l 1,1,-1
 901 1085 l 1,2,-1
 184 594 l 1,3,-1
 901 102 l 1,4,-1
 901 -20 l 1,5,-1
 0 594 l 1,0,-1
EndSplineSet
EndChar

StartChar: equal
Encoding: 61 61 32
Width: 1096
Flags: W
LayerCount: 2
Fore
SplineSet
61 410 m 1,0,-1
 61 502 l 1,1,-1
 1034 502 l 1,2,-1
 1034 410 l 1,3,-1
 61 410 l 1,0,-1
61 809 m 1,4,-1
 61 901 l 1,5,-1
 1034 901 l 1,6,-1
 1034 809 l 1,7,-1
 61 809 l 1,4,-1
EndSplineSet
EndChar

StartChar: greater
Encoding: 62 62 33
Width: 1004
Flags: W
LayerCount: 2
Fore
SplineSet
102 -20 m 1,0,-1
 102 102 l 1,1,-1
 819 594 l 1,2,-1
 102 1085 l 1,3,-1
 102 1208 l 1,4,-1
 1004 594 l 1,5,-1
 102 -20 l 1,0,-1
EndSplineSet
EndChar

StartChar: question
Encoding: 63 63 34
Width: 1188
Flags: W
LayerCount: 2
Fore
SplineSet
41 1198 m 0,0,1
 41 1247 41 1247 73.5 1295 c 128,-1,2
 106 1343 106 1343 171 1381 c 128,-1,3
 236 1419 236 1419 331 1441.5 c 128,-1,4
 426 1464 426 1464 553 1464 c 0,5,6
 702 1464 702 1464 811 1433.5 c 128,-1,7
 920 1403 920 1403 989.5 1348.5 c 128,-1,8
 1059 1294 1059 1294 1092.5 1221.5 c 128,-1,9
 1126 1149 1126 1149 1126 1065 c 0,10,11
 1126 965 1126 965 1077 888 c 128,-1,12
 1028 811 1028 811 950 753.5 c 128,-1,13
 872 696 872 696 776 659.5 c 128,-1,14
 680 623 680 623 584 604 c 1,15,-1
 584 440 l 1,16,-1
 481 440 l 1,17,-1
 481 655 l 1,18,19
 612 717 612 717 695 828.5 c 128,-1,20
 778 940 778 940 778 1116 c 0,21,22
 778 1270 778 1270 706.5 1341.5 c 128,-1,23
 635 1413 635 1413 481 1413 c 0,24,25
 446 1413 446 1413 415.5 1408 c 128,-1,26
 385 1403 385 1403 360 1397 c 1,27,28
 332 1389 332 1389 307 1382 c 1,29,-1
 307 1055 l 1,30,31
 295 1051 295 1051 281 1049 c 0,32,33
 268 1047 268 1047 250.5 1045.5 c 128,-1,34
 233 1044 233 1044 215 1044 c 0,35,36
 129 1044 129 1044 85 1090.5 c 128,-1,37
 41 1137 41 1137 41 1198 c 0,0,1
369 143 m 0,38,39
 369 215 369 215 415 261 c 128,-1,40
 461 307 461 307 532 307 c 0,41,42
 604 307 604 307 650 261 c 128,-1,43
 696 215 696 215 696 143 c 0,44,45
 696 72 696 72 650 26 c 128,-1,46
 604 -20 604 -20 532 -20 c 0,47,48
 461 -20 461 -20 415 26 c 128,-1,49
 369 72 369 72 369 143 c 0,38,39
EndSplineSet
EndChar

StartChar: at
Encoding: 64 64 35
Width: 1720
Flags: W
LayerCount: 2
Fore
SplineSet
82 717 m 256,0,1
 82 871 82 871 140.5 1005 c 128,-1,2
 199 1139 199 1139 302.5 1239 c 128,-1,3
 406 1339 406 1339 548 1396.5 c 128,-1,4
 690 1454 690 1454 860 1454 c 0,5,6
 1028 1454 1028 1454 1171.5 1396.5 c 128,-1,7
 1315 1339 1315 1339 1418.5 1239 c 128,-1,8
 1522 1139 1522 1139 1580 1004.5 c 128,-1,9
 1638 870 1638 870 1638 717 c 0,10,11
 1638 621 1638 621 1618.5 540 c 128,-1,12
 1599 459 1599 459 1559.5 400.5 c 128,-1,13
 1520 342 1520 342 1457.5 309 c 128,-1,14
 1395 276 1395 276 1311 276 c 0,15,16
 1194 276 1194 276 1129.5 309 c 128,-1,17
 1065 342 1065 342 1032 383 c 0,18,19
 995 430 995 430 983 492 c 1,20,21
 969 431 969 431 936 383 c 0,22,23
 907 342 907 342 857 309 c 128,-1,24
 807 276 807 276 727 276 c 0,25,26
 657 276 657 276 596 304 c 128,-1,27
 535 332 535 332 488.5 382 c 128,-1,28
 442 432 442 432 415.5 501.5 c 128,-1,29
 389 571 389 571 389 655 c 0,30,31
 389 886 389 886 526.5 1016.5 c 128,-1,32
 664 1147 664 1147 942 1147 c 2,33,-1
 1249 1147 l 1,34,-1
 1249 440 l 2,35,36
 1249 387 1249 387 1277 357.5 c 128,-1,37
 1305 328 1305 328 1352 328 c 0,38,39
 1391 328 1391 328 1427.5 351.5 c 128,-1,40
 1464 375 1464 375 1493 423 c 128,-1,41
 1522 471 1522 471 1539 543.5 c 128,-1,42
 1556 616 1556 616 1556 717 c 0,43,44
 1556 867 1556 867 1504 991.5 c 128,-1,45
 1452 1116 1452 1116 1359 1205 c 128,-1,46
 1266 1294 1266 1294 1138 1343.5 c 128,-1,47
 1010 1393 1010 1393 860 1393 c 256,48,49
 710 1393 710 1393 582.5 1343.5 c 128,-1,50
 455 1294 455 1294 361.5 1205 c 128,-1,51
 268 1116 268 1116 216 991 c 128,-1,52
 164 866 164 866 164 717 c 0,53,54
 164 572 164 572 217 445.5 c 128,-1,55
 270 319 270 319 365.5 227 c 128,-1,56
 461 135 461 135 592 83 c 128,-1,57
 723 31 723 31 881 31 c 0,58,59
 967 31 967 31 1036.5 51.5 c 128,-1,60
 1106 72 1106 72 1159 96 c 1,61,62
 1220 125 1220 125 1270 164 c 1,63,-1
 1300 123 l 1,64,65
 1253 82 1253 82 1188 51 c 1,66,67
 1133 22 1133 22 1051 1 c 128,-1,68
 969 -20 969 -20 860 -20 c 0,69,70
 690 -20 690 -20 548 37 c 128,-1,71
 406 94 406 94 302.5 194.5 c 128,-1,72
 199 295 199 295 140.5 429 c 128,-1,73
 82 563 82 563 82 717 c 256,0,1
696 655 m 0,74,75
 696 567 696 567 708.5 508 c 128,-1,76
 721 449 721 449 737.5 414 c 128,-1,77
 754 379 754 379 773.5 363.5 c 128,-1,78
 793 348 793 348 809 348 c 0,79,80
 848 348 848 348 872.5 374.5 c 128,-1,81
 897 401 897 401 913 434 c 0,82,83
 931 471 931 471 942 522 c 1,84,-1
 942 1096 l 1,85,86
 893 1096 893 1096 848 1073.5 c 128,-1,87
 803 1051 803 1051 769 998.5 c 128,-1,88
 735 946 735 946 715.5 862 c 128,-1,89
 696 778 696 778 696 655 c 0,74,75
EndSplineSet
EndChar

StartChar: A
Encoding: 65 65 36
Width: 1516
Flags: W
LayerCount: 2
Fore
SplineSet
-61 0 m 1,0,-1
 -61 31 l 1,1,-1
 123 51 l 1,2,-1
 748 1454 l 1,3,-1
 809 1454 l 1,4,-1
 1444 51 l 1,5,-1
 1577 31 l 1,6,-1
 1577 0 l 1,7,-1
 1280 0 l 2,8,9
 1180 0 1180 0 1105 61.5 c 128,-1,10
 1030 123 1030 123 983 225 c 2,11,-1
 899 410 l 1,12,-1
 354 410 l 1,13,-1
 195 51 l 1,14,-1
 399 31 l 1,15,-1
 399 0 l 1,16,-1
 -61 0 l 1,0,-1
381 471 m 1,17,-1
 872 471 l 1,18,-1
 625 1018 l 1,19,-1
 381 471 l 1,17,-1
EndSplineSet
EndChar

StartChar: B
Encoding: 66 66 37
Width: 1475
Flags: W
LayerCount: 2
Fore
SplineSet
82 0 m 1,0,-1
 82 31 l 1,1,-1
 246 51 l 1,2,-1
 246 1382 l 1,3,-1
 82 1403 l 1,4,-1
 82 1434 l 1,5,-1
 717 1434 l 2,6,7
 1040 1434 1040 1434 1196 1334.5 c 128,-1,8
 1352 1235 1352 1235 1352 1065 c 0,9,10
 1352 999 1352 999 1327.5 943 c 128,-1,11
 1303 887 1303 887 1250.5 844 c 128,-1,12
 1198 801 1198 801 1114 773 c 128,-1,13
 1030 745 1030 745 911 737 c 1,14,15
 1038 729 1038 729 1129.5 699.5 c 128,-1,16
 1221 670 1221 670 1279 622.5 c 128,-1,17
 1337 575 1337 575 1365 514 c 128,-1,18
 1393 453 1393 453 1393 379 c 0,19,20
 1393 201 1393 201 1237 100.5 c 128,-1,21
 1081 0 1081 0 758 0 c 2,22,-1
 82 0 l 1,0,-1
594 51 m 1,23,-1
 717 51 l 2,24,25
 1044 51 1044 51 1044 379 c 256,26,27
 1044 707 1044 707 717 707 c 2,28,-1
 594 707 l 1,29,-1
 594 51 l 1,23,-1
594 758 m 1,30,-1
 676 758 l 2,31,32
 1004 758 1004 758 1004 1065 c 0,33,34
 1004 1219 1004 1219 921 1300.5 c 128,-1,35
 838 1382 838 1382 676 1382 c 2,36,-1
 594 1382 l 1,37,-1
 594 758 l 1,30,-1
EndSplineSet
EndChar

StartChar: C
Encoding: 67 67 38
Width: 1403
Flags: W
LayerCount: 2
Fore
SplineSet
102 717 m 256,0,1
 102 920 102 920 163.5 1062 c 128,-1,2
 225 1204 225 1204 320.5 1293 c 128,-1,3
 416 1382 416 1382 529.5 1423 c 128,-1,4
 643 1464 643 1464 748 1464 c 0,5,6
 834 1464 834 1464 897.5 1439.5 c 128,-1,7
 961 1415 961 1415 1006 1386 c 0,8,9
 1059 1352 1059 1352 1096 1311 c 1,10,11
 1118 1346 1118 1346 1143 1372 c 0,12,13
 1165 1395 1165 1395 1195 1414.5 c 128,-1,14
 1225 1434 1225 1434 1260 1434 c 2,15,-1
 1300 1434 l 1,16,-1
 1300 1044 l 1,17,-1
 1208 1044 l 1,18,19
 1182 1106 1182 1106 1140 1171.5 c 128,-1,20
 1098 1237 1098 1237 1043.5 1290 c 128,-1,21
 989 1343 989 1343 921.5 1378 c 128,-1,22
 854 1413 854 1413 778 1413 c 0,23,24
 729 1413 729 1413 672.5 1377 c 128,-1,25
 616 1341 616 1341 569 1260.5 c 128,-1,26
 522 1180 522 1180 491.5 1046.5 c 128,-1,27
 461 913 461 913 461 717 c 0,28,29
 461 520 461 520 492.5 387 c 128,-1,30
 524 254 524 254 577.5 173 c 128,-1,31
 631 92 631 92 698.5 56 c 128,-1,32
 766 20 766 20 840 20 c 0,33,34
 909 20 909 20 974.5 41.5 c 128,-1,35
 1040 63 1040 63 1097.5 102 c 128,-1,36
 1155 141 1155 141 1200 193.5 c 128,-1,37
 1245 246 1245 246 1274 307 c 1,38,-1
 1321 276 l 1,39,40
 1286 211 1286 211 1238 154.5 c 128,-1,41
 1190 98 1190 98 1126.5 57 c 128,-1,42
 1063 16 1063 16 984 -7.5 c 128,-1,43
 905 -31 905 -31 809 -31 c 0,44,45
 682 -31 682 -31 556 10 c 128,-1,46
 430 51 430 51 328.5 140 c 128,-1,47
 227 229 227 229 164.5 371.5 c 128,-1,48
 102 514 102 514 102 717 c 256,0,1
EndSplineSet
EndChar

StartChar: D
Encoding: 68 68 39
Width: 1546
Flags: W
LayerCount: 2
Fore
SplineSet
82 0 m 1,0,-1
 82 31 l 1,1,-1
 246 51 l 1,2,-1
 246 1382 l 1,3,-1
 82 1403 l 1,4,-1
 82 1434 l 1,5,-1
 655 1434 l 2,6,7
 805 1434 805 1434 947.5 1394 c 128,-1,8
 1090 1354 1090 1354 1200.5 1268 c 128,-1,9
 1311 1182 1311 1182 1377.5 1045.5 c 128,-1,10
 1444 909 1444 909 1444 717 c 0,11,12
 1444 524 1444 524 1377.5 388 c 128,-1,13
 1311 252 1311 252 1200.5 166 c 128,-1,14
 1090 80 1090 80 947.5 40 c 128,-1,15
 805 0 805 0 655 0 c 2,16,-1
 82 0 l 1,0,-1
594 51 m 1,17,-1
 645 51 l 2,18,19
 733 51 733 51 813 86 c 128,-1,20
 893 121 893 121 953.5 200 c 128,-1,21
 1014 279 1014 279 1049.5 405.5 c 128,-1,22
 1085 532 1085 532 1085 717 c 0,23,24
 1085 901 1085 901 1049.5 1028 c 128,-1,25
 1014 1155 1014 1155 953.5 1234 c 128,-1,26
 893 1313 893 1313 813 1347.5 c 128,-1,27
 733 1382 733 1382 645 1382 c 2,28,-1
 594 1382 l 1,29,-1
 594 51 l 1,17,-1
EndSplineSet
EndChar

StartChar: E
Encoding: 69 69 40
Width: 1403
Flags: W
LayerCount: 2
Fore
SplineSet
82 0 m 1,0,-1
 82 31 l 1,1,-1
 246 51 l 1,2,-1
 246 1382 l 1,3,-1
 82 1403 l 1,4,-1
 82 1434 l 1,5,-1
 1300 1434 l 1,6,-1
 1300 1044 l 1,7,-1
 1239 1044 l 1,8,9
 1204 1087 1204 1087 1176 1141 c 1,10,11
 1151 1186 1151 1186 1130.5 1247.5 c 128,-1,12
 1110 1309 1110 1309 1106 1382 c 1,13,-1
 594 1382 l 1,14,-1
 594 758 l 1,15,-1
 870 758 l 1,16,17
 874 784 874 784 883.5 819 c 128,-1,18
 893 854 893 854 905.5 890 c 128,-1,19
 918 926 918 926 932 958.5 c 128,-1,20
 946 991 946 991 963 1014 c 1,21,-1
 1014 1014 l 1,22,-1
 1014 451 l 1,23,-1
 963 451 l 1,24,25
 946 473 946 473 932 506 c 128,-1,26
 918 539 918 539 905.5 574.5 c 128,-1,27
 893 610 893 610 883.5 645 c 128,-1,28
 874 680 874 680 870 707 c 1,29,-1
 594 707 l 1,30,-1
 594 51 l 1,31,-1
 1106 51 l 1,32,33
 1110 123 1110 123 1130.5 185.5 c 128,-1,34
 1151 248 1151 248 1176 293 c 1,35,36
 1204 346 1204 346 1239 389 c 1,37,-1
 1300 389 l 1,38,-1
 1300 0 l 1,39,-1
 82 0 l 1,0,-1
EndSplineSet
EndChar

StartChar: F
Encoding: 70 70 41
Width: 1362
Flags: W
LayerCount: 2
Fore
SplineSet
82 0 m 1,0,-1
 82 31 l 1,1,-1
 246 51 l 1,2,-1
 246 1382 l 1,3,-1
 82 1403 l 1,4,-1
 82 1434 l 1,5,-1
 1300 1434 l 1,6,-1
 1300 1044 l 1,7,-1
 1239 1044 l 1,8,9
 1204 1087 1204 1087 1176 1141 c 1,10,11
 1151 1186 1151 1186 1130.5 1247.5 c 128,-1,12
 1110 1309 1110 1309 1106 1382 c 1,13,-1
 594 1382 l 1,14,-1
 594 717 l 1,15,-1
 870 717 l 1,16,17
 874 743 874 743 883.5 778 c 128,-1,18
 893 813 893 813 905.5 849 c 128,-1,19
 918 885 918 885 932 917.5 c 128,-1,20
 946 950 946 950 963 973 c 1,21,-1
 1014 973 l 1,22,-1
 1014 410 l 1,23,-1
 963 410 l 1,24,25
 946 432 946 432 932 465 c 128,-1,26
 918 498 918 498 905.5 533.5 c 128,-1,27
 893 569 893 569 883.5 604 c 128,-1,28
 874 639 874 639 870 666 c 1,29,-1
 594 666 l 1,30,-1
 594 51 l 1,31,-1
 737 31 l 1,32,-1
 737 0 l 1,33,-1
 82 0 l 1,0,-1
EndSplineSet
EndChar

StartChar: G
Encoding: 71 71 42
Width: 1505
Flags: W
LayerCount: 2
Fore
SplineSet
102 717 m 256,0,1
 102 920 102 920 163.5 1062 c 128,-1,2
 225 1204 225 1204 320.5 1293 c 128,-1,3
 416 1382 416 1382 529.5 1423 c 128,-1,4
 643 1464 643 1464 748 1464 c 0,5,6
 834 1464 834 1464 897.5 1439.5 c 128,-1,7
 961 1415 961 1415 1006 1386 c 0,8,9
 1059 1351 1059 1351 1096 1311 c 1,10,11
 1119 1346 1119 1346 1143 1372 c 1,12,13
 1166 1395 1166 1395 1195.5 1414.5 c 128,-1,14
 1225 1434 1225 1434 1260 1434 c 2,15,-1
 1300 1434 l 1,16,-1
 1300 1044 l 1,17,-1
 1208 1044 l 1,18,19
 1181 1105 1181 1105 1139.5 1171 c 128,-1,20
 1098 1237 1098 1237 1043.5 1290 c 128,-1,21
 989 1343 989 1343 921.5 1378 c 128,-1,22
 854 1413 854 1413 778 1413 c 0,23,24
 729 1413 729 1413 672.5 1377 c 128,-1,25
 616 1341 616 1341 569 1260.5 c 128,-1,26
 522 1180 522 1180 491.5 1046.5 c 128,-1,27
 461 913 461 913 461 717 c 0,28,29
 461 529 461 529 488.5 399.5 c 128,-1,30
 516 270 516 270 559 190.5 c 128,-1,31
 602 111 602 111 655.5 76 c 128,-1,32
 709 41 709 41 758 41 c 0,33,34
 811 41 811 41 851 70.5 c 128,-1,35
 891 100 891 100 920 137 c 1,36,37
 951 180 951 180 973 236 c 1,38,-1
 973 666 l 1,39,-1
 829 686 l 1,40,-1
 829 717 l 1,41,-1
 1464 717 l 1,42,-1
 1464 686 l 1,43,-1
 1321 666 l 1,44,-1
 1321 0 l 1,45,-1
 1290 0 l 2,46,47
 1200 0 1200 0 1146 31.5 c 128,-1,48
 1092 63 1092 63 1063 102 c 1,49,50
 1028 147 1028 147 1014 205 c 1,51,52
 989 139 989 139 946 86 c 0,53,54
 909 41 909 41 845.5 5 c 128,-1,55
 782 -31 782 -31 686 -31 c 0,56,57
 598 -31 598 -31 495.5 10 c 128,-1,58
 393 51 393 51 306 140 c 128,-1,59
 219 229 219 229 160.5 371.5 c 128,-1,60
 102 514 102 514 102 717 c 256,0,1
EndSplineSet
EndChar

StartChar: H
Encoding: 72 72 43
Width: 1669
Flags: W
LayerCount: 2
Fore
SplineSet
82 0 m 1,0,-1
 82 31 l 1,1,-1
 246 51 l 1,2,-1
 246 1382 l 1,3,-1
 82 1403 l 1,4,-1
 82 1434 l 1,5,-1
 758 1434 l 1,6,-1
 758 1403 l 1,7,-1
 594 1382 l 1,8,-1
 594 758 l 1,9,-1
 1075 758 l 1,10,-1
 1075 1382 l 1,11,-1
 911 1403 l 1,12,-1
 911 1434 l 1,13,-1
 1587 1434 l 1,14,-1
 1587 1403 l 1,15,-1
 1423 1382 l 1,16,-1
 1423 51 l 1,17,-1
 1587 31 l 1,18,-1
 1587 0 l 1,19,-1
 911 0 l 1,20,-1
 911 31 l 1,21,-1
 1075 51 l 1,22,-1
 1075 707 l 1,23,-1
 594 707 l 1,24,-1
 594 51 l 1,25,-1
 758 31 l 1,26,-1
 758 0 l 1,27,-1
 82 0 l 1,0,-1
EndSplineSet
EndChar

StartChar: I
Encoding: 73 73 44
Width: 840
Flags: W
LayerCount: 2
Fore
SplineSet
82 0 m 1,0,-1
 82 31 l 1,1,-1
 246 51 l 1,2,-1
 246 1382 l 1,3,-1
 82 1403 l 1,4,-1
 82 1434 l 1,5,-1
 758 1434 l 1,6,-1
 758 1403 l 1,7,-1
 594 1382 l 1,8,-1
 594 51 l 1,9,-1
 758 31 l 1,10,-1
 758 0 l 1,11,-1
 82 0 l 1,0,-1
EndSplineSet
EndChar

StartChar: J
Encoding: 74 74 45
Width: 1229
Flags: W
LayerCount: 2
Fore
SplineSet
0 236 m 0,0,1
 0 297 0 297 44 343 c 128,-1,2
 88 389 88 389 174 389 c 0,3,4
 193 389 193 389 210 387 c 128,-1,5
 227 385 227 385 240 383 c 0,6,7
 254 381 254 381 266 379 c 1,8,-1
 266 51 l 1,9,10
 287 43 287 43 311 35 c 1,11,12
 334 29 334 29 365.5 24.5 c 128,-1,13
 397 20 397 20 440 20 c 0,14,15
 498 20 498 20 542 37.5 c 128,-1,16
 586 55 586 55 615.5 101 c 128,-1,17
 645 147 645 147 660.5 227 c 128,-1,18
 676 307 676 307 676 430 c 2,19,-1
 676 1382 l 1,20,-1
 512 1403 l 1,21,-1
 512 1434 l 1,22,-1
 1188 1434 l 1,23,-1
 1188 1403 l 1,24,-1
 1024 1382 l 1,25,-1
 1024 430 l 2,26,27
 1024 326 1024 326 990 241 c 128,-1,28
 956 156 956 156 888.5 95.5 c 128,-1,29
 821 35 821 35 722 2 c 128,-1,30
 623 -31 623 -31 492 -31 c 0,31,32
 373 -31 373 -31 280.5 -8.5 c 128,-1,33
 188 14 188 14 125.5 52 c 128,-1,34
 63 90 63 90 31.5 138 c 128,-1,35
 0 186 0 186 0 236 c 0,0,1
EndSplineSet
EndChar

StartChar: K
Encoding: 75 75 46
Width: 1495
Flags: W
LayerCount: 2
Fore
SplineSet
82 0 m 1,0,-1
 82 31 l 1,1,-1
 246 51 l 1,2,-1
 246 1382 l 1,3,-1
 82 1403 l 1,4,-1
 82 1434 l 1,5,-1
 758 1434 l 1,6,-1
 758 1403 l 1,7,-1
 594 1382 l 1,8,-1
 594 737 l 1,9,-1
 1167 1382 l 1,10,-1
 963 1403 l 1,11,-1
 963 1434 l 1,12,-1
 1423 1434 l 1,13,-1
 1423 1403 l 1,14,-1
 1239 1382 l 1,15,-1
 815 905 l 1,16,-1
 1423 51 l 1,17,-1
 1536 31 l 1,18,-1
 1536 0 l 1,19,-1
 1219 0 l 2,20,21
 1127 0 1127 0 1059 48 c 128,-1,22
 991 96 991 96 913 205 c 2,23,-1
 594 655 l 1,24,-1
 594 51 l 1,25,-1
 758 31 l 1,26,-1
 758 0 l 1,27,-1
 82 0 l 1,0,-1
EndSplineSet
EndChar

StartChar: L
Encoding: 76 76 47
Width: 1362
Flags: W
LayerCount: 2
Fore
SplineSet
82 0 m 1,0,-1
 82 31 l 1,1,-1
 246 51 l 1,2,-1
 246 1382 l 1,3,-1
 82 1403 l 1,4,-1
 82 1434 l 1,5,-1
 737 1434 l 1,6,-1
 737 1403 l 1,7,-1
 594 1382 l 1,8,-1
 594 51 l 1,9,-1
 1106 51 l 1,10,11
 1110 123 1110 123 1130.5 185.5 c 128,-1,12
 1151 248 1151 248 1176 293 c 1,13,14
 1204 346 1204 346 1239 389 c 1,15,-1
 1300 389 l 1,16,-1
 1300 0 l 1,17,-1
 82 0 l 1,0,-1
EndSplineSet
EndChar

StartChar: M
Encoding: 77 77 48
Width: 2140
Flags: W
LayerCount: 2
Fore
SplineSet
82 0 m 1,0,-1
 82 31 l 1,1,-1
 266 51 l 1,2,-1
 266 1382 l 1,3,-1
 102 1403 l 1,4,-1
 102 1434 l 1,5,-1
 410 1434 l 2,6,7
 516 1434 516 1434 579.5 1380.5 c 128,-1,8
 643 1327 643 1327 696 1229 c 2,9,-1
 1147 399 l 1,10,-1
 1495 1229 l 2,11,12
 1540 1338 1540 1338 1606.5 1386 c 128,-1,13
 1673 1434 1673 1434 1782 1434 c 2,14,-1
 2058 1434 l 1,15,-1
 2058 1403 l 1,16,-1
 1894 1382 l 1,17,-1
 1894 51 l 1,18,-1
 2058 31 l 1,19,-1
 2058 0 l 1,20,-1
 1382 0 l 1,21,-1
 1382 31 l 1,22,-1
 1546 51 l 1,23,-1
 1546 1188 l 1,24,-1
 1036 -20 l 1,25,-1
 975 -20 l 1,26,-1
 338 1157 l 1,27,-1
 338 51 l 1,28,-1
 543 31 l 1,29,-1
 543 0 l 1,30,-1
 82 0 l 1,0,-1
EndSplineSet
EndChar

StartChar: N
Encoding: 78 78 49
Width: 1628
Flags: W
LayerCount: 2
Fore
SplineSet
82 0 m 1,0,-1
 82 31 l 1,1,-1
 266 51 l 1,2,-1
 266 1382 l 1,3,-1
 102 1403 l 1,4,-1
 102 1434 l 1,5,-1
 317 1434 l 2,6,7
 366 1434 366 1434 407.5 1420.5 c 128,-1,8
 449 1407 449 1407 486.5 1381.5 c 128,-1,9
 524 1356 524 1356 563 1317 c 2,10,-1
 649 1229 l 1,11,-1
 1331 512 l 1,12,-1
 1331 1382 l 1,13,-1
 1126 1403 l 1,14,-1
 1126 1434 l 1,15,-1
 1587 1434 l 1,16,-1
 1587 1403 l 1,17,-1
 1403 1382 l 1,18,-1
 1403 -20 l 1,19,-1
 1331 -20 l 1,20,-1
 338 1026 l 1,21,-1
 338 51 l 1,22,-1
 543 31 l 1,23,-1
 543 0 l 1,24,-1
 82 0 l 1,0,-1
EndSplineSet
EndChar

StartChar: O
Encoding: 79 79 50
Width: 1556
Flags: W
LayerCount: 2
Fore
SplineSet
102 717 m 256,0,1
 102 920 102 920 163.5 1062 c 128,-1,2
 225 1204 225 1204 321.5 1293 c 128,-1,3
 418 1382 418 1382 538.5 1423 c 128,-1,4
 659 1464 659 1464 778 1464 c 256,5,6
 897 1464 897 1464 1018 1423 c 128,-1,7
 1139 1382 1139 1382 1235 1293 c 128,-1,8
 1331 1204 1331 1204 1392.5 1062 c 128,-1,9
 1454 920 1454 920 1454 717 c 256,10,11
 1454 514 1454 514 1392.5 371.5 c 128,-1,12
 1331 229 1331 229 1235 140 c 128,-1,13
 1139 51 1139 51 1018 10 c 128,-1,14
 897 -31 897 -31 778 -31 c 256,15,16
 659 -31 659 -31 538.5 10 c 128,-1,17
 418 51 418 51 321.5 140 c 128,-1,18
 225 229 225 229 163.5 371.5 c 128,-1,19
 102 514 102 514 102 717 c 256,0,1
461 717 m 0,20,21
 461 516 461 516 490.5 381 c 128,-1,22
 520 246 520 246 566 164 c 128,-1,23
 612 82 612 82 668.5 46 c 128,-1,24
 725 10 725 10 778 10 c 256,25,26
 831 10 831 10 887.5 46 c 128,-1,27
 944 82 944 82 990 164 c 128,-1,28
 1036 246 1036 246 1066 381 c 128,-1,29
 1096 516 1096 516 1096 717 c 0,30,31
 1096 916 1096 916 1066 1052 c 128,-1,32
 1036 1188 1036 1188 990 1270 c 128,-1,33
 944 1352 944 1352 887.5 1387.5 c 128,-1,34
 831 1423 831 1423 778 1423 c 256,35,36
 725 1423 725 1423 668.5 1387.5 c 128,-1,37
 612 1352 612 1352 566 1270 c 128,-1,38
 520 1188 520 1188 490.5 1052 c 128,-1,39
 461 916 461 916 461 717 c 0,20,21
EndSplineSet
EndChar

StartChar: P
Encoding: 80 80 51
Width: 1413
Flags: W
LayerCount: 2
Fore
SplineSet
82 0 m 1,0,-1
 82 31 l 1,1,-1
 246 51 l 1,2,-1
 246 1382 l 1,3,-1
 82 1403 l 1,4,-1
 82 1434 l 1,5,-1
 737 1434 l 2,6,7
 1061 1434 1061 1434 1216.5 1318 c 128,-1,8
 1372 1202 1372 1202 1372 993 c 256,9,10
 1372 784 1372 784 1216.5 668.5 c 128,-1,11
 1061 553 1061 553 737 553 c 2,12,-1
 594 553 l 1,13,-1
 594 51 l 1,14,-1
 758 31 l 1,15,-1
 758 0 l 1,16,-1
 82 0 l 1,0,-1
594 604 m 1,17,-1
 696 604 l 2,18,19
 1024 604 1024 604 1024 993 c 256,20,21
 1024 1382 1024 1382 696 1382 c 2,22,-1
 594 1382 l 1,23,-1
 594 604 l 1,17,-1
EndSplineSet
EndChar

StartChar: Q
Encoding: 81 81 52
Width: 1556
Flags: W
LayerCount: 2
Fore
SplineSet
102 717 m 0,0,1
 102 920 102 920 163.5 1062 c 128,-1,2
 225 1204 225 1204 321.5 1293 c 128,-1,3
 418 1382 418 1382 538.5 1423 c 128,-1,4
 659 1464 659 1464 778 1464 c 256,5,6
 897 1464 897 1464 1018 1423 c 128,-1,7
 1139 1382 1139 1382 1235 1293 c 128,-1,8
 1331 1204 1331 1204 1392.5 1062 c 128,-1,9
 1454 920 1454 920 1454 717 c 0,10,11
 1454 551 1454 551 1412 425 c 128,-1,12
 1370 299 1370 299 1301.5 211 c 128,-1,13
 1233 123 1233 123 1142 69.5 c 128,-1,14
 1051 16 1051 16 952 -8 c 1,15,16
 960 -168 960 -168 1018.5 -237.5 c 128,-1,17
 1077 -307 1077 -307 1178 -307 c 1,18,-1
 1178 -348 l 1,19,20
 1037 -348 1037 -348 932 -323.5 c 128,-1,21
 827 -299 827 -299 758.5 -254 c 128,-1,22
 690 -209 690 -209 652 -146.5 c 128,-1,23
 614 -84 614 -84 606 -10 c 1,24,25
 508 15 508 15 417 68 c 128,-1,26
 326 121 326 121 256 210 c 128,-1,27
 186 299 186 299 144 424 c 128,-1,28
 102 549 102 549 102 717 c 0,0,1
461 717 m 0,29,30
 461 516 461 516 490.5 381 c 128,-1,31
 520 246 520 246 566 164 c 128,-1,32
 612 82 612 82 668.5 46 c 128,-1,33
 725 10 725 10 778 10 c 256,34,35
 831 10 831 10 887.5 46 c 128,-1,36
 944 82 944 82 990 164 c 128,-1,37
 1036 246 1036 246 1066 381 c 128,-1,38
 1096 516 1096 516 1096 717 c 0,39,40
 1096 916 1096 916 1066 1052 c 128,-1,41
 1036 1188 1036 1188 990 1270 c 128,-1,42
 944 1352 944 1352 887.5 1387.5 c 128,-1,43
 831 1423 831 1423 778 1423 c 256,44,45
 725 1423 725 1423 668.5 1387.5 c 128,-1,46
 612 1352 612 1352 566 1270 c 128,-1,47
 520 1188 520 1188 490.5 1052 c 128,-1,48
 461 916 461 916 461 717 c 0,29,30
EndSplineSet
EndChar

StartChar: R
Encoding: 82 82 53
Width: 1485
Flags: W
LayerCount: 2
Fore
SplineSet
82 0 m 1,0,-1
 82 31 l 1,1,-1
 246 51 l 1,2,-1
 246 1382 l 1,3,-1
 82 1403 l 1,4,-1
 82 1434 l 1,5,-1
 758 1434 l 2,6,7
 903 1434 903 1434 1014.5 1404 c 128,-1,8
 1126 1374 1126 1374 1201 1322 c 128,-1,9
 1276 1270 1276 1270 1314 1196 c 128,-1,10
 1352 1122 1352 1122 1352 1034 c 0,11,12
 1352 864 1352 864 1232 768 c 128,-1,13
 1112 672 1112 672 881 655 c 1,14,15
 930 645 930 645 981 623 c 1,16,17
 1024 602 1024 602 1071 564 c 128,-1,18
 1118 526 1118 526 1157 461 c 1,19,-1
 1393 51 l 1,20,-1
 1505 31 l 1,21,-1
 1505 0 l 1,22,-1
 1229 0 l 2,23,24
 1120 0 1120 0 1046.5 48 c 128,-1,25
 973 96 973 96 911 205 c 2,26,-1
 666 635 l 1,27,-1
 594 635 l 1,28,-1
 594 51 l 1,29,-1
 758 31 l 1,30,-1
 758 0 l 1,31,-1
 82 0 l 1,0,-1
594 686 m 1,32,-1
 717 686 l 2,33,34
 848 686 848 686 926 779 c 128,-1,35
 1004 872 1004 872 1004 1034 c 256,36,37
 1004 1196 1004 1196 926 1289 c 128,-1,38
 848 1382 848 1382 717 1382 c 2,39,-1
 594 1382 l 1,40,-1
 594 686 l 1,32,-1
EndSplineSet
EndChar

StartChar: S
Encoding: 83 83 54
Width: 1341
Flags: W
LayerCount: 2
Fore
SplineSet
102 1116 m 0,0,1
 102 1192 102 1192 131 1256.5 c 128,-1,2
 160 1321 160 1321 223.5 1367 c 128,-1,3
 287 1413 287 1413 388 1438.5 c 128,-1,4
 489 1464 489 1464 635 1464 c 0,5,6
 723 1464 723 1464 790.5 1439.5 c 128,-1,7
 858 1415 858 1415 903 1386 c 0,8,9
 956 1351 956 1351 993 1311 c 1,10,11
 1016 1346 1016 1346 1040 1372 c 1,12,13
 1063 1395 1063 1395 1092.5 1414.5 c 128,-1,14
 1122 1434 1122 1434 1157 1434 c 2,15,-1
 1198 1434 l 1,16,-1
 1198 1044 l 1,17,-1
 1106 1044 l 1,18,19
 1079 1105 1079 1105 1037 1171 c 128,-1,20
 995 1237 995 1237 942 1290 c 128,-1,21
 889 1343 889 1343 824.5 1378 c 128,-1,22
 760 1413 760 1413 686 1413 c 0,23,24
 577 1413 577 1413 519 1356.5 c 128,-1,25
 461 1300 461 1300 461 1208 c 0,26,27
 461 1124 461 1124 511 1064 c 128,-1,28
 561 1004 561 1004 645 942 c 1,29,-1
 973 707 l 2,30,31
 1022 672 1022 672 1070 630 c 128,-1,32
 1118 588 1118 588 1156 540 c 128,-1,33
 1194 492 1194 492 1216.5 438.5 c 128,-1,34
 1239 385 1239 385 1239 328 c 0,35,36
 1239 248 1239 248 1210.5 181.5 c 128,-1,37
 1182 115 1182 115 1116.5 67.5 c 128,-1,38
 1051 20 1051 20 945.5 -5.5 c 128,-1,39
 840 -31 840 -31 686 -31 c 0,40,41
 594 -31 594 -31 525.5 -7.5 c 128,-1,42
 457 16 457 16 410 45 c 1,43,44
 357 80 357 80 317 123 c 1,45,46
 294 88 294 88 270 61 c 1,47,48
 247 38 247 38 217.5 19 c 128,-1,49
 188 0 188 0 154 0 c 2,50,-1
 113 0 l 1,51,-1
 113 389 l 1,52,-1
 205 389 l 1,53,54
 232 328 232 328 273.5 262.5 c 128,-1,55
 315 197 315 197 369.5 143.5 c 128,-1,56
 424 90 424 90 490.5 55 c 128,-1,57
 557 20 557 20 635 20 c 0,58,59
 758 20 758 20 819.5 77.5 c 128,-1,60
 881 135 881 135 881 236 c 0,61,62
 881 320 881 320 830.5 375 c 128,-1,63
 780 430 780 430 696 492 c 1,64,-1
 369 727 l 2,65,66
 320 762 320 762 271.5 803 c 128,-1,67
 223 844 223 844 185 892 c 128,-1,68
 147 940 147 940 124.5 995 c 128,-1,69
 102 1050 102 1050 102 1116 c 0,0,1
EndSplineSet
EndChar

StartChar: T
Encoding: 84 84 55
Width: 1393
Flags: W
LayerCount: 2
Fore
SplineSet
61 1044 m 1,0,-1
 61 1434 l 1,1,-1
 1331 1434 l 1,2,-1
 1331 1044 l 1,3,-1
 1270 1044 l 1,4,5
 1235 1087 1235 1087 1206 1141 c 0,6,7
 1182 1186 1182 1186 1161.5 1247.5 c 128,-1,8
 1141 1309 1141 1309 1137 1382 c 1,9,-1
 870 1382 l 1,10,-1
 870 51 l 1,11,-1
 1034 31 l 1,12,-1
 1034 0 l 1,13,-1
 358 0 l 1,14,-1
 358 31 l 1,15,-1
 522 51 l 1,16,-1
 522 1382 l 1,17,-1
 256 1382 l 1,18,19
 252 1309 252 1309 231.5 1247.5 c 128,-1,20
 211 1186 211 1186 186 1141 c 1,21,22
 158 1087 158 1087 123 1044 c 1,23,-1
 61 1044 l 1,0,-1
EndSplineSet
EndChar

StartChar: U
Encoding: 85 85 56
Width: 1577
Flags: W
LayerCount: 2
Fore
SplineSet
41 1403 m 1,0,-1
 41 1434 l 1,1,-1
 717 1434 l 1,2,-1
 717 1403 l 1,3,-1
 553 1382 l 1,4,-1
 553 543 l 2,5,6
 553 401 553 401 578.5 302 c 128,-1,7
 604 203 604 203 649 140.5 c 128,-1,8
 694 78 694 78 755.5 49 c 128,-1,9
 817 20 817 20 891 20 c 0,10,11
 975 20 975 20 1046.5 54 c 128,-1,12
 1118 88 1118 88 1170.5 154.5 c 128,-1,13
 1223 221 1223 221 1251.5 318.5 c 128,-1,14
 1280 416 1280 416 1280 543 c 2,15,-1
 1280 1382 l 1,16,-1
 1075 1403 l 1,17,-1
 1075 1434 l 1,18,-1
 1536 1434 l 1,19,-1
 1536 1403 l 1,20,-1
 1352 1382 l 1,21,-1
 1352 543 l 2,22,23
 1352 403 1352 403 1316 296.5 c 128,-1,24
 1280 190 1280 190 1215.5 117.5 c 128,-1,25
 1151 45 1151 45 1063 7 c 128,-1,26
 975 -31 975 -31 870 -31 c 0,27,28
 705 -31 705 -31 581 10 c 128,-1,29
 457 51 457 51 373 126 c 128,-1,30
 289 201 289 201 247 306.5 c 128,-1,31
 205 412 205 412 205 543 c 2,32,-1
 205 1382 l 1,33,-1
 41 1403 l 1,0,-1
EndSplineSet
EndChar

StartChar: V
Encoding: 86 86 57
Width: 1423
Flags: W
LayerCount: 2
Fore
SplineSet
-61 1403 m 1,0,-1
 -61 1434 l 1,1,-1
 213 1434 l 2,2,3
 322 1434 322 1434 387.5 1381.5 c 128,-1,4
 453 1329 453 1329 500 1229 c 1,5,-1
 860 438 l 1,6,-1
 1231 1382 l 1,7,-1
 1026 1403 l 1,8,-1
 1026 1434 l 1,9,-1
 1485 1434 l 1,10,-1
 1485 1403 l 1,11,-1
 1303 1382 l 1,12,-1
 752 -20 l 1,13,-1
 690 -20 l 1,14,-1
 51 1382 l 1,15,-1
 -61 1403 l 1,0,-1
EndSplineSet
EndChar

StartChar: W
Encoding: 87 87 58
Width: 2150
Flags: W
LayerCount: 2
Fore
SplineSet
-61 1403 m 1,0,-1
 -61 1434 l 1,1,-1
 205 1434 l 2,2,3
 314 1434 314 1434 382.5 1377.5 c 128,-1,4
 451 1321 451 1321 492 1229 c 1,5,-1
 821 463 l 1,6,-1
 1016 997 l 1,7,-1
 852 1382 l 1,8,-1
 737 1403 l 1,9,-1
 737 1434 l 1,10,-1
 1004 1434 l 2,11,12
 1113 1434 1113 1434 1181 1377.5 c 128,-1,13
 1249 1321 1249 1321 1290 1229 c 1,14,-1
 1620 463 l 1,15,-1
 1956 1382 l 1,16,-1
 1751 1403 l 1,17,-1
 1751 1434 l 1,18,-1
 2212 1434 l 1,19,-1
 2212 1403 l 1,20,-1
 2028 1382 l 1,21,-1
 1516 -20 l 1,22,-1
 1454 -20 l 1,23,-1
 1055 907 l 1,24,-1
 717 -20 l 1,25,-1
 655 -20 l 1,26,-1
 53 1382 l 1,27,-1
 -61 1403 l 1,0,-1
EndSplineSet
EndChar

StartChar: X
Encoding: 88 88 59
Width: 1372
Flags: W
LayerCount: 2
Fore
SplineSet
-51 1403 m 1,0,-1
 -51 1434 l 1,1,-1
 297 1434 l 2,2,3
 350 1434 350 1434 391 1419.5 c 128,-1,4
 432 1405 432 1405 466 1377.5 c 128,-1,5
 500 1350 500 1350 527.5 1312 c 128,-1,6
 555 1274 555 1274 584 1229 c 1,7,-1
 786 899 l 1,8,-1
 1147 1382 l 1,9,-1
 942 1403 l 1,10,-1
 942 1434 l 1,11,-1
 1403 1434 l 1,12,-1
 1403 1403 l 1,13,-1
 1219 1382 l 1,14,-1
 819 846 l 1,15,-1
 1311 51 l 1,16,-1
 1423 31 l 1,17,-1
 1423 0 l 1,18,-1
 1075 0 l 2,19,20
 1022 0 1022 0 981 14.5 c 128,-1,21
 940 29 940 29 906 56.5 c 128,-1,22
 872 84 872 84 844.5 121 c 128,-1,23
 817 158 817 158 788 205 c 2,24,-1
 586 532 l 1,25,-1
 225 51 l 1,26,-1
 430 31 l 1,27,-1
 430 0 l 1,28,-1
 -31 0 l 1,29,-1
 -31 31 l 1,30,-1
 154 51 l 1,31,-1
 553 586 l 1,32,-1
 61 1382 l 1,33,-1
 -51 1403 l 1,0,-1
EndSplineSet
EndChar

StartChar: Y
Encoding: 89 89 60
Width: 1341
Flags: W
LayerCount: 2
Fore
SplineSet
-61 1403 m 1,0,-1
 -61 1434 l 1,1,-1
 225 1434 l 2,2,3
 278 1434 278 1434 319 1420.5 c 128,-1,4
 360 1407 360 1407 394 1381.5 c 128,-1,5
 428 1356 428 1356 455.5 1318 c 128,-1,6
 483 1280 483 1280 512 1229 c 2,7,-1
 819 676 l 1,8,-1
 1147 1382 l 1,9,-1
 942 1403 l 1,10,-1
 942 1434 l 1,11,-1
 1403 1434 l 1,12,-1
 1403 1403 l 1,13,-1
 1219 1382 l 1,14,-1
 860 604 l 1,15,-1
 860 51 l 1,16,-1
 1024 31 l 1,17,-1
 1024 0 l 1,18,-1
 348 0 l 1,19,-1
 348 31 l 1,20,-1
 512 51 l 1,21,-1
 512 543 l 1,22,-1
 51 1382 l 1,23,-1
 -61 1403 l 1,0,-1
EndSplineSet
EndChar

StartChar: Z
Encoding: 90 90 61
Width: 1331
Flags: W
LayerCount: 2
Fore
SplineSet
61 0 m 1,0,-1
 61 51 l 1,1,-1
 881 1382 l 1,2,-1
 297 1382 l 1,3,4
 293 1308 293 1308 272.5 1247 c 128,-1,5
 252 1186 252 1186 227 1141 c 0,6,7
 198 1088 198 1088 164 1044 c 1,8,-1
 102 1044 l 1,9,-1
 102 1434 l 1,10,-1
 1270 1434 l 1,11,-1
 1270 1382 l 1,12,-1
 451 51 l 1,13,-1
 1034 51 l 1,14,15
 1038 123 1038 123 1058.5 185.5 c 128,-1,16
 1079 248 1079 248 1104 293 c 0,17,18
 1133 346 1133 346 1167 389 c 1,19,-1
 1229 389 l 1,20,-1
 1229 0 l 1,21,-1
 61 0 l 1,0,-1
EndSplineSet
EndChar

StartChar: bracketleft
Encoding: 91 91 62
Width: 696
Flags: W
LayerCount: 2
Fore
SplineSet
123 -410 m 1,0,-1
 123 1434 l 1,1,-1
 655 1434 l 1,2,-1
 655 1382 l 1,3,-1
 451 1382 l 1,4,-1
 451 -358 l 1,5,-1
 655 -358 l 1,6,-1
 655 -410 l 1,7,-1
 123 -410 l 1,0,-1
EndSplineSet
EndChar

StartChar: backslash
Encoding: 92 92 63
Width: 799
Flags: W
LayerCount: 2
Fore
SplineSet
20 1434 m 1,0,-1
 113 1434 l 1,1,-1
 778 0 l 1,2,-1
 676 0 l 1,3,-1
 20 1434 l 1,0,-1
EndSplineSet
EndChar

StartChar: bracketright
Encoding: 93 93 64
Width: 696
Flags: W
LayerCount: 2
Fore
SplineSet
41 -358 m 1,0,-1
 246 -358 l 1,1,-1
 246 1382 l 1,2,-1
 41 1382 l 1,3,-1
 41 1434 l 1,4,-1
 573 1434 l 1,5,-1
 573 -410 l 1,6,-1
 41 -410 l 1,7,-1
 41 -358 l 1,0,-1
EndSplineSet
EndChar

StartChar: asciicircum
Encoding: 94 94 65
Width: 963
Flags: W
LayerCount: 2
Fore
SplineSet
61 840 m 1,0,-1
 481 1495 l 1,1,-1
 901 840 l 1,2,-1
 799 840 l 1,3,-1
 481 1331 l 1,4,-1
 164 840 l 1,5,-1
 61 840 l 1,0,-1
EndSplineSet
EndChar

StartChar: underscore
Encoding: 95 95 66
Width: 778
Flags: W
LayerCount: 2
Fore
SplineSet
0 -123 m 1,0,-1
 778 -123 l 1,1,-1
 778 -199 l 1,2,-1
 0 -199 l 1,3,-1
 0 -123 l 1,0,-1
EndSplineSet
EndChar

StartChar: grave
Encoding: 96 96 67
Width: 492
Flags: W
LayerCount: 2
Fore
SplineSet
61 1434 m 1,0,-1
 328 1434 l 1,1,-1
 430 1085 l 1,2,-1
 340 1085 l 1,3,-1
 61 1434 l 1,0,-1
EndSplineSet
EndChar

StartChar: a
Encoding: 97 97 68
Width: 1270
Flags: W
LayerCount: 2
Fore
SplineSet
61 307 m 0,0,1
 61 342 61 342 67.5 369.5 c 128,-1,2
 74 397 74 397 82 418 c 0,3,4
 90 440 90 440 102 461 c 1,5,6
 193 483 193 483 297 504 c 1,7,8
 385 520 385 520 499.5 534.5 c 128,-1,9
 614 549 614 549 737 553 c 1,10,-1
 737 594 l 2,11,12
 737 717 737 717 722 795.5 c 128,-1,13
 707 874 707 874 678 920.5 c 128,-1,14
 649 967 649 967 607 985.5 c 128,-1,15
 565 1004 565 1004 512 1004 c 0,16,17
 492 1004 492 1004 474.5 1001.5 c 128,-1,18
 457 999 457 999 442 997 c 2,19,-1
 410 993 l 1,20,-1
 410 686 l 1,21,22
 397 682 397 682 383 680 c 0,23,24
 371 678 371 678 353.5 677 c 128,-1,25
 336 676 336 676 317 676 c 0,26,27
 231 676 231 676 187 722 c 128,-1,28
 143 768 143 768 143 829 c 0,29,30
 143 946 143 946 258 1000.5 c 128,-1,31
 373 1055 373 1055 573 1055 c 0,32,33
 696 1055 696 1055 791.5 1022 c 128,-1,34
 887 989 887 989 952.5 928.5 c 128,-1,35
 1018 868 1018 868 1051.5 783 c 128,-1,36
 1085 698 1085 698 1085 594 c 2,37,-1
 1085 51 l 1,38,-1
 1249 31 l 1,39,-1
 1249 0 l 1,40,-1
 1055 0 l 2,41,42
 965 0 965 0 910.5 31.5 c 128,-1,43
 856 63 856 63 827 102 c 0,44,45
 793 147 793 147 778 205 c 1,46,47
 752 139 752 139 709 86 c 0,48,49
 672 41 672 41 610.5 5 c 128,-1,50
 549 -31 549 -31 461 -31 c 0,51,52
 268 -31 268 -31 164.5 57 c 128,-1,53
 61 145 61 145 61 307 c 0,0,1
410 307 m 0,54,55
 410 162 410 162 449.5 101.5 c 128,-1,56
 489 41 489 41 543 41 c 0,57,58
 590 41 590 41 626 70.5 c 128,-1,59
 662 100 662 100 686 137 c 0,60,61
 715 180 715 180 737 236 c 1,62,-1
 737 502 l 1,63,64
 684 502 684 502 629.5 497 c 128,-1,65
 575 492 575 492 530 485 c 0,66,67
 477 477 477 477 430 471 c 1,68,69
 424 440 424 440 420 412 c 0,70,71
 416 387 416 387 413 358.5 c 128,-1,72
 410 330 410 330 410 307 c 0,54,55
EndSplineSet
EndChar

StartChar: b
Encoding: 98 98 69
Width: 1311
Flags: W
LayerCount: 2
Fore
SplineSet
20 1403 m 1,0,-1
 20 1434 l 1,1,-1
 287 1434 l 2,2,3
 532 1434 532 1434 532 1188 c 2,4,-1
 532 963 l 1,5,6
 567 987 567 987 608 1008 c 1,7,8
 643 1024 643 1024 691 1039.5 c 128,-1,9
 739 1055 739 1055 799 1055 c 0,10,11
 891 1055 891 1055 970 1023 c 128,-1,12
 1049 991 1049 991 1106 925.5 c 128,-1,13
 1163 860 1163 860 1196 756.5 c 128,-1,14
 1229 653 1229 653 1229 512 c 256,15,16
 1229 371 1229 371 1188 267.5 c 128,-1,17
 1147 164 1147 164 1084.5 98.5 c 128,-1,18
 1022 33 1022 33 948 1 c 128,-1,19
 874 -31 874 -31 809 -31 c 0,20,21
 719 -31 719 -31 658.5 5 c 128,-1,22
 598 41 598 41 561 86 c 0,23,24
 518 139 518 139 492 205 c 1,25,26
 477 147 477 147 442 102 c 1,27,28
 414 63 414 63 358.5 31.5 c 128,-1,29
 303 0 303 0 215 0 c 2,30,-1
 184 0 l 1,31,-1
 184 1382 l 1,32,-1
 20 1403 l 1,0,-1
532 236 m 1,33,34
 555 180 555 180 584 137 c 0,35,36
 608 100 608 100 644 70.5 c 128,-1,37
 680 41 680 41 727 41 c 0,38,39
 762 41 762 41 790.5 64.5 c 128,-1,40
 819 88 819 88 838.5 142.5 c 128,-1,41
 858 197 858 197 869.5 287 c 128,-1,42
 881 377 881 377 881 512 c 256,43,44
 881 647 881 647 869.5 738 c 128,-1,45
 858 829 858 829 836.5 886.5 c 128,-1,46
 815 944 815 944 785.5 968.5 c 128,-1,47
 756 993 756 993 717 993 c 0,48,49
 686 993 686 993 653.5 979 c 128,-1,50
 621 965 621 965 594 947.5 c 128,-1,51
 567 930 567 930 551 915 c 1,52,-1
 532 901 l 1,53,-1
 532 236 l 1,33,34
EndSplineSet
EndChar

StartChar: c
Encoding: 99 99 70
Width: 1126
Flags: W
LayerCount: 2
Fore
SplineSet
82 512 m 256,0,1
 82 653 82 653 127 756.5 c 128,-1,2
 172 860 172 860 248 925.5 c 128,-1,3
 324 991 324 991 424 1023 c 128,-1,4
 524 1055 524 1055 635 1055 c 0,5,6
 836 1055 836 1055 950.5 1000.5 c 128,-1,7
 1065 946 1065 946 1065 829 c 0,8,9
 1065 768 1065 768 1021 722 c 128,-1,10
 977 676 977 676 891 676 c 0,11,12
 871 676 871 676 854.5 677 c 128,-1,13
 838 678 838 678 825 680 c 0,14,15
 811 682 811 682 799 686 c 1,16,-1
 799 993 l 1,17,-1
 766 997 l 2,18,19
 752 999 752 999 733.5 1001.5 c 128,-1,20
 715 1004 715 1004 696 1004 c 0,21,22
 630 1004 630 1004 581 980 c 128,-1,23
 532 956 532 956 498.5 900 c 128,-1,24
 465 844 465 844 447.5 748.5 c 128,-1,25
 430 653 430 653 430 512 c 256,26,27
 430 371 430 371 446.5 275.5 c 128,-1,28
 463 180 463 180 494.5 124 c 128,-1,29
 526 68 526 68 572 44 c 128,-1,30
 618 20 618 20 676 20 c 0,31,32
 737 20 737 20 790.5 40.5 c 128,-1,33
 844 61 844 61 888 94 c 128,-1,34
 932 127 932 127 964.5 167 c 128,-1,35
 997 207 997 207 1018 246 c 1,36,-1
 1065 215 l 1,37,38
 1030 162 1030 162 989 117 c 128,-1,39
 948 72 948 72 896 39 c 128,-1,40
 844 6 844 6 779.5 -12.5 c 128,-1,41
 715 -31 715 -31 635 -31 c 0,42,43
 524 -31 524 -31 424 1 c 128,-1,44
 324 33 324 33 248 98.5 c 128,-1,45
 172 164 172 164 127 267.5 c 128,-1,46
 82 371 82 371 82 512 c 256,0,1
EndSplineSet
EndChar

StartChar: d
Encoding: 100 100 71
Width: 1311
Flags: W
LayerCount: 2
Fore
SplineSet
82 512 m 256,0,1
 82 653 82 653 114.5 756.5 c 128,-1,2
 147 860 147 860 204.5 925.5 c 128,-1,3
 262 991 262 991 341 1023 c 128,-1,4
 420 1055 420 1055 512 1055 c 0,5,6
 569 1055 569 1055 618.5 1039.5 c 128,-1,7
 668 1024 668 1024 702 1008 c 1,8,9
 743 987 743 987 778 963 c 1,10,-1
 778 1382 l 1,11,-1
 614 1403 l 1,12,-1
 614 1434 l 1,13,-1
 881 1434 l 2,14,15
 1126 1434 1126 1434 1126 1188 c 2,16,-1
 1126 51 l 1,17,-1
 1290 31 l 1,18,-1
 1290 0 l 1,19,-1
 1096 0 l 2,20,21
 1006 0 1006 0 951.5 31.5 c 128,-1,22
 897 63 897 63 868 102 c 0,23,24
 834 147 834 147 819 205 c 1,25,26
 793 139 793 139 750 86 c 0,27,28
 713 41 713 41 651.5 5 c 128,-1,29
 590 -31 590 -31 502 -31 c 0,30,31
 436 -31 436 -31 362.5 1 c 128,-1,32
 289 33 289 33 226.5 98.5 c 128,-1,33
 164 164 164 164 123 267.5 c 128,-1,34
 82 371 82 371 82 512 c 256,0,1
430 512 m 256,35,36
 430 377 430 377 441.5 287 c 128,-1,37
 453 197 453 197 472.5 142.5 c 128,-1,38
 492 88 492 88 520.5 64.5 c 128,-1,39
 549 41 549 41 584 41 c 0,40,41
 631 41 631 41 666.5 70.5 c 128,-1,42
 702 100 702 100 727 137 c 0,43,44
 756 180 756 180 778 236 c 1,45,-1
 778 901 l 1,46,-1
 762 915 l 1,47,48
 743 930 743 930 716.5 947.5 c 128,-1,49
 690 965 690 965 657.5 979 c 128,-1,50
 625 993 625 993 594 993 c 0,51,52
 555 993 555 993 525.5 968.5 c 128,-1,53
 496 944 496 944 474.5 886.5 c 128,-1,54
 453 829 453 829 441.5 738 c 128,-1,55
 430 647 430 647 430 512 c 256,35,36
EndSplineSet
EndChar

StartChar: e
Encoding: 101 101 72
Width: 1208
Flags: W
LayerCount: 2
Fore
SplineSet
82 512 m 0,0,1
 82 639 82 639 119 739.5 c 128,-1,2
 156 840 156 840 224.5 910.5 c 128,-1,3
 293 981 293 981 389 1018 c 128,-1,4
 485 1055 485 1055 604 1055 c 0,5,6
 739 1055 739 1055 837.5 1026 c 128,-1,7
 936 997 936 997 1000.5 948 c 128,-1,8
 1065 899 1065 899 1095.5 834.5 c 128,-1,9
 1126 770 1126 770 1126 696 c 0,10,11
 1126 665 1126 665 1120 637.5 c 128,-1,12
 1114 610 1114 610 1106 588 c 0,13,14
 1098 563 1098 563 1085 543 c 1,15,16
 989 520 989 520 881 500 c 1,17,18
 789 484 789 484 671 469.5 c 128,-1,19
 553 455 553 455 430 451 c 1,20,21
 434 328 434 328 454.5 245 c 128,-1,22
 475 162 475 162 507 112.5 c 128,-1,23
 539 63 539 63 583 41.5 c 128,-1,24
 627 20 627 20 676 20 c 0,25,26
 737 20 737 20 790.5 40.5 c 128,-1,27
 844 61 844 61 888 94 c 128,-1,28
 932 127 932 127 964.5 167 c 128,-1,29
 997 207 997 207 1018 246 c 1,30,-1
 1065 215 l 1,31,32
 1030 162 1030 162 989 117 c 128,-1,33
 948 72 948 72 896 39 c 128,-1,34
 844 6 844 6 779.5 -12.5 c 128,-1,35
 715 -31 715 -31 635 -31 c 0,36,37
 373 -31 373 -31 227.5 113.5 c 128,-1,38
 82 258 82 258 82 512 c 0,0,1
430 502 m 1,39,40
 483 502 483 502 541.5 506 c 128,-1,41
 600 510 600 510 647 516 c 2,42,-1
 758 532 l 1,43,-1
 768 594 l 2,44,45
 772 621 772 621 775 653.5 c 128,-1,46
 778 686 778 686 778 717 c 0,47,48
 778 797 778 797 764 854 c 128,-1,49
 750 911 750 911 726 946 c 128,-1,50
 702 981 702 981 670.5 997.5 c 128,-1,51
 639 1014 639 1014 604 1014 c 256,52,53
 569 1014 569 1014 537.5 996.5 c 128,-1,54
 506 979 506 979 482.5 934 c 128,-1,55
 459 889 459 889 444.5 811 c 128,-1,56
 430 733 430 733 430 614 c 2,57,-1
 430 502 l 1,39,40
EndSplineSet
EndChar

StartChar: f
Encoding: 102 102 73
Width: 983
Flags: W
LayerCount: 2
Fore
SplineSet
61 0 m 1,0,-1
 61 31 l 1,1,-1
 225 51 l 1,2,-1
 225 891 l 1,3,-1
 61 911 l 1,4,-1
 61 952 l 1,5,-1
 225 952 l 1,6,-1
 225 1024 l 2,7,8
 225 1128 225 1128 258 1209 c 128,-1,9
 291 1290 291 1290 352.5 1347.5 c 128,-1,10
 414 1405 414 1405 501 1434.5 c 128,-1,11
 588 1464 588 1464 696 1464 c 0,12,13
 780 1464 780 1464 852 1452 c 128,-1,14
 924 1440 924 1440 976 1414.5 c 128,-1,15
 1028 1389 1028 1389 1056.5 1348 c 128,-1,16
 1085 1307 1085 1307 1085 1249 c 0,17,18
 1085 1188 1085 1188 1041 1142 c 128,-1,19
 997 1096 997 1096 911 1096 c 0,20,21
 891 1096 891 1096 876.5 1097 c 128,-1,22
 862 1098 862 1098 852 1100 c 0,23,24
 840 1102 840 1102 829 1106 c 1,25,-1
 829 1403 l 1,26,-1
 805 1407 l 2,27,28
 795 1409 795 1409 781.5 1411 c 128,-1,29
 768 1413 768 1413 758 1413 c 0,30,31
 719 1413 719 1413 685 1398.5 c 128,-1,32
 651 1384 651 1384 626.5 1341 c 128,-1,33
 602 1298 602 1298 587.5 1222.5 c 128,-1,34
 573 1147 573 1147 573 1024 c 2,35,-1
 573 952 l 1,36,-1
 942 952 l 1,37,-1
 942 911 l 1,38,-1
 573 891 l 1,39,-1
 573 51 l 1,40,-1
 737 31 l 1,41,-1
 737 0 l 1,42,-1
 61 0 l 1,0,-1
EndSplineSet
EndChar

StartChar: g
Encoding: 103 103 74
Width: 1290
Flags: W
LayerCount: 2
Fore
SplineSet
82 707 m 0,0,1
 82 875 82 875 198.5 965 c 128,-1,2
 315 1055 315 1055 584 1055 c 0,3,4
 633 1055 633 1055 692.5 1047.5 c 128,-1,5
 752 1040 752 1040 808 1029 c 128,-1,6
 864 1018 864 1018 913.5 1002.5 c 128,-1,7
 963 987 963 987 993 973 c 1,8,9
 1007 1012 1007 1012 1032 1044 c 1,10,11
 1055 1071 1055 1071 1091.5 1093.5 c 128,-1,12
 1128 1116 1128 1116 1188 1116 c 0,13,14
 1266 1116 1266 1116 1314 1067 c 128,-1,15
 1362 1018 1362 1018 1362 932 c 0,16,17
 1362 854 1362 854 1327 816 c 128,-1,18
 1292 778 1292 778 1239 778 c 0,19,20
 1227 778 1227 778 1211.5 779 c 128,-1,21
 1196 780 1196 780 1182 782 c 0,22,23
 1166 784 1166 784 1147 788 c 1,24,-1
 1147 1065 l 1,25,26
 1118 1065 1118 1065 1097.5 1045.5 c 128,-1,27
 1077 1026 1077 1026 1063 1004 c 0,28,29
 1047 977 1047 977 1034 942 c 1,30,31
 1048 917 1048 917 1059 883 c 0,32,33
 1069 854 1069 854 1077 809 c 128,-1,34
 1085 764 1085 764 1085 707 c 0,35,36
 1085 545 1085 545 968.5 457 c 128,-1,37
 852 369 852 369 584 369 c 0,38,39
 506 369 506 369 435.5 377 c 128,-1,40
 365 385 365 385 317 401 c 1,41,42
 301 393 301 393 283.5 371.5 c 128,-1,43
 266 350 266 350 266 328 c 0,44,45
 266 267 266 267 399 266 c 1,46,-1
 686 266 l 2,47,48
 887 266 887 266 991.5 176 c 128,-1,49
 1096 86 1096 86 1096 -92 c 0,50,51
 1096 -262 1096 -262 974 -351 c 128,-1,52
 852 -440 852 -440 604 -440 c 0,53,54
 465 -440 465 -440 372 -420.5 c 128,-1,55
 279 -401 279 -401 220.5 -369.5 c 128,-1,56
 162 -338 162 -338 137.5 -298 c 128,-1,57
 113 -258 113 -258 113 -215 c 0,58,59
 113 -154 113 -154 157 -107.5 c 128,-1,60
 201 -61 201 -61 287 -61 c 0,61,62
 305 -61 305 -61 320.5 -63.5 c 128,-1,63
 336 -66 336 -66 346 -68 c 0,64,65
 358 -70 358 -70 369 -72 c 1,66,-1
 369 -358 l 1,67,68
 402 -366 402 -366 438 -375 c 1,69,70
 469 -381 469 -381 507 -385 c 128,-1,71
 545 -389 545 -389 584 -389 c 0,72,73
 707 -389 707 -389 790.5 -369.5 c 128,-1,74
 874 -350 874 -350 926.5 -317.5 c 128,-1,75
 979 -285 979 -285 1001.5 -243 c 128,-1,76
 1024 -201 1024 -201 1024 -154 c 0,77,78
 1024 -123 1024 -123 1008.5 -98.5 c 128,-1,79
 993 -74 993 -74 954 -56.5 c 128,-1,80
 915 -39 915 -39 850.5 -29.5 c 128,-1,81
 786 -20 786 -20 686 -20 c 2,82,-1
 399 -20 l 2,83,84
 245 -20 245 -20 179 37 c 128,-1,85
 113 94 113 94 113 195 c 0,86,87
 113 230 113 230 127 263.5 c 128,-1,88
 141 297 141 297 162.5 326.5 c 128,-1,89
 184 356 184 356 212 379.5 c 128,-1,90
 240 403 240 403 266 420 c 1,91,92
 235 432 235 432 202.5 453.5 c 128,-1,93
 170 475 170 475 143.5 510 c 128,-1,94
 117 545 117 545 99.5 593 c 128,-1,95
 82 641 82 641 82 707 c 0,0,1
410 707 m 0,96,97
 410 627 410 627 424 569.5 c 128,-1,98
 438 512 438 512 461.5 477 c 128,-1,99
 485 442 485 442 517 426 c 128,-1,100
 549 410 549 410 584 410 c 256,101,102
 619 410 619 410 650.5 426 c 128,-1,103
 682 442 682 442 705.5 477 c 128,-1,104
 729 512 729 512 743.5 569.5 c 128,-1,105
 758 627 758 627 758 707 c 0,106,107
 758 760 758 760 751.5 811 c 128,-1,108
 745 862 745 862 737 903 c 1,109,110
 729 950 729 950 717 993 c 1,111,-1
 678 1004 l 1,112,113
 660 1008 660 1008 635 1011 c 128,-1,114
 610 1014 610 1014 584 1014 c 0,115,116
 514 1014 514 1014 462 944.5 c 128,-1,117
 410 875 410 875 410 707 c 0,96,97
EndSplineSet
EndChar

StartChar: h
Encoding: 104 104 75
Width: 1454
Flags: W
LayerCount: 2
Fore
SplineSet
41 0 m 1,0,-1
 41 31 l 1,1,-1
 205 51 l 1,2,-1
 205 1382 l 1,3,-1
 41 1403 l 1,4,-1
 41 1434 l 1,5,-1
 307 1434 l 2,6,7
 553 1434 553 1434 553 1188 c 2,8,-1
 553 889 l 1,9,10
 571 914 571 914 598 943.5 c 128,-1,11
 625 973 625 973 661.5 997.5 c 128,-1,12
 698 1022 698 1022 745.5 1038.5 c 128,-1,13
 793 1055 793 1055 850 1055 c 0,14,15
 1043 1055 1043 1055 1146 967 c 128,-1,16
 1249 879 1249 879 1249 717 c 2,17,-1
 1249 51 l 1,18,-1
 1413 31 l 1,19,-1
 1413 0 l 1,20,-1
 1147 0 l 2,21,22
 901 0 901 0 901 246 c 2,23,-1
 901 717 l 2,24,25
 901 862 901 862 861 922.5 c 128,-1,26
 821 983 821 983 768 983 c 256,27,28
 715 983 715 983 674 952.5 c 128,-1,29
 633 922 633 922 606 885 c 1,30,31
 573 842 573 842 553 788 c 1,32,-1
 553 51 l 1,33,-1
 696 31 l 1,34,-1
 696 0 l 1,35,-1
 41 0 l 1,0,-1
EndSplineSet
EndChar

StartChar: i
Encoding: 105 105 76
Width: 758
Flags: W
LayerCount: 2
Fore
SplineSet
61 0 m 1,0,-1
 61 31 l 1,1,-1
 225 51 l 1,2,-1
 225 973 l 1,3,-1
 61 993 l 1,4,-1
 61 1024 l 1,5,-1
 328 1024 l 2,6,7
 573 1024 573 1024 573 778 c 2,8,-1
 573 51 l 1,9,-1
 737 31 l 1,10,-1
 737 0 l 1,11,-1
 61 0 l 1,0,-1
225 1280 m 256,12,13
 225 1315 225 1315 239.5 1346.5 c 128,-1,14
 254 1378 254 1378 277.5 1401.5 c 128,-1,15
 301 1425 301 1425 333 1439.5 c 128,-1,16
 365 1454 365 1454 399 1454 c 0,17,18
 434 1454 434 1454 466 1439.5 c 128,-1,19
 498 1425 498 1425 521.5 1401.5 c 128,-1,20
 545 1378 545 1378 559 1346.5 c 128,-1,21
 573 1315 573 1315 573 1280 c 256,22,23
 573 1245 573 1245 559 1213.5 c 128,-1,24
 545 1182 545 1182 521.5 1158.5 c 128,-1,25
 498 1135 498 1135 466 1120.5 c 128,-1,26
 434 1106 434 1106 399 1106 c 0,27,28
 365 1106 365 1106 333 1120.5 c 128,-1,29
 301 1135 301 1135 277.5 1158.5 c 128,-1,30
 254 1182 254 1182 239.5 1213.5 c 128,-1,31
 225 1245 225 1245 225 1280 c 256,12,13
EndSplineSet
EndChar

StartChar: j
Encoding: 106 106 77
Width: 758
Flags: W
LayerCount: 2
Fore
SplineSet
-266 -225 m 0,0,1
 -266 -164 -266 -164 -222 -118 c 128,-1,2
 -178 -72 -178 -72 -92 -72 c 0,3,4
 -74 -72 -74 -72 -58.5 -74 c 128,-1,5
 -43 -76 -43 -76 -33 -78 c 0,6,7
 -20 -80 -20 -80 -10 -82 c 1,8,-1
 -10 -379 l 1,9,10
 2 -383 2 -383 14 -385 c 0,11,12
 25 -387 25 -387 37 -388 c 128,-1,13
 49 -389 49 -389 61 -389 c 0,14,15
 100 -389 100 -389 134 -374.5 c 128,-1,16
 168 -360 168 -360 192.5 -317 c 128,-1,17
 217 -274 217 -274 231.5 -198.5 c 128,-1,18
 246 -123 246 -123 246 0 c 2,19,-1
 246 973 l 1,20,-1
 82 993 l 1,21,-1
 82 1024 l 1,22,-1
 348 1024 l 2,23,24
 594 1024 594 1024 594 778 c 2,25,-1
 594 0 l 2,26,27
 594 -104 594 -104 560 -185 c 128,-1,28
 526 -266 526 -266 464.5 -323.5 c 128,-1,29
 403 -381 403 -381 316 -410.5 c 128,-1,30
 229 -440 229 -440 123 -440 c 0,31,32
 39 -440 39 -440 -32.5 -428 c 128,-1,33
 -104 -416 -104 -416 -156.5 -390.5 c 128,-1,34
 -209 -365 -209 -365 -237.5 -324 c 128,-1,35
 -266 -283 -266 -283 -266 -225 c 0,0,1
246 1280 m 256,36,37
 246 1315 246 1315 260 1346.5 c 128,-1,38
 274 1378 274 1378 298 1401.5 c 128,-1,39
 322 1425 322 1425 353.5 1439.5 c 128,-1,40
 385 1454 385 1454 420 1454 c 256,41,42
 455 1454 455 1454 486.5 1439.5 c 128,-1,43
 518 1425 518 1425 541.5 1401.5 c 128,-1,44
 565 1378 565 1378 579.5 1346.5 c 128,-1,45
 594 1315 594 1315 594 1280 c 256,46,47
 594 1245 594 1245 579.5 1213.5 c 128,-1,48
 565 1182 565 1182 541.5 1158.5 c 128,-1,49
 518 1135 518 1135 486.5 1120.5 c 128,-1,50
 455 1106 455 1106 420 1106 c 256,51,52
 385 1106 385 1106 353.5 1120.5 c 128,-1,53
 322 1135 322 1135 298 1158.5 c 128,-1,54
 274 1182 274 1182 260 1213.5 c 128,-1,55
 246 1245 246 1245 246 1280 c 256,36,37
EndSplineSet
EndChar

StartChar: k
Encoding: 107 107 78
Width: 1280
Flags: W
LayerCount: 2
Fore
SplineSet
41 0 m 1,0,-1
 41 31 l 1,1,-1
 205 51 l 1,2,-1
 205 1382 l 1,3,-1
 41 1403 l 1,4,-1
 41 1434 l 1,5,-1
 307 1434 l 2,6,7
 553 1434 553 1434 553 1188 c 2,8,-1
 553 532 l 1,9,-1
 983 973 l 1,10,-1
 778 993 l 1,11,-1
 778 1024 l 1,12,-1
 1239 1024 l 1,13,-1
 1239 993 l 1,14,-1
 1055 973 l 1,15,-1
 778 690 l 1,16,-1
 1208 51 l 1,17,-1
 1321 31 l 1,18,-1
 1321 0 l 1,19,-1
 1024 0 l 2,20,21
 932 0 932 0 869.5 45 c 128,-1,22
 807 90 807 90 737 195 c 2,23,-1
 553 471 l 1,24,-1
 553 51 l 1,25,-1
 717 31 l 1,26,-1
 717 0 l 1,27,-1
 41 0 l 1,0,-1
EndSplineSet
EndChar

StartChar: l
Encoding: 108 108 79
Width: 737
Flags: W
LayerCount: 2
Fore
SplineSet
41 0 m 1,0,-1
 41 31 l 1,1,-1
 205 51 l 1,2,-1
 205 1382 l 1,3,-1
 41 1403 l 1,4,-1
 41 1434 l 1,5,-1
 307 1434 l 2,6,7
 553 1434 553 1434 553 1188 c 2,8,-1
 553 51 l 1,9,-1
 717 31 l 1,10,-1
 717 0 l 1,11,-1
 41 0 l 1,0,-1
EndSplineSet
EndChar

StartChar: m
Encoding: 109 109 80
Width: 2089
Flags: W
LayerCount: 2
Fore
SplineSet
61 0 m 1,0,-1
 61 31 l 1,1,-1
 225 51 l 1,2,-1
 225 973 l 1,3,-1
 61 993 l 1,4,-1
 61 1024 l 1,5,-1
 256 1024 l 2,6,7
 344 1024 344 1024 399.5 992.5 c 128,-1,8
 455 961 455 961 483 922 c 1,9,10
 518 877 518 877 532 819 c 1,11,12
 561 883 561 883 608 936 c 0,13,14
 649 981 649 981 709.5 1018 c 128,-1,15
 770 1055 770 1055 860 1055 c 0,16,17
 1008 1055 1008 1055 1089.5 1002.5 c 128,-1,18
 1171 950 1171 950 1212 848 c 1,19,20
 1227 872 1227 872 1251.5 907 c 128,-1,21
 1276 942 1276 942 1314 975 c 128,-1,22
 1352 1008 1352 1008 1404 1031.5 c 128,-1,23
 1456 1055 1456 1055 1526 1055 c 0,24,25
 1718 1055 1718 1055 1811.5 967 c 128,-1,26
 1905 879 1905 879 1905 717 c 2,27,-1
 1905 51 l 1,28,-1
 2068 31 l 1,29,-1
 2068 0 l 1,30,-1
 1802 0 l 2,31,32
 1556 0 1556 0 1556 246 c 2,33,-1
 1556 717 l 2,34,35
 1556 864 1556 864 1521.5 923.5 c 128,-1,36
 1487 983 1487 983 1434 983 c 0,37,38
 1395 983 1395 983 1360 952.5 c 128,-1,39
 1325 922 1325 922 1298 885 c 0,40,41
 1266 842 1266 842 1239 788 c 1,42,-1
 1239 51 l 1,43,-1
 1403 31 l 1,44,-1
 1403 0 l 1,45,-1
 768 0 l 1,46,-1
 768 31 l 1,47,-1
 891 51 l 1,48,-1
 891 717 l 2,49,50
 891 864 891 864 856 923.5 c 128,-1,51
 821 983 821 983 768 983 c 0,52,53
 729 983 729 983 694 952.5 c 128,-1,54
 659 922 659 922 633 885 c 1,55,56
 600 842 600 842 573 788 c 1,57,-1
 573 51 l 1,58,-1
 696 31 l 1,59,-1
 696 0 l 1,60,-1
 61 0 l 1,0,-1
EndSplineSet
EndChar

StartChar: n
Encoding: 110 110 81
Width: 1454
Flags: W
LayerCount: 2
Fore
SplineSet
61 0 m 1,0,-1
 61 31 l 1,1,-1
 225 51 l 1,2,-1
 225 973 l 1,3,-1
 61 993 l 1,4,-1
 61 1024 l 1,5,-1
 256 1024 l 2,6,7
 344 1024 344 1024 399.5 992.5 c 128,-1,8
 455 961 455 961 483 922 c 1,9,10
 518 877 518 877 532 819 c 1,11,12
 561 882 561 882 608 936 c 1,13,14
 649 981 649 981 713.5 1018 c 128,-1,15
 778 1055 778 1055 870 1055 c 0,16,17
 1063 1055 1063 1055 1166.5 967 c 128,-1,18
 1270 879 1270 879 1270 717 c 2,19,-1
 1270 51 l 1,20,-1
 1434 31 l 1,21,-1
 1434 0 l 1,22,-1
 1167 0 l 2,23,24
 921 0 921 0 922 246 c 1,25,-1
 922 717 l 2,26,27
 922 862 922 862 882 922.5 c 128,-1,28
 842 983 842 983 788 983 c 0,29,30
 737 983 737 983 698 952.5 c 128,-1,31
 659 922 659 922 631 885 c 0,32,33
 598 842 598 842 573 788 c 1,34,-1
 573 51 l 1,35,-1
 737 31 l 1,36,-1
 737 0 l 1,37,-1
 61 0 l 1,0,-1
EndSplineSet
EndChar

StartChar: o
Encoding: 111 111 82
Width: 1270
Flags: W
LayerCount: 2
Fore
SplineSet
82 512 m 256,0,1
 82 653 82 653 127 756.5 c 128,-1,2
 172 860 172 860 248 925.5 c 128,-1,3
 324 991 324 991 424 1023 c 128,-1,4
 524 1055 524 1055 635 1055 c 0,5,6
 745 1055 745 1055 845.5 1023 c 128,-1,7
 946 991 946 991 1022 925.5 c 128,-1,8
 1098 860 1098 860 1143 756.5 c 128,-1,9
 1188 653 1188 653 1188 512 c 256,10,11
 1188 371 1188 371 1143 267.5 c 128,-1,12
 1098 164 1098 164 1022 98.5 c 128,-1,13
 946 33 946 33 845.5 1 c 128,-1,14
 745 -31 745 -31 635 -31 c 0,15,16
 524 -31 524 -31 424 1 c 128,-1,17
 324 33 324 33 248 98.5 c 128,-1,18
 172 164 172 164 127 267.5 c 128,-1,19
 82 371 82 371 82 512 c 256,0,1
430 512 m 256,20,21
 430 367 430 367 446.5 269.5 c 128,-1,22
 463 172 463 172 490.5 114.5 c 128,-1,23
 518 57 518 57 555 33.5 c 128,-1,24
 592 10 592 10 635 10 c 256,25,26
 678 10 678 10 715 33.5 c 128,-1,27
 752 57 752 57 779.5 114.5 c 128,-1,28
 807 172 807 172 823.5 269.5 c 128,-1,29
 840 367 840 367 840 512 c 256,30,31
 840 657 840 657 823.5 754.5 c 128,-1,32
 807 852 807 852 779.5 909.5 c 128,-1,33
 752 967 752 967 715 990.5 c 128,-1,34
 678 1014 678 1014 635 1014 c 256,35,36
 592 1014 592 1014 555 990.5 c 128,-1,37
 518 967 518 967 490.5 909.5 c 128,-1,38
 463 852 463 852 446.5 754.5 c 128,-1,39
 430 657 430 657 430 512 c 256,20,21
EndSplineSet
EndChar

StartChar: p
Encoding: 112 112 83
Width: 1311
Flags: W
LayerCount: 2
Fore
SplineSet
20 -379 m 1,0,-1
 184 -358 l 1,1,-1
 184 973 l 1,2,-1
 20 993 l 1,3,-1
 20 1024 l 1,4,-1
 215 1024 l 2,5,6
 303 1024 303 1024 358.5 992.5 c 128,-1,7
 414 961 414 961 442 922 c 1,8,9
 477 877 477 877 492 819 c 1,10,11
 518 883 518 883 561 936 c 0,12,13
 598 981 598 981 658.5 1018 c 128,-1,14
 719 1055 719 1055 809 1055 c 0,15,16
 874 1055 874 1055 948 1023 c 128,-1,17
 1022 991 1022 991 1084.5 925.5 c 128,-1,18
 1147 860 1147 860 1188 756.5 c 128,-1,19
 1229 653 1229 653 1229 512 c 256,20,21
 1229 371 1229 371 1196 267.5 c 128,-1,22
 1163 164 1163 164 1106 98.5 c 128,-1,23
 1049 33 1049 33 970 1 c 128,-1,24
 891 -31 891 -31 799 -31 c 0,25,26
 739 -31 739 -31 691 -16.5 c 128,-1,27
 643 -2 643 -2 608 14 c 1,28,29
 567 35 567 35 532 61 c 1,30,-1
 532 -358 l 1,31,-1
 696 -379 l 1,32,-1
 696 -410 l 1,33,-1
 20 -410 l 1,34,-1
 20 -379 l 1,0,-1
532 123 m 1,35,-1
 551 109 l 1,36,37
 567 94 567 94 594 76.5 c 128,-1,38
 621 59 621 59 653.5 45 c 128,-1,39
 686 31 686 31 717 31 c 0,40,41
 756 31 756 31 785.5 55.5 c 128,-1,42
 815 80 815 80 836.5 137.5 c 128,-1,43
 858 195 858 195 869.5 286 c 128,-1,44
 881 377 881 377 881 512 c 256,45,46
 881 647 881 647 869.5 737 c 128,-1,47
 858 827 858 827 838.5 881.5 c 128,-1,48
 819 936 819 936 790.5 959.5 c 128,-1,49
 762 983 762 983 727 983 c 0,50,51
 680 983 680 983 644 952.5 c 128,-1,52
 608 922 608 922 584 885 c 0,53,54
 555 842 555 842 532 788 c 1,55,-1
 532 123 l 1,35,-1
EndSplineSet
EndChar

StartChar: q
Encoding: 113 113 84
Width: 1290
Flags: W
LayerCount: 2
Fore
SplineSet
82 512 m 256,0,1
 82 653 82 653 123 756.5 c 128,-1,2
 164 860 164 860 226.5 925.5 c 128,-1,3
 289 991 289 991 362.5 1023 c 128,-1,4
 436 1055 436 1055 502 1055 c 0,5,6
 590 1055 590 1055 651.5 1018 c 128,-1,7
 713 981 713 981 750 936 c 0,8,9
 793 883 793 883 819 819 c 1,10,11
 833 876 833 876 868 922 c 0,12,13
 897 961 897 961 951.5 992.5 c 128,-1,14
 1006 1024 1006 1024 1096 1024 c 2,15,-1
 1126 1024 l 1,16,-1
 1126 -358 l 1,17,-1
 1290 -379 l 1,18,-1
 1290 -410 l 1,19,-1
 614 -410 l 1,20,-1
 614 -379 l 1,21,-1
 778 -358 l 1,22,-1
 778 61 l 1,23,24
 743 34 743 34 702 14 c 0,25,26
 667 -2 667 -2 618 -16.5 c 128,-1,27
 569 -31 569 -31 512 -31 c 0,28,29
 420 -31 420 -31 341 1 c 128,-1,30
 262 33 262 33 204.5 98.5 c 128,-1,31
 147 164 147 164 114.5 267.5 c 128,-1,32
 82 371 82 371 82 512 c 256,0,1
430 512 m 256,33,34
 430 377 430 377 441.5 286 c 128,-1,35
 453 195 453 195 474.5 137.5 c 128,-1,36
 496 80 496 80 525.5 55.5 c 128,-1,37
 555 31 555 31 594 31 c 0,38,39
 625 31 625 31 657.5 45 c 128,-1,40
 690 59 690 59 716.5 76.5 c 128,-1,41
 743 94 743 94 761 109 c 2,42,-1
 778 123 l 1,43,-1
 778 788 l 1,44,45
 755 841 755 841 727 885 c 1,46,47
 702 922 702 922 666.5 952.5 c 128,-1,48
 631 983 631 983 584 983 c 0,49,50
 549 983 549 983 520.5 959.5 c 128,-1,51
 492 936 492 936 472.5 881.5 c 128,-1,52
 453 827 453 827 441.5 737 c 128,-1,53
 430 647 430 647 430 512 c 256,33,34
EndSplineSet
EndChar

StartChar: r
Encoding: 114 114 85
Width: 1147
Flags: W
LayerCount: 2
Fore
SplineSet
61 0 m 1,0,-1
 61 31 l 1,1,-1
 225 51 l 1,2,-1
 225 973 l 1,3,-1
 61 993 l 1,4,-1
 61 1024 l 1,5,-1
 256 1024 l 2,6,7
 344 1024 344 1024 399.5 992.5 c 128,-1,8
 455 961 455 961 483 922 c 1,9,10
 518 877 518 877 532 819 c 1,11,12
 573 879 573 879 627 926 c 1,13,14
 672 967 672 967 735.5 1000.5 c 128,-1,15
 799 1034 799 1034 881 1034 c 0,16,17
 1004 1034 1004 1034 1065 983 c 128,-1,18
 1126 932 1126 932 1126 840 c 0,19,20
 1126 778 1126 778 1082 732 c 128,-1,21
 1038 686 1038 686 952 686 c 0,22,23
 932 686 932 686 915.5 687 c 128,-1,24
 899 688 899 688 887 690 c 0,25,26
 872 692 872 692 860 696 c 1,27,-1
 860 983 l 1,28,29
 801 983 801 983 750.5 952.5 c 128,-1,30
 700 922 700 922 659 885 c 0,31,32
 612 842 612 842 573 788 c 1,33,-1
 573 51 l 1,34,-1
 737 31 l 1,35,-1
 737 0 l 1,36,-1
 61 0 l 1,0,-1
EndSplineSet
EndChar

StartChar: s
Encoding: 115 115 86
Width: 1147
Flags: W
LayerCount: 2
Fore
SplineSet
82 768 m 0,0,1
 82 829 82 829 107.5 881.5 c 128,-1,2
 133 934 133 934 186.5 973 c 128,-1,3
 240 1012 240 1012 324 1033.5 c 128,-1,4
 408 1055 408 1055 522 1055 c 0,5,6
 600 1055 600 1055 661.5 1032.5 c 128,-1,7
 723 1010 723 1010 768 983 c 0,8,9
 821 950 821 950 860 911 c 1,10,11
 868 942 868 942 885 967 c 0,12,13
 899 989 899 989 924.5 1006.5 c 128,-1,14
 950 1024 950 1024 993 1024 c 2,15,-1
 1034 1024 l 1,16,-1
 1034 666 l 1,17,-1
 932 666 l 1,18,19
 913 741 913 741 872 803.5 c 128,-1,20
 831 866 831 866 780 911 c 128,-1,21
 729 956 729 956 671.5 980 c 128,-1,22
 614 1004 614 1004 563 1004 c 0,23,24
 502 1004 502 1004 461 964 c 128,-1,25
 420 924 420 924 420 870 c 0,26,27
 420 817 420 817 457 776 c 128,-1,28
 494 735 494 735 563 696 c 2,29,-1
 891 512 l 2,30,31
 961 473 961 473 1013 407.5 c 128,-1,32
 1065 342 1065 342 1065 256 c 0,33,34
 1065 195 1065 195 1039.5 142.5 c 128,-1,35
 1014 90 1014 90 959.5 51 c 128,-1,36
 905 12 905 12 822 -9.5 c 128,-1,37
 739 -31 739 -31 625 -31 c 0,38,39
 539 -31 539 -31 473.5 -9.5 c 128,-1,40
 408 12 408 12 360 41 c 0,41,42
 307 72 307 72 266 113 c 1,43,44
 258 80 258 80 242 55 c 0,45,46
 227 33 227 33 200.5 16.5 c 128,-1,47
 174 0 174 0 133 0 c 2,48,-1
 92 0 l 1,49,-1
 92 358 l 1,50,-1
 195 358 l 1,51,52
 213 281 213 281 255 219.5 c 128,-1,53
 297 158 297 158 349 113 c 128,-1,54
 401 68 401 68 460.5 44 c 128,-1,55
 520 20 520 20 573 20 c 0,56,57
 643 20 643 20 685 61 c 128,-1,58
 727 102 727 102 727 164 c 0,59,60
 727 211 727 211 690 250 c 128,-1,61
 653 289 653 289 584 328 c 2,62,-1
 256 512 l 2,63,64
 186 551 186 551 134 616.5 c 128,-1,65
 82 682 82 682 82 768 c 0,0,1
EndSplineSet
EndChar

StartChar: t
Encoding: 116 116 87
Width: 963
Flags: W
LayerCount: 2
Fore
SplineSet
20 983 m 1,0,-1
 20 1024 l 1,1,-1
 184 1024 l 1,2,-1
 184 1321 l 1,3,-1
 217 1325 l 2,4,5
 231 1327 231 1327 248.5 1329 c 128,-1,6
 266 1331 266 1331 287 1331 c 0,7,8
 532 1331 532 1331 532 1085 c 2,9,-1
 532 1024 l 1,10,-1
 881 1024 l 1,11,-1
 881 983 l 1,12,-1
 532 963 l 1,13,-1
 532 358 l 2,14,15
 532 262 532 262 546.5 197.5 c 128,-1,16
 561 133 561 133 583.5 93 c 128,-1,17
 606 53 606 53 636 36.5 c 128,-1,18
 666 20 666 20 696 20 c 0,19,20
 766 20 766 20 820 79.5 c 128,-1,21
 874 139 874 139 891 256 c 1,22,-1
 942 246 l 1,23,24
 926 176 926 176 903.5 124 c 128,-1,25
 881 72 881 72 844 37 c 128,-1,26
 807 2 807 2 750.5 -15.5 c 128,-1,27
 694 -33 694 -33 614 -33 c 0,28,29
 399 -33 399 -33 291.5 74.5 c 128,-1,30
 184 182 184 182 184 358 c 2,31,-1
 184 963 l 1,32,-1
 20 983 l 1,0,-1
EndSplineSet
EndChar

StartChar: u
Encoding: 117 117 88
Width: 1454
Flags: W
LayerCount: 2
Fore
SplineSet
20 993 m 1,0,-1
 20 1024 l 1,1,-1
 287 1024 l 2,2,3
 533 1024 533 1024 532 778 c 1,4,-1
 532 307 l 2,5,6
 532 162 532 162 572 101.5 c 128,-1,7
 612 41 612 41 666 41 c 0,8,9
 715 41 715 41 755 70.5 c 128,-1,10
 795 100 795 100 823 137 c 0,11,12
 856 180 856 180 881 236 c 1,13,-1
 881 973 l 1,14,-1
 717 993 l 1,15,-1
 717 1024 l 1,16,-1
 1393 1024 l 1,17,-1
 1393 993 l 1,18,-1
 1229 973 l 1,19,-1
 1229 51 l 1,20,-1
 1393 31 l 1,21,-1
 1393 0 l 1,22,-1
 1198 0 l 2,23,24
 1108 0 1108 0 1053.5 31.5 c 128,-1,25
 999 63 999 63 971 102 c 1,26,27
 936 147 936 147 922 205 c 1,28,29
 891 139 891 139 844 86 c 0,30,31
 803 41 803 41 739.5 5 c 128,-1,32
 676 -31 676 -31 584 -31 c 0,33,34
 391 -31 391 -31 287.5 57 c 128,-1,35
 184 145 184 145 184 307 c 2,36,-1
 184 973 l 1,37,-1
 20 993 l 1,0,-1
EndSplineSet
EndChar

StartChar: v
Encoding: 118 118 89
Width: 1249
Flags: W
LayerCount: 2
Fore
SplineSet
-41 993 m 1,0,-1
 -41 1024 l 1,1,-1
 238 1024 l 2,2,3
 347 1024 347 1024 408 972 c 128,-1,4
 469 920 469 920 522 819 c 2,5,-1
 760 367 l 1,6,-1
 1034 973 l 1,7,-1
 829 993 l 1,8,-1
 829 1024 l 1,9,-1
 1290 1024 l 1,10,-1
 1290 993 l 1,11,-1
 1106 973 l 1,12,-1
 655 -20 l 1,13,-1
 594 -20 l 1,14,-1
 72 973 l 1,15,-1
 -41 993 l 1,0,-1
EndSplineSet
EndChar

StartChar: w
Encoding: 119 119 90
Width: 1847
Flags: W
LayerCount: 2
Fore
SplineSet
-41 993 m 1,0,-1
 -41 1024 l 1,1,-1
 225 1024 l 2,2,3
 334 1024 334 1024 399.5 967.5 c 128,-1,4
 465 911 465 911 512 819 c 2,5,-1
 733 381 l 1,6,-1
 864 692 l 1,7,-1
 723 973 l 1,8,-1
 608 993 l 1,9,-1
 608 1024 l 1,10,-1
 874 1024 l 2,11,12
 983 1024 983 1024 1048.5 967.5 c 128,-1,13
 1114 911 1114 911 1161 819 c 2,14,-1
 1382 381 l 1,15,-1
 1632 973 l 1,16,-1
 1427 993 l 1,17,-1
 1427 1024 l 1,18,-1
 1888 1024 l 1,19,-1
 1888 993 l 1,20,-1
 1704 973 l 1,21,-1
 1286 -20 l 1,22,-1
 1225 -20 l 1,23,-1
 903 614 l 1,24,-1
 637 -20 l 1,25,-1
 575 -20 l 1,26,-1
 74 973 l 1,27,-1
 -41 993 l 1,0,-1
EndSplineSet
EndChar

StartChar: x
Encoding: 120 120 91
Width: 1137
Flags: W
LayerCount: 2
Fore
SplineSet
-31 993 m 1,0,-1
 -31 1024 l 1,1,-1
 276 1024 l 2,2,3
 330 1024 330 1024 371 1009.5 c 128,-1,4
 412 995 412 995 444.5 967.5 c 128,-1,5
 477 940 477 940 506 901 c 1,6,-1
 563 819 l 1,7,-1
 651 682 l 1,8,-1
 870 973 l 1,9,-1
 666 993 l 1,10,-1
 666 1024 l 1,11,-1
 1147 1024 l 1,12,-1
 1147 993 l 1,13,-1
 942 973 l 1,14,-1
 684 631 l 1,15,-1
 1055 51 l 1,16,-1
 1167 31 l 1,17,-1
 1167 0 l 1,18,-1
 860 0 l 2,19,20
 807 0 807 0 766 14.5 c 128,-1,21
 725 29 725 29 692 56.5 c 128,-1,22
 659 84 659 84 631.5 121 c 128,-1,23
 604 158 604 158 573 205 c 2,24,-1
 475 356 l 1,25,-1
 246 51 l 1,26,-1
 451 31 l 1,27,-1
 451 0 l 1,28,-1
 -10 0 l 1,29,-1
 -10 31 l 1,30,-1
 174 51 l 1,31,-1
 442 408 l 1,32,-1
 82 973 l 1,33,-1
 -31 993 l 1,0,-1
EndSplineSet
EndChar

StartChar: y
Encoding: 121 121 92
Width: 1237
Flags: W
LayerCount: 2
Fore
SplineSet
-41 993 m 1,0,-1
 -41 1024 l 1,1,-1
 236 1024 l 2,2,3
 344 1024 344 1024 406.5 972 c 128,-1,4
 469 920 469 920 522 819 c 2,5,-1
 768 352 l 1,6,-1
 1024 973 l 1,7,-1
 819 993 l 1,8,-1
 819 1024 l 1,9,-1
 1278 1024 l 1,10,-1
 1278 993 l 1,11,-1
 1096 973 l 1,12,-1
 645 -123 l 2,13,14
 514 -442 514 -442 266 -442 c 0,15,16
 150 -442 150 -442 85 -391 c 128,-1,17
 20 -340 20 -340 20 -248 c 0,18,19
 20 -186 20 -186 64.5 -135 c 128,-1,20
 109 -84 109 -84 195 -84 c 0,21,22
 213 -84 213 -84 228.5 -86 c 128,-1,23
 244 -88 244 -88 254 -90 c 0,24,25
 266 -92 266 -92 276 -94 c 1,26,-1
 276 -391 l 1,27,28
 362 -391 362 -391 441 -322.5 c 128,-1,29
 520 -254 520 -254 573 -123 c 2,30,-1
 606 -41 l 1,31,-1
 72 973 l 1,32,-1
 -41 993 l 1,0,-1
EndSplineSet
EndChar

StartChar: z
Encoding: 122 122 93
Width: 1167
Flags: W
LayerCount: 2
Fore
SplineSet
82 0 m 1,0,-1
 82 51 l 1,1,-1
 727 973 l 1,2,-1
 307 973 l 1,3,4
 303 899 303 899 282.5 840.5 c 128,-1,5
 262 782 262 782 238 741 c 0,6,7
 209 692 209 692 174 655 c 1,8,-1
 113 655 l 1,9,-1
 113 1024 l 1,10,-1
 1085 1024 l 1,11,-1
 1085 973 l 1,12,-1
 440 51 l 1,13,-1
 860 51 l 1,14,15
 864 123 864 123 884.5 182.5 c 128,-1,16
 905 242 905 242 930 283 c 0,17,18
 959 332 959 332 993 369 c 1,19,-1
 1055 369 l 1,20,-1
 1055 0 l 1,21,-1
 82 0 l 1,0,-1
EndSplineSet
EndChar

StartChar: braceleft
Encoding: 123 123 94
Width: 799
Flags: W
LayerCount: 2
Fore
SplineSet
41 492 m 1,0,-1
 41 532 l 1,1,2
 119 532 119 532 172 594.5 c 128,-1,3
 225 657 225 657 225 788 c 2,4,-1
 225 1106 l 2,5,6
 225 1176 225 1176 252 1235 c 128,-1,7
 279 1294 279 1294 333 1338 c 128,-1,8
 387 1382 387 1382 467 1408 c 128,-1,9
 547 1434 547 1434 655 1434 c 2,10,-1
 758 1434 l 1,11,-1
 758 1382 l 1,12,-1
 737 1382 l 2,13,14
 659 1382 659 1382 606 1319.5 c 128,-1,15
 553 1257 553 1257 553 1126 c 2,16,-1
 553 840 l 2,17,18
 553 700 553 700 469 614 c 128,-1,19
 385 528 385 528 246 512 c 1,20,21
 385 496 385 496 469 410 c 128,-1,22
 553 324 553 324 553 184 c 2,23,-1
 553 -102 l 2,24,25
 553 -233 553 -233 606 -295.5 c 128,-1,26
 659 -358 659 -358 737 -358 c 2,27,-1
 758 -358 l 1,28,-1
 758 -410 l 1,29,-1
 655 -410 l 2,30,31
 547 -410 547 -410 467 -384 c 128,-1,32
 387 -358 387 -358 333 -314 c 128,-1,33
 279 -270 279 -270 252 -211 c 128,-1,34
 225 -152 225 -152 225 -82 c 2,35,-1
 225 236 l 2,36,37
 225 367 225 367 172 429.5 c 128,-1,38
 119 492 119 492 41 492 c 1,0,-1
EndSplineSet
EndChar

StartChar: bar
Encoding: 124 124 95
Width: 522
Flags: W
LayerCount: 2
Fore
SplineSet
205 -410 m 1,0,-1
 205 1436 l 1,1,-1
 317 1436 l 1,2,-1
 317 -410 l 1,3,-1
 205 -410 l 1,0,-1
EndSplineSet
EndChar

StartChar: braceright
Encoding: 125 125 96
Width: 799
Flags: W
LayerCount: 2
Fore
SplineSet
41 -358 m 1,0,-1
 61 -358 l 2,1,2
 139 -358 139 -358 192.5 -295.5 c 128,-1,3
 246 -233 246 -233 246 -102 c 2,4,-1
 246 184 l 2,5,6
 246 324 246 324 330 410 c 128,-1,7
 414 496 414 496 553 512 c 1,8,9
 414 528 414 528 330 614 c 128,-1,10
 246 700 246 700 246 840 c 2,11,-1
 246 1126 l 2,12,13
 246 1257 246 1257 192.5 1319.5 c 128,-1,14
 139 1382 139 1382 61 1382 c 2,15,-1
 41 1382 l 1,16,-1
 41 1434 l 1,17,-1
 143 1434 l 2,18,19
 250 1434 250 1434 331 1408 c 128,-1,20
 412 1382 412 1382 466 1338 c 128,-1,21
 520 1294 520 1294 546.5 1235 c 128,-1,22
 573 1176 573 1176 573 1106 c 2,23,-1
 573 788 l 2,24,25
 573 657 573 657 626.5 594.5 c 128,-1,26
 680 532 680 532 758 532 c 1,27,-1
 758 492 l 1,28,29
 680 492 680 492 626.5 429.5 c 128,-1,30
 573 367 573 367 573 236 c 2,31,-1
 573 -82 l 2,32,33
 573 -152 573 -152 546.5 -211 c 128,-1,34
 520 -270 520 -270 466 -314 c 128,-1,35
 412 -358 412 -358 331 -384 c 128,-1,36
 250 -410 250 -410 143 -410 c 2,37,-1
 41 -410 l 1,38,-1
 41 -358 l 1,0,-1
EndSplineSet
EndChar

StartChar: asciitilde
Encoding: 126 126 97
Width: 1116
Flags: W
LayerCount: 2
Fore
SplineSet
61 512 m 1,0,1
 65 614 65 614 98 696 c 0,2,3
 112 731 112 731 134 764 c 128,-1,4
 156 797 156 797 186.5 823.5 c 128,-1,5
 217 850 217 850 260 865.5 c 128,-1,6
 303 881 303 881 358 881 c 0,7,8
 434 881 434 881 488.5 850 c 128,-1,9
 543 819 543 819 591 783.5 c 128,-1,10
 639 748 639 748 689 717 c 128,-1,11
 739 686 739 686 809 686 c 0,12,13
 887 686 887 686 929 707.5 c 128,-1,14
 971 729 971 729 993 758 c 1,15,16
 1018 789 1018 789 1024 829 c 1,17,-1
 1055 829 l 1,18,19
 1051 727 1051 727 1018 645 c 0,20,21
 1004 610 1004 610 982.5 577.5 c 128,-1,22
 961 545 961 545 929 518.5 c 128,-1,23
 897 492 897 492 855 476.5 c 128,-1,24
 813 461 813 461 758 461 c 0,25,26
 680 461 680 461 626.5 491.5 c 128,-1,27
 573 522 573 522 525 558 c 128,-1,28
 477 594 477 594 427 624.5 c 128,-1,29
 377 655 377 655 307 655 c 0,30,31
 229 655 229 655 187 632.5 c 128,-1,32
 145 610 145 610 123 584 c 1,33,34
 98 551 98 551 92 512 c 1,35,-1
 61 512 l 1,0,1
EndSplineSet
EndChar

StartChar: exclamdown
Encoding: 161 161 99
Width: 696
Flags: W
LayerCount: 2
Fore
SplineSet
143 -205 m 1,0,-1
 307 584 l 1,1,-1
 389 584 l 1,2,-1
 553 -205 l 1,3,4
 553 -314 553 -314 493.5 -377 c 128,-1,5
 434 -440 434 -440 348 -440 c 256,6,7
 262 -440 262 -440 202.5 -377 c 128,-1,8
 143 -314 143 -314 143 -205 c 1,0,-1
184 881 m 256,9,10
 184 953 184 953 230 998.5 c 128,-1,11
 276 1044 276 1044 348 1044 c 256,12,13
 420 1044 420 1044 466 998 c 128,-1,14
 512 952 512 952 512 881 c 0,15,16
 512 809 512 809 466 763 c 128,-1,17
 420 717 420 717 348 717 c 256,18,19
 276 717 276 717 230 763 c 128,-1,20
 184 809 184 809 184 881 c 256,9,10
EndSplineSet
EndChar

StartChar: cent
Encoding: 162 162 100
Width: 1126
Flags: W
LayerCount: 2
Fore
SplineSet
82 512 m 256,0,1
 82 651 82 651 125 752.5 c 128,-1,2
 168 854 168 854 240.5 919.5 c 128,-1,3
 313 985 313 985 409.5 1018 c 128,-1,4
 506 1051 506 1051 614 1055 c 1,5,-1
 614 1188 l 1,6,-1
 686 1188 l 1,7,-1
 686 1053 l 1,8,9
 864 1047 864 1047 964.5 992.5 c 128,-1,10
 1065 938 1065 938 1065 829 c 0,11,12
 1065 768 1065 768 1021 722 c 128,-1,13
 977 676 977 676 891 676 c 0,14,15
 871 676 871 676 854.5 677 c 128,-1,16
 838 678 838 678 825 680 c 0,17,18
 811 682 811 682 799 686 c 1,19,-1
 799 993 l 1,20,-1
 766 997 l 2,21,22
 752 999 752 999 733.5 1001.5 c 128,-1,23
 715 1004 715 1004 696 1004 c 2,24,-1
 686 1004 l 1,25,-1
 686 20 l 1,26,27
 745 22 745 22 796.5 44 c 128,-1,28
 848 66 848 66 890 97.5 c 128,-1,29
 932 129 932 129 964.5 169 c 128,-1,30
 997 209 997 209 1018 246 c 1,31,-1
 1065 215 l 1,32,33
 999 115 999 115 912 49.5 c 128,-1,34
 825 -16 825 -16 686 -29 c 1,35,-1
 686 -164 l 1,36,-1
 614 -164 l 1,37,-1
 614 -31 l 1,38,39
 505 -29 505 -29 409 5 c 128,-1,40
 313 39 313 39 240.5 104.5 c 128,-1,41
 168 170 168 170 125 271.5 c 128,-1,42
 82 373 82 373 82 512 c 256,0,1
430 512 m 0,43,44
 430 389 430 389 442.5 303 c 128,-1,45
 455 217 455 217 478.5 158.5 c 128,-1,46
 502 100 502 100 536.5 69.5 c 128,-1,47
 571 39 571 39 614 27 c 1,48,-1
 614 993 l 1,49,50
 569 979 569 979 534.5 946 c 128,-1,51
 500 913 500 913 477.5 856 c 128,-1,52
 455 799 455 799 442.5 714 c 128,-1,53
 430 629 430 629 430 512 c 0,43,44
EndSplineSet
EndChar

StartChar: sterling
Encoding: 163 163 101
Width: 1249
Flags: W
LayerCount: 2
Fore
SplineSet
41 0 m 1,0,-1
 41 72 l 1,1,-1
 207 113 l 1,2,-1
 258 748 l 1,3,-1
 100 768 l 1,4,-1
 100 809 l 1,5,-1
 264 809 l 1,6,-1
 281 1024 l 2,7,8
 297 1233 297 1233 433 1348.5 c 128,-1,9
 569 1464 569 1464 786 1464 c 0,10,11
 870 1464 870 1464 942 1452 c 128,-1,12
 1014 1440 1014 1440 1066 1414.5 c 128,-1,13
 1118 1389 1118 1389 1147 1348 c 128,-1,14
 1176 1307 1176 1307 1176 1249 c 0,15,16
 1176 1188 1176 1188 1131.5 1142 c 128,-1,17
 1087 1096 1087 1096 1001 1096 c 0,18,19
 981 1096 981 1096 966.5 1097 c 128,-1,20
 952 1098 952 1098 942 1100 c 0,21,22
 930 1102 930 1102 920 1106 c 1,23,-1
 920 1403 l 1,24,-1
 895 1407 l 2,25,26
 885 1409 885 1409 871.5 1411 c 128,-1,27
 858 1413 858 1413 848 1413 c 0,28,29
 809 1413 809 1413 774 1398.5 c 128,-1,30
 739 1384 739 1384 709.5 1341 c 128,-1,31
 680 1298 680 1298 658.5 1222.5 c 128,-1,32
 637 1147 637 1147 627 1024 c 2,33,-1
 608 809 l 1,34,-1
 981 809 l 1,35,-1
 981 768 l 1,36,-1
 604 748 l 1,37,-1
 553 113 l 1,38,-1
 1001 113 l 1,39,40
 1005 166 1005 166 1026 216 c 128,-1,41
 1047 266 1047 266 1069 305 c 0,42,43
 1094 350 1094 350 1126 389 c 1,44,-1
 1188 389 l 1,45,-1
 1188 0 l 1,46,-1
 41 0 l 1,0,-1
EndSplineSet
EndChar

StartChar: currency
Encoding: 164 164 102
Width: 1393
Flags: W
LayerCount: 2
Fore
SplineSet
61 0 m 1,0,-1
 61 31 l 1,1,-1
 225 51 l 1,2,-1
 225 379 l 1,3,-1
 61 379 l 1,4,-1
 61 451 l 1,5,-1
 225 451 l 1,6,-1
 225 573 l 1,7,-1
 61 573 l 1,8,-1
 61 645 l 1,9,-1
 225 645 l 1,10,-1
 225 1382 l 1,11,-1
 61 1403 l 1,12,-1
 61 1434 l 1,13,-1
 717 1434 l 2,14,15
 1040 1434 1040 1434 1196 1323 c 128,-1,16
 1352 1212 1352 1212 1352 1004 c 0,17,18
 1352 795 1352 795 1196 684 c 128,-1,19
 1040 573 1040 573 717 573 c 2,20,-1
 573 573 l 1,21,-1
 573 451 l 1,22,-1
 1096 451 l 1,23,-1
 1096 379 l 1,24,-1
 573 379 l 1,25,-1
 573 51 l 1,26,-1
 737 31 l 1,27,-1
 737 0 l 1,28,-1
 61 0 l 1,0,-1
573 635 m 1,29,-1
 676 635 l 2,30,31
 1004 635 1004 635 1004 1004 c 0,32,33
 1004 1382 1004 1382 676 1382 c 2,34,-1
 573 1382 l 1,35,-1
 573 635 l 1,29,-1
EndSplineSet
EndChar

StartChar: yen
Encoding: 165 165 103
Width: 1382
Flags: W
LayerCount: 2
Fore
SplineSet
-41 1403 m 1,0,-1
 -41 1434 l 1,1,-1
 246 1434 l 2,2,3
 299 1434 299 1434 340 1420.5 c 128,-1,4
 381 1407 381 1407 415 1381.5 c 128,-1,5
 449 1356 449 1356 476.5 1318 c 128,-1,6
 504 1280 504 1280 532 1229 c 2,7,-1
 840 676 l 1,8,-1
 1167 1382 l 1,9,-1
 963 1403 l 1,10,-1
 963 1434 l 1,11,-1
 1423 1434 l 1,12,-1
 1423 1403 l 1,13,-1
 1239 1382 l 1,14,-1
 903 655 l 1,15,-1
 1188 655 l 1,16,-1
 1188 584 l 1,17,-1
 881 584 l 1,18,-1
 881 410 l 1,19,-1
 1188 410 l 1,20,-1
 1188 338 l 1,21,-1
 881 338 l 1,22,-1
 881 51 l 1,23,-1
 1044 31 l 1,24,-1
 1044 0 l 1,25,-1
 369 0 l 1,26,-1
 369 31 l 1,27,-1
 532 51 l 1,28,-1
 532 338 l 1,29,-1
 225 338 l 1,30,-1
 225 410 l 1,31,-1
 532 410 l 1,32,-1
 532 543 l 1,33,-1
 510 584 l 1,34,-1
 225 584 l 1,35,-1
 225 655 l 1,36,-1
 471 655 l 1,37,-1
 72 1382 l 1,38,-1
 -41 1403 l 1,0,-1
EndSplineSet
EndChar

StartChar: brokenbar
Encoding: 166 166 104
Width: 522
Flags: W
LayerCount: 2
Fore
SplineSet
205 328 m 1,0,-1
 317 328 l 1,1,-1
 317 -410 l 1,2,-1
 205 -410 l 1,3,-1
 205 328 l 1,0,-1
205 696 m 1,4,-1
 205 1436 l 1,5,-1
 317 1436 l 1,6,-1
 317 696 l 1,7,-1
 205 696 l 1,4,-1
EndSplineSet
EndChar

StartChar: section
Encoding: 167 167 105
Width: 1208
Flags: W
LayerCount: 2
Fore
SplineSet
102 492 m 0,0,1
 102 568 102 568 136 622 c 128,-1,2
 170 676 170 676 219 710.5 c 128,-1,3
 268 745 268 745 322.5 765.5 c 128,-1,4
 377 786 377 786 420 799 c 1,5,-1
 317 870 l 2,6,7
 241 923 241 923 192 995 c 128,-1,8
 143 1067 143 1067 143 1167 c 0,9,10
 143 1224 143 1224 169 1276.5 c 128,-1,11
 195 1329 195 1329 251 1368 c 128,-1,12
 307 1407 307 1407 394 1430.5 c 128,-1,13
 481 1454 481 1454 604 1454 c 0,14,15
 821 1454 821 1454 932.5 1400 c 128,-1,16
 1044 1346 1044 1346 1044 1229 c 0,17,18
 1044 1168 1044 1168 1000 1121.5 c 128,-1,19
 956 1075 956 1075 870 1075 c 0,20,21
 850 1075 850 1075 833.5 1076 c 128,-1,22
 817 1077 817 1077 805 1079 c 0,23,24
 791 1081 791 1081 778 1085 c 1,25,-1
 778 1393 l 1,26,27
 764 1395 764 1395 743 1397 c 0,28,29
 727 1399 727 1399 704.5 1401 c 128,-1,30
 682 1403 682 1403 655 1403 c 0,31,32
 546 1403 546 1403 503.5 1365 c 128,-1,33
 461 1327 461 1327 461 1249 c 0,34,35
 461 1188 461 1188 506 1135.5 c 128,-1,36
 551 1083 551 1083 604 1044 c 2,37,-1
 932 809 l 2,38,39
 1010 754 1010 754 1058 689.5 c 128,-1,40
 1106 625 1106 625 1106 532 c 0,41,42
 1106 454 1106 454 1072 401 c 128,-1,43
 1038 348 1038 348 989 313.5 c 128,-1,44
 940 279 940 279 885.5 258.5 c 128,-1,45
 831 238 831 238 788 225 c 1,46,-1
 891 154 l 2,47,48
 967 101 967 101 1016 29 c 128,-1,49
 1065 -43 1065 -43 1065 -143 c 0,50,51
 1065 -200 1065 -200 1039.5 -252.5 c 128,-1,52
 1014 -305 1014 -305 957.5 -344 c 128,-1,53
 901 -383 901 -383 814 -406.5 c 128,-1,54
 727 -430 727 -430 604 -430 c 0,55,56
 387 -430 387 -430 275.5 -376 c 128,-1,57
 164 -322 164 -322 164 -205 c 0,58,59
 164 -144 164 -144 208 -97.5 c 128,-1,60
 252 -51 252 -51 338 -51 c 0,61,62
 356 -51 356 -51 373.5 -53 c 128,-1,63
 391 -55 391 -55 403 -57 c 0,64,65
 417 -59 417 -59 430 -61 c 1,66,-1
 430 -369 l 1,67,68
 444 -373 444 -373 465 -375 c 0,69,70
 481 -377 481 -377 502.5 -378 c 128,-1,71
 524 -379 524 -379 553 -379 c 0,72,73
 662 -379 662 -379 705 -341 c 128,-1,74
 748 -303 748 -303 748 -225 c 0,75,76
 748 -164 748 -164 702.5 -111.5 c 128,-1,77
 657 -59 657 -59 604 -20 c 2,78,-1
 276 215 l 2,79,80
 198 270 198 270 150 335 c 128,-1,81
 102 400 102 400 102 492 c 0,0,1
420 604 m 0,82,83
 420 543 420 543 460 489.5 c 128,-1,84
 500 436 500 436 563 389 c 1,85,-1
 748 256 l 1,86,87
 764 279 764 279 776 323 c 128,-1,88
 788 367 788 367 788 420 c 0,89,90
 788 481 788 481 748.5 534.5 c 128,-1,91
 709 588 709 588 645 635 c 2,92,-1
 461 768 l 1,93,94
 445 745 445 745 432.5 701 c 128,-1,95
 420 657 420 657 420 604 c 0,82,83
EndSplineSet
EndChar

StartChar: dieresis
Encoding: 168 168 106
Width: 625
Flags: W
LayerCount: 2
Fore
SplineSet
0 1556 m 0,0,1
 0 1610 0 1610 35 1644.5 c 128,-1,2
 70 1679 70 1679 123 1679 c 256,3,4
 176 1679 176 1679 211 1644.5 c 128,-1,5
 246 1610 246 1610 246 1556 c 0,6,7
 246 1503 246 1503 211 1468.5 c 128,-1,8
 176 1434 176 1434 123 1434 c 256,9,10
 70 1434 70 1434 35 1468.5 c 128,-1,11
 0 1503 0 1503 0 1556 c 0,0,1
379 1556 m 0,12,13
 379 1610 379 1610 414 1644.5 c 128,-1,14
 449 1679 449 1679 504 1679 c 0,15,16
 557 1679 557 1679 591 1644.5 c 128,-1,17
 625 1610 625 1610 625 1556 c 0,18,19
 625 1503 625 1503 591 1468.5 c 128,-1,20
 557 1434 557 1434 504 1434 c 0,21,22
 449 1434 449 1434 414 1468.5 c 128,-1,23
 379 1503 379 1503 379 1556 c 0,12,13
EndSplineSet
EndChar

StartChar: copyright
Encoding: 169 169 107
Width: 1679
Flags: W
LayerCount: 2
Fore
SplineSet
82 717 m 256,0,1
 82 871 82 871 140.5 1005 c 128,-1,2
 199 1139 199 1139 300 1239 c 128,-1,3
 401 1339 401 1339 539.5 1396.5 c 128,-1,4
 678 1454 678 1454 840 1454 c 256,5,6
 1002 1454 1002 1454 1140 1396.5 c 128,-1,7
 1278 1339 1278 1339 1379.5 1239 c 128,-1,8
 1481 1139 1481 1139 1539 1004.5 c 128,-1,9
 1597 870 1597 870 1597 717 c 0,10,11
 1597 563 1597 563 1539 429 c 128,-1,12
 1481 295 1481 295 1379.5 194.5 c 128,-1,13
 1278 94 1278 94 1139.5 37 c 128,-1,14
 1001 -20 1001 -20 840 -20 c 0,15,16
 678 -20 678 -20 539.5 37 c 128,-1,17
 401 94 401 94 300 194.5 c 128,-1,18
 199 295 199 295 140.5 429 c 128,-1,19
 82 563 82 563 82 717 c 256,0,1
164 717 m 256,20,21
 164 567 164 567 216 442 c 128,-1,22
 268 317 268 317 359.5 228 c 128,-1,23
 451 139 451 139 574.5 90 c 128,-1,24
 698 41 698 41 840 41 c 0,25,26
 981 41 981 41 1105 90 c 128,-1,27
 1229 139 1229 139 1320 228 c 128,-1,28
 1411 317 1411 317 1463.5 442 c 128,-1,29
 1516 567 1516 567 1516 717 c 256,30,31
 1516 867 1516 867 1463.5 991.5 c 128,-1,32
 1411 1116 1411 1116 1320 1205 c 128,-1,33
 1229 1294 1229 1294 1105 1343.5 c 128,-1,34
 981 1393 981 1393 840 1393 c 256,35,36
 699 1393 699 1393 575 1343.5 c 128,-1,37
 451 1294 451 1294 359.5 1205 c 128,-1,38
 268 1116 268 1116 216 991.5 c 128,-1,39
 164 867 164 867 164 717 c 256,20,21
410 717 m 256,40,41
 410 817 410 817 441.5 898 c 128,-1,42
 473 979 473 979 533.5 1036.5 c 128,-1,43
 594 1094 594 1094 682 1125.5 c 128,-1,44
 770 1157 770 1157 881 1157 c 0,45,46
 957 1157 957 1157 1024.5 1141.5 c 128,-1,47
 1092 1126 1092 1126 1142 1098.5 c 128,-1,48
 1192 1071 1192 1071 1220.5 1031 c 128,-1,49
 1249 991 1249 991 1249 942 c 0,50,51
 1249 881 1249 881 1210 840 c 128,-1,52
 1171 799 1171 799 1085 799 c 0,53,54
 1069 799 1069 799 1053.5 800 c 128,-1,55
 1038 801 1038 801 1028 803 c 0,56,57
 1014 805 1014 805 1004 809 c 1,58,-1
 1004 1096 l 1,59,60
 992 1098 992 1098 977 1100 c 0,61,62
 965 1102 965 1102 947.5 1104 c 128,-1,63
 930 1106 930 1106 911 1106 c 0,64,65
 868 1106 868 1106 833.5 1088.5 c 128,-1,66
 799 1071 799 1071 772 1027 c 128,-1,67
 745 983 745 983 731 907 c 128,-1,68
 717 831 717 831 717 717 c 0,69,70
 717 602 717 602 731 526.5 c 128,-1,71
 745 451 745 451 772 406.5 c 128,-1,72
 799 362 799 362 833.5 345 c 128,-1,73
 868 328 868 328 911 328 c 0,74,75
 989 328 989 328 1062 371 c 128,-1,76
 1135 414 1135 414 1188 492 c 1,77,-1
 1229 461 l 1,78,79
 1159 369 1159 369 1074 322.5 c 128,-1,80
 989 276 989 276 881 276 c 0,81,82
 770 276 770 276 682 308 c 128,-1,83
 594 340 594 340 533.5 397.5 c 128,-1,84
 473 455 473 455 441.5 536 c 128,-1,85
 410 617 410 617 410 717 c 256,40,41
EndSplineSet
EndChar

StartChar: ordfeminine
Encoding: 170 170 108
Width: 963
Flags: W
LayerCount: 2
Fore
SplineSet
82 942 m 0,0,1
 82 999 82 999 96 1038 c 0,2,3
 104 1059 104 1059 113 1075 c 1,4,5
 172 1092 172 1092 240 1106 c 1,6,7
 297 1116 297 1116 370.5 1126.5 c 128,-1,8
 444 1137 444 1137 522 1137 c 1,9,-1
 522 1188 l 2,10,11
 522 1311 522 1311 482 1362 c 128,-1,12
 442 1413 442 1413 389 1413 c 0,13,14
 373 1413 373 1413 357.5 1411 c 128,-1,15
 342 1409 342 1409 332 1407 c 0,16,17
 317 1405 317 1405 307 1403 c 1,18,-1
 307 1208 l 1,19,20
 297 1204 297 1204 287 1202 c 0,21,22
 276 1200 276 1200 264 1199 c 128,-1,23
 252 1198 252 1198 236 1198 c 0,24,25
 197 1198 197 1198 160 1222.5 c 128,-1,26
 123 1247 123 1247 123 1300 c 0,27,28
 123 1372 123 1372 202 1413 c 128,-1,29
 281 1454 281 1454 451 1454 c 0,30,31
 598 1454 598 1454 678 1374 c 128,-1,32
 758 1294 758 1294 758 1147 c 2,33,-1
 758 799 l 1,34,-1
 881 788 l 1,35,-1
 881 758 l 1,36,-1
 737 758 l 2,37,38
 676 758 676 758 639 779.5 c 128,-1,39
 602 801 602 801 584 829 c 1,40,41
 561 860 561 860 553 901 c 1,42,43
 532 856 532 856 502 819 c 1,44,45
 473 788 473 788 431 762.5 c 128,-1,46
 389 737 389 737 328 737 c 0,47,48
 205 737 205 737 143.5 793.5 c 128,-1,49
 82 850 82 850 82 942 c 0,0,1
317 942 m 0,50,51
 317 850 317 850 342 819 c 128,-1,52
 367 788 367 788 389 788 c 0,53,54
 420 788 420 788 444.5 807.5 c 128,-1,55
 469 827 469 827 485 852 c 1,56,57
 506 881 506 881 522 918 c 1,58,-1
 522 1096 l 1,59,60
 479 1096 479 1096 445.5 1093 c 128,-1,61
 412 1090 412 1090 387 1085 c 2,62,-1
 338 1075 l 1,63,64
 332 1059 332 1059 328 1038 c 1,65,66
 317 1001 317 1001 317 942 c 0,50,51
EndSplineSet
EndChar

StartChar: guillemotleft
Encoding: 171 171 109
Width: 1004
Flags: W
LayerCount: 2
Fore
SplineSet
0 471 m 1,0,-1
 0 553 l 1,1,-1
 696 1024 l 1,2,-1
 737 973 l 1,3,-1
 215 512 l 1,4,-1
 737 51 l 1,5,-1
 696 0 l 1,6,-1
 0 471 l 1,0,-1
440 471 m 1,7,-1
 440 553 l 1,8,-1
 881 881 l 1,9,-1
 922 829 l 1,10,-1
 645 512 l 1,11,-1
 922 195 l 1,12,-1
 879 143 l 1,13,-1
 440 471 l 1,7,-1
EndSplineSet
EndChar

StartChar: logicalnot
Encoding: 172 172 110
Width: 850
Flags: W
LayerCount: 2
Fore
SplineSet
61 696 m 1,0,-1
 61 788 l 1,1,-1
 788 788 l 1,2,-1
 788 512 l 1,3,-1
 696 512 l 1,4,-1
 696 696 l 1,5,-1
 61 696 l 1,0,-1
EndSplineSet
EndChar

StartChar: uni00AD
Encoding: 173 173 111
Width: 686
Flags: W
LayerCount: 2
Fore
SplineSet
61 635 m 1,0,-1
 61 748 l 1,1,-1
 625 748 l 1,2,-1
 625 635 l 1,3,-1
 61 635 l 1,0,-1
EndSplineSet
EndChar

StartChar: registered
Encoding: 174 174 112
Width: 1679
Flags: W
LayerCount: 2
Fore
SplineSet
82 717 m 256,0,1
 82 871 82 871 140.5 1005 c 128,-1,2
 199 1139 199 1139 300 1239 c 128,-1,3
 401 1339 401 1339 539.5 1396.5 c 128,-1,4
 678 1454 678 1454 840 1454 c 256,5,6
 1002 1454 1002 1454 1140 1396.5 c 128,-1,7
 1278 1339 1278 1339 1379.5 1239 c 128,-1,8
 1481 1139 1481 1139 1539 1004.5 c 128,-1,9
 1597 870 1597 870 1597 717 c 0,10,11
 1597 563 1597 563 1539 429 c 128,-1,12
 1481 295 1481 295 1379.5 194.5 c 128,-1,13
 1278 94 1278 94 1139.5 37 c 128,-1,14
 1001 -20 1001 -20 840 -20 c 0,15,16
 678 -20 678 -20 539.5 37 c 128,-1,17
 401 94 401 94 300 194.5 c 128,-1,18
 199 295 199 295 140.5 429 c 128,-1,19
 82 563 82 563 82 717 c 256,0,1
164 717 m 256,20,21
 164 567 164 567 216 442 c 128,-1,22
 268 317 268 317 359.5 228 c 128,-1,23
 451 139 451 139 574.5 90 c 128,-1,24
 698 41 698 41 840 41 c 0,25,26
 981 41 981 41 1105 90 c 128,-1,27
 1229 139 1229 139 1320 228 c 128,-1,28
 1411 317 1411 317 1463.5 442 c 128,-1,29
 1516 567 1516 567 1516 717 c 256,30,31
 1516 867 1516 867 1463.5 991.5 c 128,-1,32
 1411 1116 1411 1116 1320 1205 c 128,-1,33
 1229 1294 1229 1294 1105 1343.5 c 128,-1,34
 981 1393 981 1393 840 1393 c 256,35,36
 699 1393 699 1393 575 1343.5 c 128,-1,37
 451 1294 451 1294 359.5 1205 c 128,-1,38
 268 1116 268 1116 216 991.5 c 128,-1,39
 164 867 164 867 164 717 c 256,20,21
348 287 m 1,40,-1
 348 317 l 1,41,-1
 461 328 l 1,42,-1
 461 1106 l 1,43,-1
 348 1116 l 1,44,-1
 348 1147 l 1,45,-1
 778 1147 l 2,46,47
 919 1147 919 1147 1012.5 1128.5 c 128,-1,48
 1106 1110 1106 1110 1161.5 1077 c 128,-1,49
 1217 1044 1217 1044 1238.5 999 c 128,-1,50
 1260 954 1260 954 1260 901 c 0,51,52
 1260 815 1260 815 1187 749.5 c 128,-1,53
 1114 684 1114 684 981 676 c 1,54,55
 1010 674 1010 674 1040 659 c 1,56,57
 1067 647 1067 647 1096.5 619.5 c 128,-1,58
 1126 592 1126 592 1155 543 c 1,59,-1
 1270 338 l 1,60,-1
 1341 317 l 1,61,-1
 1341 287 l 1,62,-1
 1126 287 l 2,63,64
 1048 287 1048 287 994 327 c 128,-1,65
 940 367 940 367 911 420 c 2,66,-1
 778 666 l 1,67,-1
 758 666 l 1,68,-1
 758 328 l 1,69,-1
 870 317 l 1,70,-1
 870 287 l 1,71,-1
 348 287 l 1,40,-1
758 707 m 1,72,-1
 778 707 l 2,73,74
 864 707 864 707 908 758 c 128,-1,75
 952 809 952 809 952 901 c 0,76,77
 952 1096 952 1096 778 1096 c 2,78,-1
 758 1096 l 1,79,-1
 758 707 l 1,72,-1
EndSplineSet
EndChar

StartChar: macron
Encoding: 175 175 113
Width: 666
Flags: W
LayerCount: 2
Fore
SplineSet
0 1434 m 1,0,-1
 0 1546 l 1,1,-1
 666 1546 l 1,2,-1
 666 1434 l 1,3,-1
 0 1434 l 1,0,-1
EndSplineSet
EndChar

StartChar: degree
Encoding: 176 176 114
Width: 901
Flags: W
LayerCount: 2
Fore
SplineSet
102 1096 m 0,0,1
 102 1172 102 1172 129 1238.5 c 128,-1,2
 156 1305 156 1305 203 1352 c 128,-1,3
 250 1399 250 1399 313.5 1426.5 c 128,-1,4
 377 1454 377 1454 451 1454 c 256,5,6
 525 1454 525 1454 588 1426.5 c 128,-1,7
 651 1399 651 1399 698 1352 c 128,-1,8
 745 1305 745 1305 772 1238 c 128,-1,9
 799 1171 799 1171 799 1096 c 0,10,11
 799 1018 799 1018 772 952.5 c 128,-1,12
 745 887 745 887 698 840 c 128,-1,13
 651 793 651 793 587.5 765 c 128,-1,14
 524 737 524 737 451 737 c 0,15,16
 377 737 377 737 313.5 765 c 128,-1,17
 250 793 250 793 203 840 c 128,-1,18
 156 887 156 887 129 952.5 c 128,-1,19
 102 1018 102 1018 102 1096 c 0,0,1
195 1096 m 256,20,21
 195 1030 195 1030 214 977 c 128,-1,22
 233 924 233 924 268 887 c 128,-1,23
 303 850 303 850 350 829.5 c 128,-1,24
 397 809 397 809 451 809 c 0,25,26
 504 809 504 809 551 829.5 c 128,-1,27
 598 850 598 850 633 887 c 128,-1,28
 668 924 668 924 687.5 977 c 128,-1,29
 707 1030 707 1030 707 1096 c 256,30,31
 707 1162 707 1162 687.5 1215 c 128,-1,32
 668 1268 668 1268 633 1304.5 c 128,-1,33
 598 1341 598 1341 551 1361.5 c 128,-1,34
 504 1382 504 1382 451 1382 c 256,35,36
 398 1382 398 1382 350.5 1361.5 c 128,-1,37
 303 1341 303 1341 268 1304.5 c 128,-1,38
 233 1268 233 1268 214 1215 c 128,-1,39
 195 1162 195 1162 195 1096 c 256,20,21
EndSplineSet
EndChar

StartChar: plusminus
Encoding: 177 177 115
Width: 1096
Flags: W
LayerCount: 2
Fore
SplineSet
61 113 m 1,0,-1
 61 205 l 1,1,-1
 1034 205 l 1,2,-1
 1034 113 l 1,3,-1
 61 113 l 1,0,-1
61 635 m 1,4,-1
 61 727 l 1,5,-1
 502 727 l 1,6,-1
 502 1188 l 1,7,-1
 594 1188 l 1,8,-1
 594 727 l 1,9,-1
 1034 727 l 1,10,-1
 1034 635 l 1,11,-1
 594 635 l 1,12,-1
 594 174 l 1,13,-1
 502 174 l 1,14,-1
 502 635 l 1,15,-1
 61 635 l 1,4,-1
EndSplineSet
EndChar

StartChar: uni00B2
Encoding: 178 178 116
Width: 809
Flags: W
LayerCount: 2
Fore
SplineSet
82 758 m 1,0,-1
 82 809 l 2,1,2
 82 870 82 870 111.5 913 c 128,-1,3
 141 956 141 956 185 990 c 128,-1,4
 229 1024 229 1024 281.5 1053.5 c 128,-1,5
 334 1083 334 1083 378 1116 c 128,-1,6
 422 1149 422 1149 451.5 1190 c 128,-1,7
 481 1231 481 1231 481 1290 c 0,8,9
 481 1413 481 1413 369 1413 c 0,10,11
 352 1413 352 1413 336 1411 c 2,12,-1
 301 1407 l 2,13,14
 283 1405 283 1405 266 1403 c 1,15,-1
 266 1208 l 1,16,17
 256 1204 256 1204 246 1202 c 256,18,19
 236 1200 236 1200 223.5 1199 c 128,-1,20
 211 1198 211 1198 195 1198 c 0,21,22
 156 1198 156 1198 119 1222.5 c 128,-1,23
 82 1247 82 1247 82 1300 c 0,24,25
 82 1372 82 1372 161 1413 c 128,-1,26
 240 1454 240 1454 410 1454 c 0,27,28
 494 1454 494 1454 554 1437.5 c 128,-1,29
 614 1421 614 1421 652 1393.5 c 128,-1,30
 690 1366 690 1366 708.5 1329 c 128,-1,31
 727 1292 727 1292 727 1249 c 0,32,33
 727 1188 727 1188 694.5 1145 c 128,-1,34
 662 1102 662 1102 608.5 1070 c 128,-1,35
 555 1038 555 1038 489 1016 c 1,36,-1
 358 969 l 1,37,38
 293 944 293 944 235.5 916.5 c 128,-1,39
 178 889 178 889 143 850 c 1,40,-1
 573 850 l 1,41,42
 582 885 582 885 595 912.5 c 128,-1,43
 608 940 608 940 623 961 c 2,44,-1
 655 1004 l 1,45,-1
 696 1004 l 1,46,-1
 696 758 l 1,47,-1
 82 758 l 1,0,-1
EndSplineSet
EndChar

StartChar: uni00B3
Encoding: 179 179 117
Width: 809
Flags: W
LayerCount: 2
Fore
SplineSet
82 891 m 0,0,1
 82 944 82 944 119 968.5 c 128,-1,2
 156 993 156 993 195 993 c 0,3,4
 211 993 211 993 223.5 991 c 128,-1,5
 236 989 236 989 246 987 c 2,6,-1
 266 983 l 1,7,-1
 266 788 l 1,8,9
 283 784 283 784 301 782 c 0,10,11
 317 780 317 780 334.5 779 c 128,-1,12
 352 778 352 778 369 778 c 0,13,14
 422 778 422 778 451.5 820 c 128,-1,15
 481 862 481 862 481 930 c 0,16,17
 481 1001 481 1001 451.5 1043 c 128,-1,18
 422 1085 422 1085 369 1085 c 2,19,-1
 266 1085 l 1,20,-1
 266 1126 l 1,21,-1
 358 1126 l 2,22,23
 412 1126 412 1126 441.5 1167 c 128,-1,24
 471 1208 471 1208 471 1270 c 0,25,26
 471 1331 471 1331 443.5 1372 c 128,-1,27
 416 1413 416 1413 369 1413 c 0,28,29
 352 1413 352 1413 336 1411 c 2,30,-1
 301 1407 l 2,31,32
 283 1405 283 1405 266 1403 c 1,33,-1
 266 1208 l 1,34,35
 256 1204 256 1204 246 1202 c 256,36,37
 236 1200 236 1200 223.5 1199 c 128,-1,38
 211 1198 211 1198 195 1198 c 0,39,40
 156 1198 156 1198 119 1222.5 c 128,-1,41
 82 1247 82 1247 82 1300 c 0,42,43
 82 1372 82 1372 161 1413 c 128,-1,44
 240 1454 240 1454 410 1454 c 0,45,46
 489 1454 489 1454 547.5 1438.5 c 128,-1,47
 606 1423 606 1423 644 1396.5 c 128,-1,48
 682 1370 682 1370 699.5 1337.5 c 128,-1,49
 717 1305 717 1305 717 1270 c 0,50,51
 717 1208 717 1208 652.5 1161 c 128,-1,52
 588 1114 588 1114 471 1106 c 1,53,54
 594 1098 594 1098 660.5 1049.5 c 128,-1,55
 727 1001 727 1001 727 930 c 0,56,57
 727 854 727 854 652.5 795.5 c 128,-1,58
 578 737 578 737 410 737 c 0,59,60
 240 737 240 737 161 778 c 128,-1,61
 82 819 82 819 82 891 c 0,0,1
EndSplineSet
EndChar

StartChar: acute
Encoding: 180 180 118
Width: 369
Flags: W
LayerCount: 2
Fore
SplineSet
0 1434 m 1,0,-1
 102 1782 l 1,1,-1
 369 1782 l 1,2,-1
 90 1434 l 1,3,-1
 0 1434 l 1,0,-1
EndSplineSet
EndChar

StartChar: mu
Encoding: 181 181 119
AltUni2: 0003bc.ffffffff.0
Width: 1475
Flags: W
LayerCount: 2
Fore
SplineSet
41 -379 m 1,0,-1
 205 -358 l 1,1,-1
 205 973 l 1,2,-1
 41 993 l 1,3,-1
 41 1024 l 1,4,-1
 307 1024 l 2,5,6
 553 1024 553 1024 553 778 c 2,7,-1
 553 328 l 2,8,9
 553 281 553 281 564 234.5 c 128,-1,10
 575 188 575 188 594.5 151.5 c 128,-1,11
 614 115 614 115 643 92.5 c 128,-1,12
 672 70 672 70 707 70 c 0,13,14
 748 70 748 70 783.5 95.5 c 128,-1,15
 819 121 819 121 846 152 c 0,16,17
 877 188 877 188 901 236 c 1,18,-1
 901 973 l 1,19,-1
 737 993 l 1,20,-1
 737 1024 l 1,21,-1
 1413 1024 l 1,22,-1
 1413 993 l 1,23,-1
 1249 973 l 1,24,-1
 1249 51 l 1,25,-1
 1413 31 l 1,26,-1
 1413 0 l 1,27,-1
 1219 0 l 2,28,29
 1128 0 1128 0 1074 31.5 c 128,-1,30
 1020 63 1020 63 991 102 c 1,31,32
 956 147 956 147 942 205 c 1,33,34
 924 147 924 147 889 102 c 1,35,36
 860 63 860 63 813 31.5 c 128,-1,37
 766 0 766 0 696 0 c 0,38,39
 657 0 657 0 629.5 11.5 c 128,-1,40
 602 23 602 23 586 39 c 1,41,42
 565 57 565 57 553 80 c 1,43,-1
 553 -164 l 2,44,45
 553 -410 553 -410 307 -410 c 2,46,-1
 41 -410 l 1,47,-1
 41 -379 l 1,0,-1
EndSplineSet
EndChar

StartChar: paragraph
Encoding: 182 182 120
Width: 1290
Flags: W
LayerCount: 2
Fore
SplineSet
102 932 m 0,0,1
 102 1051 102 1051 144 1144 c 128,-1,2
 186 1237 186 1237 264 1301.5 c 128,-1,3
 342 1366 342 1366 451.5 1400 c 128,-1,4
 561 1434 561 1434 696 1434 c 2,5,-1
 1229 1434 l 1,6,-1
 1229 1382 l 1,7,-1
 1055 1382 l 1,8,-1
 1055 -410 l 1,9,-1
 942 -410 l 1,10,-1
 942 1382 l 1,11,-1
 788 1382 l 1,12,-1
 788 -410 l 1,13,-1
 676 -410 l 1,14,-1
 676 430 l 1,15,16
 545 432 545 432 438.5 468 c 128,-1,17
 332 504 332 504 257 568.5 c 128,-1,18
 182 633 182 633 142 725 c 128,-1,19
 102 817 102 817 102 932 c 0,0,1
EndSplineSet
EndChar

StartChar: periodcentered
Encoding: 183 183 121
Width: 614
Flags: W
LayerCount: 2
Fore
SplineSet
143 717 m 256,0,1
 143 789 143 789 189.5 835 c 128,-1,2
 236 881 236 881 307 881 c 0,3,4
 379 881 379 881 425 834.5 c 128,-1,5
 471 788 471 788 471 717 c 0,6,7
 471 645 471 645 425 599 c 128,-1,8
 379 553 379 553 307 553 c 256,9,10
 235 553 235 553 189 599 c 128,-1,11
 143 645 143 645 143 717 c 256,0,1
EndSplineSet
EndChar

StartChar: cedilla
Encoding: 184 184 122
Width: 287
Flags: W
LayerCount: 2
Fore
SplineSet
0 -369 m 1,0,-1
 41 -369 l 2,1,2
 88 -369 88 -369 121 -339 c 128,-1,3
 154 -309 154 -309 154 -256 c 256,4,5
 154 -203 154 -203 121 -173 c 128,-1,6
 88 -143 88 -143 41 -143 c 2,7,-1
 31 -143 l 1,8,-1
 31 0 l 1,9,-1
 92 0 l 1,10,-1
 92 -102 l 1,11,12
 193 -102 193 -102 250 -144 c 128,-1,13
 307 -186 307 -186 307 -256 c 256,14,15
 307 -326 307 -326 250 -368 c 128,-1,16
 193 -410 193 -410 92 -410 c 2,17,-1
 0 -410 l 1,18,-1
 0 -369 l 1,0,-1
EndSplineSet
EndChar

StartChar: uni00B9
Encoding: 185 185 123
Width: 666
Flags: W
LayerCount: 2
Fore
SplineSet
82 1219 m 1,0,-1
 297 1434 l 1,1,-1
 461 1434 l 1,2,-1
 461 799 l 1,3,-1
 584 788 l 1,4,-1
 584 758 l 1,5,-1
 102 758 l 1,6,-1
 102 788 l 1,7,-1
 225 799 l 1,8,-1
 225 1270 l 1,9,-1
 113 1178 l 1,10,-1
 82 1219 l 1,0,-1
EndSplineSet
EndChar

StartChar: ordmasculine
Encoding: 186 186 124
Width: 860
Flags: W
LayerCount: 2
Fore
SplineSet
82 1096 m 256,0,1
 82 1258 82 1258 171 1356 c 128,-1,2
 260 1454 260 1454 430 1454 c 256,3,4
 600 1454 600 1454 689 1355.5 c 128,-1,5
 778 1257 778 1257 778 1096 c 0,6,7
 778 934 778 934 689 835.5 c 128,-1,8
 600 737 600 737 430 737 c 256,9,10
 260 737 260 737 171 835.5 c 128,-1,11
 82 934 82 934 82 1096 c 256,0,1
317 1096 m 256,12,13
 317 920 317 920 350 849 c 128,-1,14
 383 778 383 778 430 778 c 0,15,16
 453 778 453 778 473.5 794.5 c 128,-1,17
 494 811 494 811 509 849 c 128,-1,18
 524 887 524 887 533.5 947.5 c 128,-1,19
 543 1008 543 1008 543 1096 c 256,20,21
 543 1184 543 1184 533.5 1244.5 c 128,-1,22
 524 1305 524 1305 509 1342.5 c 128,-1,23
 494 1380 494 1380 473.5 1396.5 c 128,-1,24
 453 1413 453 1413 430 1413 c 0,25,26
 383 1413 383 1413 350 1342.5 c 128,-1,27
 317 1272 317 1272 317 1096 c 256,12,13
EndSplineSet
EndChar

StartChar: guillemotright
Encoding: 187 187 125
Width: 1004
Flags: W
LayerCount: 2
Fore
SplineSet
82 195 m 1,0,-1
 358 512 l 1,1,-1
 82 829 l 1,2,-1
 123 881 l 1,3,-1
 563 553 l 1,4,-1
 563 471 l 1,5,-1
 125 143 l 1,6,-1
 82 195 l 1,0,-1
266 51 m 1,7,-1
 788 512 l 1,8,-1
 266 973 l 1,9,-1
 307 1024 l 1,10,-1
 1004 553 l 1,11,-1
 1004 471 l 1,12,-1
 307 0 l 1,13,-1
 266 51 l 1,7,-1
EndSplineSet
EndChar

StartChar: onequarter
Encoding: 188 188 126
Width: 1577
Flags: W
LayerCount: 2
Fore
SplineSet
82 1219 m 1,0,-1
 297 1434 l 1,1,-1
 461 1434 l 1,2,-1
 461 799 l 1,3,-1
 584 788 l 1,4,-1
 584 758 l 1,5,-1
 102 758 l 1,6,-1
 102 788 l 1,7,-1
 225 799 l 1,8,-1
 225 1270 l 1,9,-1
 113 1178 l 1,10,-1
 82 1219 l 1,0,-1
164 0 m 1,11,-1
 1260 1434 l 1,12,-1
 1352 1434 l 1,13,-1
 266 0 l 1,14,-1
 164 0 l 1,11,-1
850 0 m 1,15,-1
 850 51 l 2,16,17
 850 113 850 113 879.5 156 c 128,-1,18
 909 199 909 199 953 232.5 c 128,-1,19
 997 266 997 266 1049.5 296 c 128,-1,20
 1102 326 1102 326 1146 358.5 c 128,-1,21
 1190 391 1190 391 1219.5 432 c 128,-1,22
 1249 473 1249 473 1249 532 c 0,23,24
 1249 655 1249 655 1137 655 c 0,25,26
 1120 655 1120 655 1104 653 c 2,27,-1
 1069 649 l 2,28,29
 1051 647 1051 647 1034 645 c 1,30,-1
 1034 451 l 1,31,32
 1024 446 1024 446 1014 444 c 256,33,34
 1004 442 1004 442 991.5 441 c 128,-1,35
 979 440 979 440 963 440 c 0,36,37
 924 440 924 440 887 464.5 c 128,-1,38
 850 489 850 489 850 543 c 0,39,40
 850 614 850 614 929 655 c 128,-1,41
 1008 696 1008 696 1178 696 c 0,42,43
 1262 696 1262 696 1322 680 c 128,-1,44
 1382 664 1382 664 1420 636 c 128,-1,45
 1458 608 1458 608 1476.5 571.5 c 128,-1,46
 1495 535 1495 535 1495 492 c 0,47,48
 1495 430 1495 430 1462.5 387 c 128,-1,49
 1430 344 1430 344 1376.5 312.5 c 128,-1,50
 1323 281 1323 281 1257 256 c 1,51,-1
 1126 211 l 1,52,53
 1061 186 1061 186 1003.5 158.5 c 128,-1,54
 946 131 946 131 911 92 c 1,55,-1
 1341 92 l 1,56,57
 1350 127 1350 127 1363 154.5 c 128,-1,58
 1376 182 1376 182 1391 203 c 2,59,-1
 1423 246 l 1,60,-1
 1464 246 l 1,61,-1
 1464 0 l 1,62,-1
 850 0 l 1,15,-1
EndSplineSet
EndChar

StartChar: onehalf
Encoding: 189 189 127
Width: 1434
Flags: W
LayerCount: 2
Fore
SplineSet
82 1219 m 1,0,-1
 297 1434 l 1,1,-1
 461 1434 l 1,2,-1
 461 799 l 1,3,-1
 584 788 l 1,4,-1
 584 758 l 1,5,-1
 102 758 l 1,6,-1
 102 788 l 1,7,-1
 225 799 l 1,8,-1
 225 1270 l 1,9,-1
 113 1178 l 1,10,-1
 82 1219 l 1,0,-1
164 0 m 1,11,-1
 1260 1434 l 1,12,-1
 1352 1434 l 1,13,-1
 266 0 l 1,14,-1
 164 0 l 1,11,-1
666 143 m 1,15,-1
 666 184 l 1,16,-1
 1157 696 l 1,17,-1
 1219 696 l 1,18,-1
 1219 184 l 1,19,-1
 1352 184 l 1,20,-1
 1352 143 l 1,21,-1
 1219 143 l 1,22,-1
 1219 41 l 1,23,-1
 1341 31 l 1,24,-1
 1341 0 l 1,25,-1
 860 0 l 1,26,-1
 860 31 l 1,27,-1
 983 41 l 1,28,-1
 983 143 l 1,29,-1
 666 143 l 1,15,-1
727 184 m 1,30,-1
 983 184 l 1,31,-1
 983 451 l 1,32,-1
 727 184 l 1,30,-1
EndSplineSet
EndChar

StartChar: threequarters
Encoding: 190 190 128
Width: 1546
Flags: W
LayerCount: 2
Fore
SplineSet
82 891 m 0,0,1
 82 944 82 944 119 968.5 c 128,-1,2
 156 993 156 993 195 993 c 0,3,4
 211 993 211 993 223.5 991 c 128,-1,5
 236 989 236 989 246 987 c 2,6,-1
 266 983 l 1,7,-1
 266 788 l 1,8,9
 282 784 282 784 301 782 c 0,10,11
 317 780 317 780 334.5 779 c 128,-1,12
 352 778 352 778 369 778 c 0,13,14
 422 778 422 778 451.5 820 c 128,-1,15
 481 862 481 862 481 930 c 0,16,17
 481 1002 481 1002 451.5 1043.5 c 128,-1,18
 422 1085 422 1085 369 1085 c 2,19,-1
 266 1085 l 1,20,-1
 266 1126 l 1,21,-1
 358 1126 l 2,22,23
 411 1126 411 1126 441 1167 c 128,-1,24
 471 1208 471 1208 471 1270 c 0,25,26
 471 1331 471 1331 443.5 1372 c 128,-1,27
 416 1413 416 1413 369 1413 c 0,28,29
 353 1413 353 1413 335 1411 c 2,30,-1
 301 1407 l 2,31,32
 283 1405 283 1405 266 1403 c 1,33,-1
 266 1208 l 1,34,35
 256 1204 256 1204 246 1202 c 256,36,37
 236 1200 236 1200 223.5 1199 c 128,-1,38
 211 1198 211 1198 195 1198 c 0,39,40
 156 1198 156 1198 119 1222.5 c 128,-1,41
 82 1247 82 1247 82 1300 c 0,42,43
 82 1372 82 1372 161 1413 c 128,-1,44
 240 1454 240 1454 410 1454 c 0,45,46
 490 1454 490 1454 548 1438.5 c 128,-1,47
 606 1423 606 1423 644 1396.5 c 128,-1,48
 682 1370 682 1370 699.5 1337.5 c 128,-1,49
 717 1305 717 1305 717 1270 c 0,50,51
 717 1209 717 1209 652.5 1161.5 c 128,-1,52
 588 1114 588 1114 471 1106 c 1,53,54
 594 1098 594 1098 660.5 1049.5 c 128,-1,55
 727 1001 727 1001 727 930 c 0,56,57
 727 854 727 854 652.5 795.5 c 128,-1,58
 578 737 578 737 410 737 c 0,59,60
 240 737 240 737 161 778 c 128,-1,61
 82 819 82 819 82 891 c 0,0,1
276 0 m 1,62,-1
 1372 1434 l 1,63,-1
 1464 1434 l 1,64,-1
 379 0 l 1,65,-1
 276 0 l 1,62,-1
778 143 m 1,66,-1
 778 184 l 1,67,-1
 1270 696 l 1,68,-1
 1331 696 l 1,69,-1
 1331 184 l 1,70,-1
 1464 184 l 1,71,-1
 1464 143 l 1,72,-1
 1331 143 l 1,73,-1
 1331 41 l 1,74,-1
 1454 31 l 1,75,-1
 1454 0 l 1,76,-1
 973 0 l 1,77,-1
 973 31 l 1,78,-1
 1096 41 l 1,79,-1
 1096 143 l 1,80,-1
 778 143 l 1,66,-1
840 184 m 1,81,-1
 1096 184 l 1,82,-1
 1096 451 l 1,83,-1
 840 184 l 1,81,-1
EndSplineSet
EndChar

StartChar: questiondown
Encoding: 191 191 129
Width: 1188
Flags: W
LayerCount: 2
Fore
SplineSet
61 -41 m 0,0,1
 61 59 61 59 110.5 136 c 128,-1,2
 160 213 160 213 237.5 270.5 c 128,-1,3
 315 328 315 328 411.5 364.5 c 128,-1,4
 508 401 508 401 604 420 c 1,5,-1
 604 584 l 1,6,-1
 707 584 l 1,7,-1
 707 369 l 1,8,9
 575 307 575 307 492.5 195.5 c 128,-1,10
 410 84 410 84 410 -92 c 0,11,12
 410 -246 410 -246 481.5 -317.5 c 128,-1,13
 553 -389 553 -389 707 -389 c 0,14,15
 741 -389 741 -389 772 -385 c 128,-1,16
 803 -381 803 -381 827 -375 c 0,17,18
 856 -367 856 -367 881 -358 c 1,19,-1
 881 -31 l 1,20,21
 893 -29 893 -29 907 -27 c 0,22,23
 920 -25 920 -25 936 -22.5 c 128,-1,24
 952 -20 952 -20 973 -20 c 0,25,26
 1059 -20 1059 -20 1103 -66.5 c 128,-1,27
 1147 -113 1147 -113 1147 -174 c 0,28,29
 1147 -223 1147 -223 1114 -271 c 128,-1,30
 1081 -319 1081 -319 1016.5 -357 c 128,-1,31
 952 -395 952 -395 857 -417.5 c 128,-1,32
 762 -440 762 -440 635 -440 c 0,33,34
 485 -440 485 -440 376.5 -409.5 c 128,-1,35
 268 -379 268 -379 198.5 -325.5 c 128,-1,36
 129 -272 129 -272 95 -198.5 c 128,-1,37
 61 -125 61 -125 61 -41 c 0,0,1
492 881 m 0,38,39
 492 952 492 952 538 998 c 128,-1,40
 584 1044 584 1044 655 1044 c 0,41,42
 727 1044 727 1044 773 998 c 128,-1,43
 819 952 819 952 819 881 c 0,44,45
 819 809 819 809 773 763 c 128,-1,46
 727 717 727 717 655 717 c 0,47,48
 584 717 584 717 538 763 c 128,-1,49
 492 809 492 809 492 881 c 0,38,39
EndSplineSet
EndChar

StartChar: Aring
Encoding: 197 197 135
Width: 1516
Flags: W
LayerCount: 2
Fore
SplineSet
-61 0 m 1,0,-1
 -61 31 l 1,1,-1
 123 51 l 1,2,-1
 748 1454 l 1,3,-1
 809 1454 l 1,4,-1
 1444 51 l 1,5,-1
 1577 31 l 1,6,-1
 1577 0 l 1,7,-1
 1280 0 l 2,8,9
 1180 0 1180 0 1105 61.5 c 128,-1,10
 1030 123 1030 123 983 225 c 2,11,-1
 899 410 l 1,12,-1
 354 410 l 1,13,-1
 195 51 l 1,14,-1
 399 31 l 1,15,-1
 399 0 l 1,16,-1
 -61 0 l 1,0,-1
381 471 m 1,17,-1
 872 471 l 1,18,-1
 625 1018 l 1,19,-1
 381 471 l 1,17,-1
573 1700 m 0,20,21
 573 1745 573 1745 589.5 1783 c 128,-1,22
 606 1821 606 1821 634 1848.5 c 128,-1,23
 662 1876 662 1876 698.5 1890.5 c 128,-1,24
 735 1905 735 1905 778 1905 c 256,25,26
 821 1905 821 1905 858 1890.5 c 128,-1,27
 895 1876 895 1876 922.5 1848.5 c 128,-1,28
 950 1821 950 1821 966.5 1783 c 128,-1,29
 983 1745 983 1745 983 1700 c 0,30,31
 983 1653 983 1653 966.5 1616 c 128,-1,32
 950 1579 950 1579 922.5 1551.5 c 128,-1,33
 895 1524 895 1524 858 1509.5 c 128,-1,34
 821 1495 821 1495 778 1495 c 256,35,36
 735 1495 735 1495 698.5 1509.5 c 128,-1,37
 662 1524 662 1524 634 1551.5 c 128,-1,38
 606 1579 606 1579 589.5 1616 c 128,-1,39
 573 1653 573 1653 573 1700 c 0,20,21
666 1700 m 256,40,41
 666 1647 666 1647 698.5 1612 c 128,-1,42
 731 1577 731 1577 778 1577 c 256,43,44
 825 1577 825 1577 858 1612 c 128,-1,45
 891 1647 891 1647 891 1700 c 256,46,47
 891 1753 891 1753 858 1788 c 128,-1,48
 825 1823 825 1823 778 1823 c 256,49,50
 731 1823 731 1823 698.5 1788 c 128,-1,51
 666 1753 666 1753 666 1700 c 256,40,41
EndSplineSet
EndChar

StartChar: AE
Encoding: 198 198 136
Width: 2124
Flags: W
LayerCount: 2
Fore
SplineSet
-119 0 m 1,0,-1
 -119 31 l 1,1,-1
 66 51 l 1,2,-1
 885 1434 l 1,3,-1
 2021 1434 l 1,4,-1
 2021 1044 l 1,5,-1
 1960 1044 l 1,6,7
 1925 1087 1925 1087 1896 1141 c 0,8,9
 1872 1186 1872 1186 1851.5 1247.5 c 128,-1,10
 1831 1309 1831 1309 1827 1382 c 1,11,-1
 1315 1382 l 1,12,-1
 1315 758 l 1,13,-1
 1591 758 l 1,14,15
 1595 784 1595 784 1604.5 819 c 128,-1,16
 1614 854 1614 854 1626 890 c 128,-1,17
 1638 926 1638 926 1652.5 958.5 c 128,-1,18
 1667 991 1667 991 1683 1014 c 1,19,-1
 1735 1014 l 1,20,-1
 1735 451 l 1,21,-1
 1683 451 l 1,22,23
 1667 473 1667 473 1652.5 506 c 128,-1,24
 1638 539 1638 539 1626 574.5 c 128,-1,25
 1614 610 1614 610 1604.5 645 c 128,-1,26
 1595 680 1595 680 1591 707 c 1,27,-1
 1315 707 l 1,28,-1
 1315 51 l 1,29,-1
 1827 51 l 1,30,31
 1831 123 1831 123 1851.5 185.5 c 128,-1,32
 1872 248 1872 248 1896 293 c 0,33,34
 1925 346 1925 346 1960 389 c 1,35,-1
 2021 389 l 1,36,-1
 2021 0 l 1,37,-1
 803 0 l 1,38,-1
 803 31 l 1,39,-1
 967 51 l 1,40,-1
 967 522 l 1,41,-1
 416 522 l 1,42,-1
 137 51 l 1,43,-1
 342 31 l 1,44,-1
 342 0 l 1,45,-1
 -119 0 l 1,0,-1
453 584 m 1,46,-1
 967 584 l 1,47,-1
 967 1382 l 1,48,-1
 926 1382 l 1,49,-1
 453 584 l 1,46,-1
EndSplineSet
EndChar

StartChar: Ccedilla
Encoding: 199 199 137
Width: 1403
Flags: W
LayerCount: 2
Fore
SplineSet
102 717 m 0,0,1
 102 920 102 920 163.5 1062 c 128,-1,2
 225 1204 225 1204 320.5 1293 c 128,-1,3
 416 1382 416 1382 529.5 1423 c 128,-1,4
 643 1464 643 1464 748 1464 c 0,5,6
 834 1464 834 1464 897.5 1439.5 c 128,-1,7
 961 1415 961 1415 1006 1386 c 0,8,9
 1059 1352 1059 1352 1096 1311 c 1,10,11
 1118 1346 1118 1346 1143 1372 c 0,12,13
 1165 1395 1165 1395 1195 1414.5 c 128,-1,14
 1225 1434 1225 1434 1260 1434 c 2,15,-1
 1300 1434 l 1,16,-1
 1300 1044 l 1,17,-1
 1208 1044 l 1,18,19
 1182 1106 1182 1106 1140 1171.5 c 128,-1,20
 1098 1237 1098 1237 1043.5 1290 c 128,-1,21
 989 1343 989 1343 921.5 1378 c 128,-1,22
 854 1413 854 1413 778 1413 c 0,23,24
 729 1413 729 1413 672.5 1377 c 128,-1,25
 616 1341 616 1341 569 1260.5 c 128,-1,26
 522 1180 522 1180 491.5 1046.5 c 128,-1,27
 461 913 461 913 461 717 c 0,28,29
 461 520 461 520 492.5 387 c 128,-1,30
 524 254 524 254 577.5 173 c 128,-1,31
 631 92 631 92 698.5 56 c 128,-1,32
 766 20 766 20 840 20 c 0,33,34
 909 20 909 20 974.5 41.5 c 128,-1,35
 1040 63 1040 63 1097.5 102 c 128,-1,36
 1155 141 1155 141 1200 193.5 c 128,-1,37
 1245 246 1245 246 1274 307 c 1,38,-1
 1321 276 l 1,39,40
 1286 211 1286 211 1238 154.5 c 128,-1,41
 1190 98 1190 98 1126.5 57 c 128,-1,42
 1063 16 1063 16 984 -7.5 c 128,-1,43
 905 -31 905 -31 809 -31 c 2,44,-1
 784 -31 l 2,45,46
 772 -31 772 -31 762 -29 c 1,47,-1
 762 -102 l 1,48,49
 862 -102 862 -102 919.5 -144 c 128,-1,50
 977 -186 977 -186 977 -256 c 256,51,52
 977 -326 977 -326 919.5 -368 c 128,-1,53
 862 -410 862 -410 762 -410 c 2,54,-1
 670 -410 l 1,55,-1
 670 -369 l 1,56,-1
 711 -369 l 2,57,58
 758 -369 758 -369 790.5 -339 c 128,-1,59
 823 -309 823 -309 823 -256 c 256,60,61
 823 -203 823 -203 790.5 -173 c 128,-1,62
 758 -143 758 -143 711 -143 c 2,63,-1
 700 -143 l 1,64,-1
 700 -23 l 1,65,66
 586 -8 586 -8 478.5 41 c 128,-1,67
 371 90 371 90 287 179 c 128,-1,68
 203 268 203 268 152.5 401.5 c 128,-1,69
 102 535 102 535 102 717 c 0,0,1
EndSplineSet
EndChar

StartChar: Eth
Encoding: 208 208 146
Width: 1546
Flags: W
LayerCount: 2
Fore
SplineSet
61 707 m 1,0,-1
 61 758 l 1,1,-1
 246 758 l 1,2,-1
 246 1382 l 1,3,-1
 82 1403 l 1,4,-1
 82 1434 l 1,5,-1
 655 1434 l 2,6,7
 805 1434 805 1434 947.5 1394 c 128,-1,8
 1090 1354 1090 1354 1200.5 1268 c 128,-1,9
 1311 1182 1311 1182 1377.5 1045.5 c 128,-1,10
 1444 909 1444 909 1444 717 c 0,11,12
 1444 524 1444 524 1377.5 388 c 128,-1,13
 1311 252 1311 252 1200.5 166 c 128,-1,14
 1090 80 1090 80 947.5 40 c 128,-1,15
 805 0 805 0 655 0 c 2,16,-1
 82 0 l 1,17,-1
 82 31 l 1,18,-1
 246 51 l 1,19,-1
 246 707 l 1,20,-1
 61 707 l 1,0,-1
594 51 m 1,21,-1
 645 51 l 2,22,23
 733 51 733 51 813 86 c 128,-1,24
 893 121 893 121 953.5 200 c 128,-1,25
 1014 279 1014 279 1049.5 405.5 c 128,-1,26
 1085 532 1085 532 1085 717 c 0,27,28
 1085 901 1085 901 1049.5 1028 c 128,-1,29
 1014 1155 1014 1155 953.5 1234 c 128,-1,30
 893 1313 893 1313 813 1347.5 c 128,-1,31
 733 1382 733 1382 645 1382 c 2,32,-1
 594 1382 l 1,33,-1
 594 758 l 1,34,-1
 778 758 l 1,35,-1
 778 707 l 1,36,-1
 594 707 l 1,37,-1
 594 51 l 1,21,-1
EndSplineSet
EndChar

StartChar: multiply
Encoding: 215 215 153
Width: 918
Flags: W
LayerCount: 2
Fore
SplineSet
82 1008 m 1,0,-1
 147 1073 l 1,1,-1
 459 762 l 1,2,-1
 756 1059 l 1,3,-1
 821 993 l 1,4,-1
 524 696 l 1,5,-1
 836 385 l 1,6,-1
 770 319 l 1,7,-1
 459 631 l 1,8,-1
 162 334 l 1,9,-1
 96 399 l 1,10,-1
 393 696 l 1,11,-1
 82 1008 l 1,0,-1
EndSplineSet
EndChar

StartChar: Oslash
Encoding: 216 216 154
Width: 1556
Flags: W
LayerCount: 2
Fore
SplineSet
102 717 m 0,0,1
 102 920 102 920 163.5 1062 c 128,-1,2
 225 1204 225 1204 321.5 1293 c 128,-1,3
 418 1382 418 1382 538.5 1423 c 128,-1,4
 659 1464 659 1464 778 1464 c 0,5,6
 889 1464 889 1464 999.5 1430.5 c 128,-1,7
 1110 1397 1110 1397 1204 1321 c 1,8,-1
 1290 1434 l 1,9,-1
 1382 1434 l 1,10,-1
 1260 1270 l 1,11,12
 1346 1180 1346 1180 1400 1044.5 c 128,-1,13
 1454 909 1454 909 1454 717 c 0,14,15
 1454 514 1454 514 1392.5 371.5 c 128,-1,16
 1331 229 1331 229 1235 140 c 128,-1,17
 1139 51 1139 51 1018 10 c 128,-1,18
 897 -31 897 -31 778 -31 c 0,19,20
 674 -31 674 -31 568.5 0 c 128,-1,21
 463 31 463 31 371 98 c 1,22,-1
 297 0 l 1,23,-1
 195 0 l 1,24,-1
 309 150 l 1,25,26
 217 242 217 242 159.5 380 c 128,-1,27
 102 518 102 518 102 717 c 0,0,1
461 717 m 0,28,29
 461 524 461 524 489 385 c 1,30,-1
 1051 1118 l 1,31,32
 1004 1286 1004 1286 928 1354.5 c 128,-1,33
 852 1423 852 1423 778 1423 c 0,34,35
 725 1423 725 1423 668.5 1387.5 c 128,-1,36
 612 1352 612 1352 566 1270 c 128,-1,37
 520 1188 520 1188 490.5 1052 c 128,-1,38
 461 916 461 916 461 717 c 0,28,29
514 287 m 1,39,40
 537 211 537 211 567.5 157.5 c 128,-1,41
 598 104 598 104 634 71.5 c 128,-1,42
 670 39 670 39 706.5 24.5 c 128,-1,43
 743 10 743 10 778 10 c 0,44,45
 831 10 831 10 887.5 46 c 128,-1,46
 944 82 944 82 990 164 c 128,-1,47
 1036 246 1036 246 1066 381 c 128,-1,48
 1096 516 1096 516 1096 717 c 0,49,50
 1096 807 1096 807 1088.5 882.5 c 128,-1,51
 1081 958 1081 958 1071 1022 c 1,52,-1
 514 287 l 1,39,40
EndSplineSet
EndChar

StartChar: Thorn
Encoding: 222 222 160
Width: 1393
Flags: W
LayerCount: 2
Fore
SplineSet
82 0 m 1,0,-1
 82 31 l 1,1,-1
 246 51 l 1,2,-1
 246 1382 l 1,3,-1
 82 1403 l 1,4,-1
 82 1434 l 1,5,-1
 758 1434 l 1,6,-1
 758 1403 l 1,7,-1
 594 1382 l 1,8,-1
 594 1229 l 1,9,10
 752 1229 752 1229 887 1200 c 128,-1,11
 1022 1171 1022 1171 1120.5 1110 c 128,-1,12
 1219 1049 1219 1049 1275 951.5 c 128,-1,13
 1331 854 1331 854 1331 717 c 0,14,15
 1331 578 1331 578 1275 480.5 c 128,-1,16
 1219 383 1219 383 1120.5 321.5 c 128,-1,17
 1022 260 1022 260 887 232.5 c 128,-1,18
 752 205 752 205 594 205 c 1,19,-1
 594 51 l 1,20,-1
 758 31 l 1,21,-1
 758 0 l 1,22,-1
 82 0 l 1,0,-1
594 256 m 1,23,24
 686 256 686 256 756.5 280.5 c 128,-1,25
 827 305 827 305 875.5 359.5 c 128,-1,26
 924 414 924 414 948.5 502 c 128,-1,27
 973 590 973 590 973 717 c 256,28,29
 973 844 973 844 948.5 932 c 128,-1,30
 924 1020 924 1020 875.5 1074 c 128,-1,31
 827 1128 827 1128 756.5 1153 c 128,-1,32
 686 1178 686 1178 594 1178 c 1,33,-1
 594 256 l 1,23,24
EndSplineSet
EndChar

StartChar: germandbls
Encoding: 223 223 161
Width: 1495
Flags: W
LayerCount: 2
Fore
SplineSet
20 0 m 1,0,-1
 20 31 l 1,1,-1
 184 51 l 1,2,-1
 184 1024 l 2,3,4
 184 1233 184 1233 324.5 1348.5 c 128,-1,5
 465 1464 465 1464 758 1464 c 0,6,7
 895 1464 895 1464 991 1440.5 c 128,-1,8
 1087 1417 1087 1417 1146.5 1378 c 128,-1,9
 1206 1339 1206 1339 1233 1288 c 128,-1,10
 1260 1237 1260 1237 1260 1180 c 0,11,12
 1260 1106 1260 1106 1221 1063 c 128,-1,13
 1182 1020 1182 1020 1136 985 c 128,-1,14
 1090 950 1090 950 1052 912 c 128,-1,15
 1014 874 1014 874 1014 809 c 0,16,17
 1014 778 1014 778 1023 755.5 c 128,-1,18
 1032 733 1032 733 1047.5 713.5 c 128,-1,19
 1063 694 1063 694 1085 676 c 2,20,-1
 1137 635 l 1,21,-1
 1300 502 l 2,22,23
 1359 453 1359 453 1396.5 387.5 c 128,-1,24
 1434 322 1434 322 1434 236 c 0,25,26
 1434 183 1434 183 1410 134.5 c 128,-1,27
 1386 86 1386 86 1335 49 c 128,-1,28
 1284 12 1284 12 1204 -9.5 c 128,-1,29
 1124 -31 1124 -31 1014 -31 c 0,30,31
 940 -31 940 -31 889 -9.5 c 128,-1,32
 838 12 838 12 803 41 c 0,33,34
 764 72 764 72 737 113 c 1,35,-1
 778 143 l 1,36,37
 803 108 803 108 834 82 c 0,38,39
 861 59 861 59 895.5 39.5 c 128,-1,40
 930 20 930 20 973 20 c 0,41,42
 1096 20 1096 20 1096 154 c 0,43,44
 1096 215 1096 215 1064 267 c 128,-1,45
 1032 319 1032 319 973 369 c 1,46,-1
 809 502 l 1,47,48
 741 555 741 555 708.5 611.5 c 128,-1,49
 676 668 676 668 676 737 c 0,50,51
 676 798 676 798 694.5 840.5 c 128,-1,52
 713 883 713 883 739.5 913.5 c 128,-1,53
 766 944 766 944 798.5 969.5 c 128,-1,54
 831 995 831 995 858 1025 c 128,-1,55
 885 1055 885 1055 903.5 1092.5 c 128,-1,56
 922 1130 922 1130 922 1188 c 0,57,58
 922 1297 922 1297 869.5 1355 c 128,-1,59
 817 1413 817 1413 748 1413 c 0,60,61
 699 1413 699 1413 658.5 1395.5 c 128,-1,62
 618 1378 618 1378 590.5 1334 c 128,-1,63
 563 1290 563 1290 547.5 1214.5 c 128,-1,64
 532 1139 532 1139 532 1024 c 2,65,-1
 532 51 l 1,66,-1
 696 31 l 1,67,-1
 696 0 l 1,68,-1
 20 0 l 1,0,-1
EndSplineSet
EndChar

StartChar: aring
Encoding: 229 229 167
Width: 1270
Flags: W
LayerCount: 2
Fore
SplineSet
61 307 m 0,0,1
 61 342 61 342 67.5 369.5 c 128,-1,2
 74 397 74 397 82 418 c 0,3,4
 90 440 90 440 102 461 c 1,5,6
 193 483 193 483 297 504 c 1,7,8
 385 520 385 520 499.5 534.5 c 128,-1,9
 614 549 614 549 737 553 c 1,10,-1
 737 594 l 2,11,12
 737 717 737 717 722 795.5 c 128,-1,13
 707 874 707 874 678 920.5 c 128,-1,14
 649 967 649 967 607 985.5 c 128,-1,15
 565 1004 565 1004 512 1004 c 0,16,17
 492 1004 492 1004 474.5 1001.5 c 128,-1,18
 457 999 457 999 442 997 c 2,19,-1
 410 993 l 1,20,-1
 410 686 l 1,21,22
 397 682 397 682 383 680 c 0,23,24
 371 678 371 678 353.5 677 c 128,-1,25
 336 676 336 676 317 676 c 0,26,27
 231 676 231 676 187 722 c 128,-1,28
 143 768 143 768 143 829 c 0,29,30
 143 946 143 946 258 1000.5 c 128,-1,31
 373 1055 373 1055 573 1055 c 0,32,33
 696 1055 696 1055 791.5 1022 c 128,-1,34
 887 989 887 989 952.5 928.5 c 128,-1,35
 1018 868 1018 868 1051.5 783 c 128,-1,36
 1085 698 1085 698 1085 594 c 2,37,-1
 1085 51 l 1,38,-1
 1249 31 l 1,39,-1
 1249 0 l 1,40,-1
 1055 0 l 2,41,42
 965 0 965 0 910.5 31.5 c 128,-1,43
 856 63 856 63 827 102 c 0,44,45
 793 147 793 147 778 205 c 1,46,47
 752 139 752 139 709 86 c 0,48,49
 672 41 672 41 610.5 5 c 128,-1,50
 549 -31 549 -31 461 -31 c 0,51,52
 268 -31 268 -31 164.5 57 c 128,-1,53
 61 145 61 145 61 307 c 0,0,1
389 1331 m 0,54,55
 389 1376 389 1376 405.5 1414 c 128,-1,56
 422 1452 422 1452 449.5 1479.5 c 128,-1,57
 477 1507 477 1507 514 1521.5 c 128,-1,58
 551 1536 551 1536 594 1536 c 256,59,60
 637 1536 637 1536 674 1521.5 c 128,-1,61
 711 1507 711 1507 738.5 1479.5 c 128,-1,62
 766 1452 766 1452 782.5 1414 c 128,-1,63
 799 1376 799 1376 799 1331 c 0,64,65
 799 1284 799 1284 782.5 1247 c 128,-1,66
 766 1210 766 1210 738.5 1182.5 c 128,-1,67
 711 1155 711 1155 674 1140.5 c 128,-1,68
 637 1126 637 1126 594 1126 c 256,69,70
 551 1126 551 1126 514 1140.5 c 128,-1,71
 477 1155 477 1155 449.5 1182.5 c 128,-1,72
 422 1210 422 1210 405.5 1247 c 128,-1,73
 389 1284 389 1284 389 1331 c 0,54,55
410 307 m 0,74,75
 410 162 410 162 449.5 101.5 c 128,-1,76
 489 41 489 41 543 41 c 0,77,78
 590 41 590 41 626 70.5 c 128,-1,79
 662 100 662 100 686 137 c 0,80,81
 715 180 715 180 737 236 c 1,82,-1
 737 502 l 1,83,84
 684 502 684 502 629.5 497 c 128,-1,85
 575 492 575 492 530 485 c 0,86,87
 477 477 477 477 430 471 c 1,88,89
 424 440 424 440 420 412 c 0,90,91
 416 387 416 387 413 358.5 c 128,-1,92
 410 330 410 330 410 307 c 0,74,75
481 1331 m 256,93,94
 481 1278 481 1278 514 1243 c 128,-1,95
 547 1208 547 1208 594 1208 c 256,96,97
 641 1208 641 1208 674 1243 c 128,-1,98
 707 1278 707 1278 707 1331 c 256,99,100
 707 1384 707 1384 674 1419 c 128,-1,101
 641 1454 641 1454 594 1454 c 256,102,103
 547 1454 547 1454 514 1419 c 128,-1,104
 481 1384 481 1384 481 1331 c 256,93,94
EndSplineSet
EndChar

StartChar: ae
Encoding: 230 230 168
Width: 1843
Flags: W
LayerCount: 2
Fore
SplineSet
61 287 m 0,0,1
 61 322 61 322 67.5 349.5 c 128,-1,2
 74 377 74 377 82 397 c 0,3,4
 90 420 90 420 102 440 c 1,5,6
 192 463 192 463 297 483 c 0,7,8
 385 499 385 499 499.5 513.5 c 128,-1,9
 614 528 614 528 737 532 c 1,10,-1
 737 594 l 2,11,12
 737 717 737 717 722 795.5 c 128,-1,13
 707 874 707 874 678 920.5 c 128,-1,14
 649 967 649 967 607 985.5 c 128,-1,15
 565 1004 565 1004 512 1004 c 0,16,17
 492 1004 492 1004 474.5 1001.5 c 128,-1,18
 457 999 457 999 442 997 c 2,19,-1
 410 993 l 1,20,-1
 410 686 l 1,21,22
 398 682 398 682 383 680 c 0,23,24
 371 678 371 678 353.5 677 c 128,-1,25
 336 676 336 676 317 676 c 0,26,27
 231 676 231 676 187 722 c 128,-1,28
 143 768 143 768 143 829 c 0,29,30
 143 886 143 886 172 929.5 c 128,-1,31
 201 973 201 973 253 1000.5 c 128,-1,32
 305 1028 305 1028 377 1041.5 c 128,-1,33
 449 1055 449 1055 532 1055 c 0,34,35
 641 1055 641 1055 712.5 1026 c 128,-1,36
 784 997 784 997 829 963 c 0,37,38
 882 922 882 922 911 870 c 1,39,40
 936 921 936 921 987 963 c 0,41,42
 1030 998 1030 998 1105 1026.5 c 128,-1,43
 1180 1055 1180 1055 1300 1055 c 0,44,45
 1411 1055 1411 1055 1497 1026 c 128,-1,46
 1583 997 1583 997 1641.5 950 c 128,-1,47
 1700 903 1700 903 1730.5 842.5 c 128,-1,48
 1761 782 1761 782 1761 717 c 0,49,50
 1761 686 1761 686 1755 658.5 c 128,-1,51
 1749 631 1749 631 1741 608 c 0,52,53
 1733 583 1733 583 1720 563 c 1,54,55
 1628 540 1628 540 1526 520 c 1,56,57
 1436 504 1436 504 1322 489.5 c 128,-1,58
 1208 475 1208 475 1085 471 c 1,59,60
 1089 348 1089 348 1109.5 262 c 128,-1,61
 1130 176 1130 176 1162 123 c 128,-1,62
 1194 70 1194 70 1238 45 c 128,-1,63
 1282 20 1282 20 1331 20 c 0,64,65
 1392 20 1392 20 1445.5 40.5 c 128,-1,66
 1499 61 1499 61 1543 94 c 128,-1,67
 1587 127 1587 127 1620 167 c 128,-1,68
 1653 207 1653 207 1673 246 c 1,69,-1
 1720 215 l 1,70,71
 1685 162 1685 162 1644.5 117 c 128,-1,72
 1604 72 1604 72 1551.5 39 c 128,-1,73
 1499 6 1499 6 1434.5 -12.5 c 128,-1,74
 1370 -31 1370 -31 1290 -31 c 0,75,76
 1108 -31 1108 -31 981 40 c 128,-1,77
 854 111 854 111 793 242 c 1,78,79
 785 215 785 215 763 169 c 128,-1,80
 741 123 741 123 703.5 79 c 128,-1,81
 666 35 666 35 606.5 2 c 128,-1,82
 547 -31 547 -31 461 -31 c 0,83,84
 268 -31 268 -31 164.5 54.5 c 128,-1,85
 61 140 61 140 61 287 c 0,0,1
410 287 m 0,86,87
 410 156 410 156 449.5 98.5 c 128,-1,88
 489 41 489 41 543 41 c 0,89,90
 590 41 590 41 626 70.5 c 128,-1,91
 662 100 662 100 686 137 c 0,92,93
 715 180 715 180 737 236 c 1,94,-1
 737 481 l 1,95,96
 684 481 684 481 629.5 476 c 128,-1,97
 575 471 575 471 530 465 c 0,98,99
 477 457 477 457 430 451 c 1,100,101
 424 420 424 420 420 391 c 0,102,103
 416 366 416 366 413 338 c 128,-1,104
 410 310 410 310 410 287 c 0,86,87
1085 522 m 1,105,106
 1138 522 1138 522 1192.5 526 c 128,-1,107
 1247 530 1247 530 1292 537 c 0,108,109
 1345 545 1345 545 1393 553 c 1,110,-1
 1403 614 l 2,111,112
 1407 641 1407 641 1410 674 c 128,-1,113
 1413 707 1413 707 1413 737 c 0,114,115
 1413 811 1413 811 1398.5 863 c 128,-1,116
 1384 915 1384 915 1362.5 949 c 128,-1,117
 1341 983 1341 983 1313.5 998.5 c 128,-1,118
 1286 1014 1286 1014 1260 1014 c 0,119,120
 1225 1014 1225 1014 1193 996.5 c 128,-1,121
 1161 979 1161 979 1137.5 934 c 128,-1,122
 1114 889 1114 889 1099.5 811 c 128,-1,123
 1085 733 1085 733 1085 614 c 2,124,-1
 1085 522 l 1,105,106
EndSplineSet
EndChar

StartChar: ccedilla
Encoding: 231 231 169
Width: 1126
Flags: W
LayerCount: 2
Fore
SplineSet
82 512 m 0,0,1
 82 653 82 653 127 756.5 c 128,-1,2
 172 860 172 860 248 925.5 c 128,-1,3
 324 991 324 991 424 1023 c 128,-1,4
 524 1055 524 1055 635 1055 c 0,5,6
 836 1055 836 1055 950.5 1000.5 c 128,-1,7
 1065 946 1065 946 1065 829 c 0,8,9
 1065 768 1065 768 1021 722 c 128,-1,10
 977 676 977 676 891 676 c 0,11,12
 871 676 871 676 854.5 677 c 128,-1,13
 838 678 838 678 825 680 c 0,14,15
 811 682 811 682 799 686 c 1,16,-1
 799 993 l 1,17,-1
 766 997 l 2,18,19
 752 999 752 999 733.5 1001.5 c 128,-1,20
 715 1004 715 1004 696 1004 c 0,21,22
 630 1004 630 1004 581 980 c 128,-1,23
 532 956 532 956 498.5 900 c 128,-1,24
 465 844 465 844 447.5 748.5 c 128,-1,25
 430 653 430 653 430 512 c 256,26,27
 430 371 430 371 446.5 275.5 c 128,-1,28
 463 180 463 180 494.5 124 c 128,-1,29
 526 68 526 68 572 44 c 128,-1,30
 618 20 618 20 676 20 c 0,31,32
 737 20 737 20 790.5 40.5 c 128,-1,33
 844 61 844 61 888 94 c 128,-1,34
 932 127 932 127 964.5 167 c 128,-1,35
 997 207 997 207 1018 246 c 1,36,-1
 1065 215 l 1,37,38
 1030 162 1030 162 989 117 c 128,-1,39
 948 72 948 72 896 39 c 128,-1,40
 844 6 844 6 779.5 -12.5 c 128,-1,41
 715 -31 715 -31 635 -31 c 2,42,-1
 625 -31 l 1,43,-1
 625 -102 l 1,44,45
 725 -102 725 -102 782.5 -144 c 128,-1,46
 840 -186 840 -186 840 -256 c 256,47,48
 840 -326 840 -326 782.5 -368 c 128,-1,49
 725 -410 725 -410 625 -410 c 2,50,-1
 532 -410 l 1,51,-1
 532 -369 l 1,52,-1
 573 -369 l 2,53,54
 620 -369 620 -369 653 -339 c 128,-1,55
 686 -309 686 -309 686 -256 c 256,56,57
 686 -203 686 -203 653.5 -173 c 128,-1,58
 621 -143 621 -143 573 -143 c 2,59,-1
 563 -143 l 1,60,-1
 563 -27 l 1,61,62
 463 -19 463 -19 376 18 c 128,-1,63
 289 55 289 55 223.5 120.5 c 128,-1,64
 158 186 158 186 120 283.5 c 128,-1,65
 82 381 82 381 82 512 c 0,0,1
EndSplineSet
EndChar

StartChar: idieresis
Encoding: 239 239 177
Width: 758
Flags: W
LayerCount: 2
Fore
SplineSet
61 0 m 1,0,-1
 61 31 l 1,1,-1
 225 51 l 1,2,-1
 225 973 l 1,3,-1
 61 993 l 1,4,-1
 61 1024 l 1,5,-1
 328 1024 l 2,6,7
 573 1024 573 1024 573 778 c 2,8,-1
 573 51 l 1,9,-1
 737 31 l 1,10,-1
 737 0 l 1,11,-1
 61 0 l 1,0,-1
66 1290 m 256,12,13
 66 1343 66 1343 100.5 1378 c 128,-1,14
 135 1413 135 1413 188 1413 c 0,15,16
 242 1413 242 1413 276.5 1378 c 128,-1,17
 311 1343 311 1343 311 1290 c 256,18,19
 311 1237 311 1237 276.5 1202 c 128,-1,20
 242 1167 242 1167 188 1167 c 0,21,22
 135 1167 135 1167 100.5 1202 c 128,-1,23
 66 1237 66 1237 66 1290 c 256,12,13
444 1290 m 256,24,25
 444 1343 444 1343 479 1378 c 128,-1,26
 514 1413 514 1413 569 1413 c 0,27,28
 623 1413 623 1413 656.5 1378 c 128,-1,29
 690 1343 690 1343 690 1290 c 256,30,31
 690 1237 690 1237 656.5 1202 c 128,-1,32
 623 1167 623 1167 569 1167 c 0,33,34
 514 1167 514 1167 479 1202 c 128,-1,35
 444 1237 444 1237 444 1290 c 256,24,25
EndSplineSet
EndChar

StartChar: eth
Encoding: 240 240 178
Width: 1270
Flags: W
LayerCount: 2
Fore
SplineSet
82 471 m 256,0,1
 82 598 82 598 123 692 c 128,-1,2
 164 786 164 786 234.5 848.5 c 128,-1,3
 305 911 305 911 397 942 c 128,-1,4
 489 973 489 973 594 973 c 0,5,6
 666 973 666 973 717 945.5 c 128,-1,7
 768 918 768 918 801 885 c 0,8,9
 838 848 838 848 860 799 c 1,10,11
 852 940 852 940 805 1050.5 c 128,-1,12
 758 1161 758 1161 680 1239 c 1,13,-1
 592 1085 l 1,14,-1
 547 1112 l 1,15,-1
 641 1276 l 1,16,17
 494 1393 494 1393 287 1393 c 1,18,-1
 287 1434 l 1,19,20
 514 1434 514 1434 694 1370 c 1,21,-1
 782 1520 l 1,22,-1
 827 1493 l 1,23,-1
 745 1350 l 1,24,25
 961 1257 961 1257 1074.5 1059.5 c 128,-1,26
 1188 862 1188 862 1188 553 c 0,27,28
 1188 395 1188 395 1143 284.5 c 128,-1,29
 1098 174 1098 174 1022 103.5 c 128,-1,30
 946 33 946 33 845.5 1 c 128,-1,31
 745 -31 745 -31 635 -31 c 0,32,33
 524 -31 524 -31 424 0 c 128,-1,34
 324 31 324 31 248 93.5 c 128,-1,35
 172 156 172 156 127 250 c 128,-1,36
 82 344 82 344 82 471 c 256,0,1
430 471 m 0,37,38
 430 340 430 340 446.5 252 c 128,-1,39
 463 164 463 164 490.5 109.5 c 128,-1,40
 518 55 518 55 555 32.5 c 128,-1,41
 592 10 592 10 635 10 c 256,42,43
 678 10 678 10 715 32.5 c 128,-1,44
 752 55 752 55 779.5 109.5 c 128,-1,45
 807 164 807 164 823.5 252 c 128,-1,46
 840 340 840 340 840 471 c 2,47,-1
 840 496 l 2,48,49
 840 608 840 608 820.5 691 c 128,-1,50
 801 774 801 774 768 827.5 c 128,-1,51
 735 881 735 881 695 906.5 c 128,-1,52
 655 932 655 932 614 932 c 0,53,54
 575 932 575 932 541.5 911.5 c 128,-1,55
 508 891 508 891 483.5 839.5 c 128,-1,56
 459 788 459 788 444.5 698 c 128,-1,57
 430 608 430 608 430 471 c 0,37,38
EndSplineSet
EndChar

StartChar: divide
Encoding: 247 247 185
Width: 1085
Flags: W
LayerCount: 2
Fore
SplineSet
61 635 m 1,0,-1
 61 727 l 1,1,-1
 1024 727 l 1,2,-1
 1024 635 l 1,3,-1
 61 635 l 1,0,-1
410 348 m 256,4,5
 410 407 410 407 446.5 444 c 128,-1,6
 483 481 483 481 543 481 c 0,7,8
 602 481 602 481 639 444.5 c 128,-1,9
 676 408 676 408 676 348 c 0,10,11
 676 289 676 289 639 252 c 128,-1,12
 602 215 602 215 543 215 c 256,13,14
 484 215 484 215 447 252 c 128,-1,15
 410 289 410 289 410 348 c 256,4,5
410 1014 m 256,16,17
 410 1073 410 1073 446.5 1110 c 128,-1,18
 483 1147 483 1147 543 1147 c 0,19,20
 602 1147 602 1147 639 1110 c 128,-1,21
 676 1073 676 1073 676 1014 c 256,22,23
 676 955 676 955 639 918 c 128,-1,24
 602 881 602 881 543 881 c 256,25,26
 484 881 484 881 447 918 c 128,-1,27
 410 955 410 955 410 1014 c 256,16,17
EndSplineSet
EndChar

StartChar: oslash
Encoding: 248 248 186
Width: 1270
Flags: W
LayerCount: 2
Fore
SplineSet
82 512 m 0,0,1
 82 653 82 653 127 756.5 c 128,-1,2
 172 860 172 860 248 925.5 c 128,-1,3
 324 991 324 991 424 1023 c 128,-1,4
 524 1055 524 1055 635 1055 c 0,5,6
 815 1055 815 1055 954 975 c 1,7,-1
 993 1024 l 1,8,-1
 1085 1024 l 1,9,-1
 1014 932 l 1,10,11
 1094 866 1094 866 1141 762.5 c 128,-1,12
 1188 659 1188 659 1188 512 c 0,13,14
 1188 371 1188 371 1143 267.5 c 128,-1,15
 1098 164 1098 164 1022 98.5 c 128,-1,16
 946 33 946 33 845.5 1 c 128,-1,17
 745 -31 745 -31 635 -31 c 0,18,19
 549 -31 549 -31 469 -12.5 c 128,-1,20
 389 6 389 6 322 45 c 1,21,-1
 287 0 l 1,22,-1
 184 0 l 1,23,-1
 256 90 l 1,24,25
 176 156 176 156 129 260.5 c 128,-1,26
 82 365 82 365 82 512 c 0,0,1
430 512 m 0,27,28
 430 457 430 457 432 409.5 c 128,-1,29
 434 362 434 362 438 322 c 1,30,-1
 815 799 l 1,31,32
 788 920 788 920 741 967 c 128,-1,33
 694 1014 694 1014 635 1014 c 0,34,35
 592 1014 592 1014 555 990.5 c 128,-1,36
 518 967 518 967 490.5 909.5 c 128,-1,37
 463 852 463 852 446.5 754.5 c 128,-1,38
 430 657 430 657 430 512 c 0,27,28
457 217 m 1,39,40
 483 100 483 100 529 55 c 128,-1,41
 575 10 575 10 635 10 c 0,42,43
 678 10 678 10 715 33.5 c 128,-1,44
 752 57 752 57 779.5 114.5 c 128,-1,45
 807 172 807 172 823.5 269.5 c 128,-1,46
 840 367 840 367 840 512 c 0,47,48
 840 565 840 565 838 610 c 128,-1,49
 836 655 836 655 831 696 c 1,50,-1
 457 217 l 1,39,40
EndSplineSet
EndChar

StartChar: thorn
Encoding: 254 254 192
Width: 1311
Flags: W
LayerCount: 2
Fore
SplineSet
20 -379 m 1,0,-1
 184 -358 l 1,1,-1
 184 1382 l 1,2,-1
 20 1403 l 1,3,-1
 20 1434 l 1,4,-1
 287 1434 l 2,5,6
 532 1434 532 1434 532 1188 c 2,7,-1
 532 897 l 1,8,9
 549 924 549 924 572.5 951.5 c 128,-1,10
 596 979 596 979 630 1001.5 c 128,-1,11
 664 1024 664 1024 709 1039.5 c 128,-1,12
 754 1055 754 1055 809 1055 c 0,13,14
 874 1055 874 1055 948 1023 c 128,-1,15
 1022 991 1022 991 1084.5 925.5 c 128,-1,16
 1147 860 1147 860 1188 756.5 c 128,-1,17
 1229 653 1229 653 1229 512 c 256,18,19
 1229 371 1229 371 1196 267.5 c 128,-1,20
 1163 164 1163 164 1106 98.5 c 128,-1,21
 1049 33 1049 33 970 1 c 128,-1,22
 891 -31 891 -31 799 -31 c 0,23,24
 739 -31 739 -31 691 -16.5 c 128,-1,25
 643 -2 643 -2 608 14 c 1,26,27
 567 35 567 35 532 61 c 1,28,-1
 532 -358 l 1,29,-1
 696 -379 l 1,30,-1
 696 -410 l 1,31,-1
 20 -410 l 1,32,-1
 20 -379 l 1,0,-1
532 123 m 1,33,-1
 551 109 l 1,34,35
 567 94 567 94 594 76.5 c 128,-1,36
 621 59 621 59 653.5 45 c 128,-1,37
 686 31 686 31 717 31 c 0,38,39
 756 31 756 31 785.5 55.5 c 128,-1,40
 815 80 815 80 836.5 137.5 c 128,-1,41
 858 195 858 195 869.5 286 c 128,-1,42
 881 377 881 377 881 512 c 256,43,44
 881 647 881 647 869.5 737 c 128,-1,45
 858 827 858 827 838.5 881.5 c 128,-1,46
 819 936 819 936 790.5 959.5 c 128,-1,47
 762 983 762 983 727 983 c 0,48,49
 680 983 680 983 644 952.5 c 128,-1,50
 608 922 608 922 584 885 c 0,51,52
 555 842 555 842 532 788 c 1,53,-1
 532 123 l 1,33,-1
EndSplineSet
EndChar

StartChar: hbar
Encoding: 295 295 194
Width: 1454
Flags: W
LayerCount: 2
Fore
SplineSet
41 0 m 1,0,-1
 41 31 l 1,1,-1
 205 51 l 1,2,-1
 205 1065 l 1,3,-1
 41 1085 l 1,4,-1
 41 1126 l 1,5,-1
 205 1126 l 1,6,-1
 205 1382 l 1,7,-1
 41 1403 l 1,8,-1
 41 1434 l 1,9,-1
 307 1434 l 2,10,11
 553 1434 553 1434 553 1188 c 2,12,-1
 553 1126 l 1,13,-1
 922 1126 l 1,14,-1
 922 1085 l 1,15,-1
 553 1065 l 1,16,-1
 553 766 l 1,17,18
 571 791 571 791 598 820.5 c 128,-1,19
 625 850 625 850 661.5 874.5 c 128,-1,20
 698 899 698 899 745.5 915.5 c 128,-1,21
 793 932 793 932 850 932 c 0,22,23
 1043 932 1043 932 1146 844 c 128,-1,24
 1249 756 1249 756 1249 594 c 2,25,-1
 1249 51 l 1,26,-1
 1413 31 l 1,27,-1
 1413 0 l 1,28,-1
 1147 0 l 2,29,30
 901 0 901 0 901 246 c 2,31,-1
 901 594 l 2,32,33
 901 739 901 739 861 799.5 c 128,-1,34
 821 860 821 860 768 860 c 256,35,36
 715 860 715 860 674 829.5 c 128,-1,37
 633 799 633 799 606 762 c 1,38,39
 573 719 573 719 553 666 c 1,40,-1
 553 51 l 1,41,-1
 696 31 l 1,42,-1
 696 0 l 1,43,-1
 41 0 l 1,0,-1
EndSplineSet
EndChar

StartChar: itilde
Encoding: 297 297 196
Width: 758
Flags: W
LayerCount: 2
Fore
SplineSet
61 0 m 1,0,-1
 61 31 l 1,1,-1
 225 51 l 1,2,-1
 225 973 l 1,3,-1
 61 993 l 1,4,-1
 61 1024 l 1,5,-1
 328 1024 l 2,6,7
 573 1024 573 1024 573 778 c 2,8,-1
 573 51 l 1,9,-1
 737 31 l 1,10,-1
 737 0 l 1,11,-1
 61 0 l 1,0,-1
72 1188 m 1,12,13
 74 1251 74 1251 94 1305 c 0,14,15
 111 1350 111 1350 148.5 1386.5 c 128,-1,16
 186 1423 186 1423 256 1423 c 0,17,18
 301 1423 301 1423 333 1407 c 128,-1,19
 365 1391 365 1391 389 1372 c 2,20,-1
 436 1337 l 1,21,22
 461 1321 461 1321 492 1321 c 0,23,24
 530 1321 530 1321 554 1335.5 c 128,-1,25
 578 1350 578 1350 592 1366 c 0,26,27
 608 1386 608 1386 614 1413 c 1,28,-1
 645 1413 l 1,29,30
 643 1348 643 1348 623 1294 c 0,31,32
 606 1249 606 1249 568 1213.5 c 128,-1,33
 530 1178 530 1178 461 1178 c 0,34,35
 414 1178 414 1178 383 1194 c 128,-1,36
 352 1210 352 1210 328 1229 c 2,37,-1
 281 1264 l 1,38,39
 256 1280 256 1280 225 1280 c 0,40,41
 186 1280 186 1280 162.5 1264.5 c 128,-1,42
 139 1249 139 1249 125 1233 c 1,43,44
 109 1212 109 1212 102 1188 c 1,45,-1
 72 1188 l 1,12,13
EndSplineSet
EndChar

StartChar: dotlessi
Encoding: 305 305 197
Width: 758
Flags: W
LayerCount: 2
Fore
SplineSet
61 0 m 1,0,-1
 61 31 l 1,1,-1
 225 51 l 1,2,-1
 225 973 l 1,3,-1
 61 993 l 1,4,-1
 61 1024 l 1,5,-1
 328 1024 l 2,6,7
 573 1024 573 1024 573 778 c 2,8,-1
 573 51 l 1,9,-1
 737 31 l 1,10,-1
 737 0 l 1,11,-1
 61 0 l 1,0,-1
EndSplineSet
EndChar

StartChar: jcircumflex
Encoding: 309 309 200
Width: 758
Flags: W
LayerCount: 2
Fore
SplineSet
-266 -225 m 0,0,1
 -266 -164 -266 -164 -222 -118 c 128,-1,2
 -178 -72 -178 -72 -92 -72 c 0,3,4
 -74 -72 -74 -72 -58.5 -74 c 128,-1,5
 -43 -76 -43 -76 -33 -78 c 0,6,7
 -20 -80 -20 -80 -10 -82 c 1,8,-1
 -10 -379 l 1,9,10
 2 -383 2 -383 14 -385 c 0,11,12
 25 -387 25 -387 37 -388 c 128,-1,13
 49 -389 49 -389 61 -389 c 0,14,15
 100 -389 100 -389 134 -374.5 c 128,-1,16
 168 -360 168 -360 192.5 -317 c 128,-1,17
 217 -274 217 -274 231.5 -198.5 c 128,-1,18
 246 -123 246 -123 246 0 c 2,19,-1
 246 973 l 1,20,-1
 82 993 l 1,21,-1
 82 1024 l 1,22,-1
 348 1024 l 2,23,24
 594 1024 594 1024 594 778 c 2,25,-1
 594 0 l 2,26,27
 594 -104 594 -104 560 -185 c 128,-1,28
 526 -266 526 -266 464.5 -323.5 c 128,-1,29
 403 -381 403 -381 316 -410.5 c 128,-1,30
 229 -440 229 -440 123 -440 c 0,31,32
 39 -440 39 -440 -32.5 -428 c 128,-1,33
 -104 -416 -104 -416 -156.5 -390.5 c 128,-1,34
 -209 -365 -209 -365 -237.5 -324 c 128,-1,35
 -266 -283 -266 -283 -266 -225 c 0,0,1
61 1147 m 1,36,-1
 328 1475 l 1,37,-1
 430 1475 l 1,38,-1
 696 1147 l 1,39,-1
 606 1147 l 1,40,-1
 379 1333 l 1,41,-1
 152 1147 l 1,42,-1
 61 1147 l 1,36,-1
EndSplineSet
EndChar

StartChar: kcommaaccent
Encoding: 311 311 201
Width: 1280
Flags: W
LayerCount: 2
Fore
SplineSet
41 0 m 1,0,-1
 41 31 l 1,1,-1
 205 51 l 1,2,-1
 205 1382 l 1,3,-1
 41 1403 l 1,4,-1
 41 1434 l 1,5,-1
 307 1434 l 2,6,7
 553 1434 553 1434 553 1188 c 2,8,-1
 553 532 l 1,9,-1
 983 973 l 1,10,-1
 778 993 l 1,11,-1
 778 1024 l 1,12,-1
 1239 1024 l 1,13,-1
 1239 993 l 1,14,-1
 1055 973 l 1,15,-1
 778 690 l 1,16,-1
 1208 51 l 1,17,-1
 1321 31 l 1,18,-1
 1321 0 l 1,19,-1
 1024 0 l 2,20,21
 932 0 932 0 869.5 45 c 128,-1,22
 807 90 807 90 737 195 c 2,23,-1
 553 471 l 1,24,-1
 553 51 l 1,25,-1
 717 31 l 1,26,-1
 717 0 l 1,27,-1
 41 0 l 1,0,-1
573 -258 m 0,28,29
 573 -199 573 -199 609 -161 c 128,-1,30
 645 -123 645 -123 698 -123 c 0,31,32
 757 -123 757 -123 798.5 -164 c 128,-1,33
 840 -205 840 -205 840 -289 c 0,34,35
 840 -393 840 -393 808 -453.5 c 128,-1,36
 776 -514 776 -514 737 -545 c 0,37,38
 692 -582 692 -582 637 -594 c 1,39,-1
 618 -563 l 1,40,41
 659 -551 659 -551 696 -524 c 1,42,43
 725 -501 725 -501 752.5 -461.5 c 128,-1,44
 780 -422 780 -422 784 -360 c 1,45,46
 774 -368 774 -368 760 -375 c 0,47,48
 731 -389 731 -389 698 -389 c 0,49,50
 645 -389 645 -389 609 -352 c 128,-1,51
 573 -315 573 -315 573 -258 c 0,28,29
EndSplineSet
EndChar

StartChar: kgreenlandic
Encoding: 312 312 202
Width: 1280
Flags: W
LayerCount: 2
Fore
SplineSet
41 0 m 1,0,-1
 41 31 l 1,1,-1
 205 51 l 1,2,-1
 205 973 l 1,3,-1
 41 993 l 1,4,-1
 41 1024 l 1,5,-1
 307 1024 l 2,6,7
 553 1024 553 1024 553 778 c 2,8,-1
 553 512 l 1,9,-1
 983 973 l 1,10,-1
 778 993 l 1,11,-1
 778 1024 l 1,12,-1
 1239 1024 l 1,13,-1
 1239 993 l 1,14,-1
 1055 973 l 1,15,-1
 768 666 l 1,16,-1
 1208 51 l 1,17,-1
 1321 31 l 1,18,-1
 1321 0 l 1,19,-1
 1024 0 l 2,20,21
 932 0 932 0 870.5 47 c 128,-1,22
 809 94 809 94 737 195 c 2,23,-1
 553 451 l 1,24,-1
 553 51 l 1,25,-1
 717 31 l 1,26,-1
 717 0 l 1,27,-1
 41 0 l 1,0,-1
EndSplineSet
EndChar

StartChar: ldot
Encoding: 320 320 203
Width: 1106
Flags: W
LayerCount: 2
Fore
SplineSet
41 0 m 1,0,-1
 41 31 l 1,1,-1
 205 51 l 1,2,-1
 205 1382 l 1,3,-1
 41 1403 l 1,4,-1
 41 1434 l 1,5,-1
 307 1434 l 2,6,7
 553 1434 553 1434 553 1188 c 2,8,-1
 553 51 l 1,9,-1
 717 31 l 1,10,-1
 717 0 l 1,11,-1
 41 0 l 1,0,-1
696 717 m 0,12,13
 696 788 696 788 742 834.5 c 128,-1,14
 788 881 788 881 860 881 c 256,15,16
 932 881 932 881 978 834.5 c 128,-1,17
 1024 788 1024 788 1024 717 c 0,18,19
 1024 645 1024 645 978 599 c 128,-1,20
 932 553 932 553 860 553 c 256,21,22
 788 553 788 553 742 599 c 128,-1,23
 696 645 696 645 696 717 c 0,12,13
EndSplineSet
EndChar

StartChar: Lslash
Encoding: 321 321 204
Width: 1362
Flags: W
LayerCount: 2
Fore
SplineSet
61 543 m 1,0,-1
 61 614 l 1,1,-1
 246 719 l 1,2,-1
 246 1382 l 1,3,-1
 82 1403 l 1,4,-1
 82 1434 l 1,5,-1
 737 1434 l 1,6,-1
 737 1403 l 1,7,-1
 594 1382 l 1,8,-1
 594 918 l 1,9,-1
 778 1024 l 1,10,-1
 778 952 l 1,11,-1
 594 846 l 1,12,-1
 594 51 l 1,13,-1
 1106 51 l 1,14,15
 1110 123 1110 123 1130.5 185.5 c 128,-1,16
 1151 248 1151 248 1176 293 c 1,17,18
 1204 346 1204 346 1239 389 c 1,19,-1
 1300 389 l 1,20,-1
 1300 0 l 1,21,-1
 82 0 l 1,22,-1
 82 31 l 1,23,-1
 246 51 l 1,24,-1
 246 647 l 1,25,-1
 61 543 l 1,0,-1
EndSplineSet
EndChar

StartChar: lslash
Encoding: 322 322 205
Width: 737
Flags: W
LayerCount: 2
Fore
SplineSet
20 543 m 1,0,-1
 20 614 l 1,1,-1
 205 719 l 1,2,-1
 205 1382 l 1,3,-1
 41 1403 l 1,4,-1
 41 1434 l 1,5,-1
 307 1434 l 2,6,7
 553 1434 553 1434 553 1188 c 2,8,-1
 553 918 l 1,9,-1
 737 1024 l 1,10,-1
 737 952 l 1,11,-1
 553 846 l 1,12,-1
 553 51 l 1,13,-1
 717 31 l 1,14,-1
 717 0 l 1,15,-1
 41 0 l 1,16,-1
 41 31 l 1,17,-1
 205 51 l 1,18,-1
 205 647 l 1,19,-1
 20 543 l 1,0,-1
EndSplineSet
EndChar

StartChar: OE
Encoding: 338 338 208
Width: 2120
Flags: W
LayerCount: 2
Fore
SplineSet
102 717 m 0,0,1
 102 909 102 909 163.5 1045.5 c 128,-1,2
 225 1182 225 1182 321.5 1268 c 128,-1,3
 418 1354 418 1354 538.5 1394 c 128,-1,4
 659 1434 659 1434 778 1434 c 2,5,-1
 2017 1434 l 1,6,-1
 2017 1044 l 1,7,-1
 1956 1044 l 1,8,9
 1921 1087 1921 1087 1892 1141 c 0,10,11
 1868 1186 1868 1186 1847.5 1247.5 c 128,-1,12
 1827 1309 1827 1309 1823 1382 c 1,13,-1
 1311 1382 l 1,14,-1
 1311 758 l 1,15,-1
 1587 758 l 1,16,17
 1591 784 1591 784 1600.5 819 c 128,-1,18
 1610 854 1610 854 1622 890 c 128,-1,19
 1634 926 1634 926 1648.5 958.5 c 128,-1,20
 1663 991 1663 991 1679 1014 c 1,21,-1
 1731 1014 l 1,22,-1
 1731 451 l 1,23,-1
 1679 451 l 1,24,25
 1663 473 1663 473 1648.5 506 c 128,-1,26
 1634 539 1634 539 1622 574.5 c 128,-1,27
 1610 610 1610 610 1600.5 645 c 128,-1,28
 1591 680 1591 680 1587 707 c 1,29,-1
 1311 707 l 1,30,-1
 1311 51 l 1,31,-1
 1823 51 l 1,32,33
 1827 123 1827 123 1847.5 185.5 c 128,-1,34
 1868 248 1868 248 1892 293 c 0,35,36
 1921 346 1921 346 1956 389 c 1,37,-1
 2017 389 l 1,38,-1
 2017 0 l 1,39,-1
 778 0 l 2,40,41
 659 0 659 0 538.5 40 c 128,-1,42
 418 80 418 80 321.5 166 c 128,-1,43
 225 252 225 252 163.5 388 c 128,-1,44
 102 524 102 524 102 717 c 0,0,1
461 717 m 0,45,46
 461 528 461 528 490.5 401 c 128,-1,47
 520 274 520 274 566 196.5 c 128,-1,48
 612 119 612 119 668.5 85 c 128,-1,49
 725 51 725 51 778 51 c 2,50,-1
 963 51 l 1,51,-1
 963 1382 l 1,52,-1
 778 1382 l 2,53,54
 725 1382 725 1382 668.5 1348.5 c 128,-1,55
 612 1315 612 1315 566 1237 c 128,-1,56
 520 1159 520 1159 490.5 1032 c 128,-1,57
 461 905 461 905 461 717 c 0,45,46
EndSplineSet
EndChar

StartChar: oe
Encoding: 339 339 209
Width: 1966
Flags: W
LayerCount: 2
Fore
SplineSet
82 512 m 256,0,1
 82 653 82 653 126 756.5 c 128,-1,2
 170 860 170 860 241.5 925.5 c 128,-1,3
 313 991 313 991 405.5 1023 c 128,-1,4
 498 1055 498 1055 594 1055 c 0,5,6
 717 1055 717 1055 798 1026 c 128,-1,7
 879 997 879 997 926 963 c 0,8,9
 981 922 981 922 1014 870 c 1,10,11
 1039 921 1039 921 1090 963 c 0,12,13
 1133 998 1133 998 1207.5 1026.5 c 128,-1,14
 1282 1055 1282 1055 1403 1055 c 0,15,16
 1522 1055 1522 1055 1612 1026 c 128,-1,17
 1702 997 1702 997 1762.5 950 c 128,-1,18
 1823 903 1823 903 1853.5 842.5 c 128,-1,19
 1884 782 1884 782 1884 717 c 0,20,21
 1884 686 1884 686 1878 658.5 c 128,-1,22
 1872 631 1872 631 1864 608 c 0,23,24
 1856 583 1856 583 1843 563 c 1,25,26
 1747 540 1747 540 1638 520 c 0,27,28
 1546 504 1546 504 1428.5 489.5 c 128,-1,29
 1311 475 1311 475 1188 471 c 1,30,31
 1192 348 1192 348 1212.5 262 c 128,-1,32
 1233 176 1233 176 1264.5 123 c 128,-1,33
 1296 70 1296 70 1340 45 c 128,-1,34
 1384 20 1384 20 1434 20 c 0,35,36
 1495 20 1495 20 1548.5 40.5 c 128,-1,37
 1602 61 1602 61 1646 94 c 128,-1,38
 1690 127 1690 127 1722.5 167 c 128,-1,39
 1755 207 1755 207 1776 246 c 1,40,-1
 1823 215 l 1,41,42
 1753 106 1753 106 1656 37.5 c 128,-1,43
 1559 -31 1559 -31 1413 -31 c 0,44,45
 1290 -31 1290 -31 1212.5 -2 c 128,-1,46
 1135 27 1135 27 1090 61 c 0,47,48
 1037 100 1037 100 1014 154 c 1,49,50
 981 101 981 101 926 61 c 0,51,52
 879 26 879 26 798 -2.5 c 128,-1,53
 717 -31 717 -31 594 -31 c 0,54,55
 498 -31 498 -31 405.5 1 c 128,-1,56
 313 33 313 33 241.5 98.5 c 128,-1,57
 170 164 170 164 126 267.5 c 128,-1,58
 82 371 82 371 82 512 c 256,0,1
430 512 m 256,59,60
 430 367 430 367 446.5 269.5 c 128,-1,61
 463 172 463 172 490.5 114.5 c 128,-1,62
 518 57 518 57 555 33.5 c 128,-1,63
 592 10 592 10 635 10 c 256,64,65
 678 10 678 10 715 33.5 c 128,-1,66
 752 57 752 57 779.5 114.5 c 128,-1,67
 807 172 807 172 823.5 269.5 c 128,-1,68
 840 367 840 367 840 512 c 2,69,-1
 840 537 l 1,70,71
 838 674 838 674 821.5 766 c 128,-1,72
 805 858 805 858 777.5 913.5 c 128,-1,73
 750 969 750 969 713 991.5 c 128,-1,74
 676 1014 676 1014 635 1014 c 0,75,76
 592 1014 592 1014 555 990.5 c 128,-1,77
 518 967 518 967 490.5 909.5 c 128,-1,78
 463 852 463 852 446.5 754.5 c 128,-1,79
 430 657 430 657 430 512 c 256,59,60
1188 522 m 1,80,81
 1241 522 1241 522 1299.5 526 c 128,-1,82
 1358 530 1358 530 1405 537 c 2,83,-1
 1516 553 l 1,84,-1
 1526 614 l 2,85,86
 1530 641 1530 641 1533 674 c 128,-1,87
 1536 707 1536 707 1536 737 c 0,88,89
 1536 882 1536 882 1484 948 c 128,-1,90
 1432 1014 1432 1014 1362 1014 c 0,91,92
 1327 1014 1327 1014 1295.5 996.5 c 128,-1,93
 1264 979 1264 979 1240.5 934 c 128,-1,94
 1217 889 1217 889 1202.5 811 c 128,-1,95
 1188 733 1188 733 1188 614 c 2,96,-1
 1188 522 l 1,80,81
EndSplineSet
EndChar

StartChar: Rcommaaccent
Encoding: 342 342 211
Width: 1485
Flags: W
LayerCount: 2
Fore
SplineSet
82 0 m 1,0,-1
 82 31 l 1,1,-1
 246 51 l 1,2,-1
 246 1382 l 1,3,-1
 82 1403 l 1,4,-1
 82 1434 l 1,5,-1
 758 1434 l 2,6,7
 903 1434 903 1434 1014.5 1404 c 128,-1,8
 1126 1374 1126 1374 1201 1322 c 128,-1,9
 1276 1270 1276 1270 1314 1196 c 128,-1,10
 1352 1122 1352 1122 1352 1034 c 0,11,12
 1352 864 1352 864 1232 768 c 128,-1,13
 1112 672 1112 672 881 655 c 1,14,15
 930 645 930 645 981 623 c 1,16,17
 1024 602 1024 602 1071 564 c 128,-1,18
 1118 526 1118 526 1157 461 c 1,19,-1
 1393 51 l 1,20,-1
 1505 31 l 1,21,-1
 1505 0 l 1,22,-1
 1229 0 l 2,23,24
 1120 0 1120 0 1046.5 48 c 128,-1,25
 973 96 973 96 911 205 c 2,26,-1
 666 635 l 1,27,-1
 594 635 l 1,28,-1
 594 51 l 1,29,-1
 758 31 l 1,30,-1
 758 0 l 1,31,-1
 82 0 l 1,0,-1
594 686 m 1,32,-1
 717 686 l 2,33,34
 848 686 848 686 926 779 c 128,-1,35
 1004 872 1004 872 1004 1034 c 256,36,37
 1004 1196 1004 1196 926 1289 c 128,-1,38
 848 1382 848 1382 717 1382 c 2,39,-1
 594 1382 l 1,40,-1
 594 686 l 1,32,-1
696 -258 m 0,41,42
 696 -199 696 -199 732 -161 c 128,-1,43
 768 -123 768 -123 821 -123 c 0,44,45
 881 -123 881 -123 922 -164 c 128,-1,46
 963 -205 963 -205 963 -289 c 0,47,48
 963 -393 963 -393 931 -453.5 c 128,-1,49
 899 -514 899 -514 860 -545 c 0,50,51
 815 -582 815 -582 760 -594 c 1,52,-1
 741 -563 l 1,53,54
 782 -551 782 -551 819 -524 c 0,55,56
 848 -502 848 -502 875.5 -462 c 128,-1,57
 903 -422 903 -422 907 -360 c 1,58,59
 897 -369 897 -369 883 -375 c 0,60,61
 854 -389 854 -389 821 -389 c 0,62,63
 768 -389 768 -389 732 -352 c 128,-1,64
 696 -315 696 -315 696 -258 c 0,41,42
EndSplineSet
EndChar

StartChar: rcommaaccent
Encoding: 343 343 212
Width: 1167
Flags: W
LayerCount: 2
Fore
SplineSet
61 0 m 1,0,-1
 61 31 l 1,1,-1
 225 51 l 1,2,-1
 225 973 l 1,3,-1
 61 993 l 1,4,-1
 61 1024 l 1,5,-1
 256 1024 l 2,6,7
 344 1024 344 1024 399.5 992.5 c 128,-1,8
 455 961 455 961 483 922 c 1,9,10
 518 877 518 877 532 819 c 1,11,12
 573 878 573 878 627 926 c 0,13,14
 672 967 672 967 735.5 1000.5 c 128,-1,15
 799 1034 799 1034 881 1034 c 0,16,17
 1004 1034 1004 1034 1065 983 c 128,-1,18
 1126 932 1126 932 1126 840 c 0,19,20
 1126 779 1126 779 1082 732.5 c 128,-1,21
 1038 686 1038 686 952 686 c 0,22,23
 932 686 932 686 915.5 687 c 128,-1,24
 899 688 899 688 887 690 c 0,25,26
 873 692 873 692 860 696 c 1,27,-1
 860 983 l 1,28,29
 801 983 801 983 750.5 952.5 c 128,-1,30
 700 922 700 922 659 885 c 0,31,32
 612 842 612 842 573 788 c 1,33,-1
 573 51 l 1,34,-1
 737 31 l 1,35,-1
 737 0 l 1,36,-1
 61 0 l 1,0,-1
287 -279 m 0,37,38
 287 -220 287 -220 322.5 -181.5 c 128,-1,39
 358 -143 358 -143 412 -143 c 0,40,41
 471 -143 471 -143 512 -184 c 128,-1,42
 553 -225 553 -225 553 -309 c 0,43,44
 553 -413 553 -413 521 -474 c 128,-1,45
 489 -535 489 -535 451 -565 c 0,46,47
 406 -602 406 -602 350 -614 c 1,48,-1
 332 -584 l 1,49,50
 373 -572 373 -572 410 -545 c 1,51,52
 439 -522 439 -522 466.5 -482 c 128,-1,53
 494 -442 494 -442 498 -381 c 1,54,55
 488 -389 488 -389 473 -395 c 1,56,57
 444 -409 444 -409 412 -410 c 1,58,59
 359 -410 359 -410 323 -373 c 128,-1,60
 287 -336 287 -336 287 -279 c 0,37,38
EndSplineSet
EndChar

StartChar: florin
Encoding: 402 402 220
Width: 1188
Flags: W
LayerCount: 2
Fore
SplineSet
20 -143 m 1,0,-1
 72 -133 l 1,1,2
 88 -250 88 -250 142.5 -309.5 c 128,-1,3
 197 -369 197 -369 266 -369 c 0,4,5
 297 -369 297 -369 326.5 -352.5 c 128,-1,6
 356 -336 356 -336 378.5 -296 c 128,-1,7
 401 -256 401 -256 415.5 -191.5 c 128,-1,8
 430 -127 430 -127 430 -31 c 2,9,-1
 430 891 l 1,10,-1
 266 911 l 1,11,-1
 266 952 l 1,12,-1
 430 952 l 1,13,-1
 430 1024 l 2,14,15
 430 1128 430 1128 463 1209 c 128,-1,16
 496 1290 496 1290 557 1347.5 c 128,-1,17
 618 1405 618 1405 705.5 1434.5 c 128,-1,18
 793 1464 793 1464 901 1464 c 0,19,20
 985 1464 985 1464 1056.5 1452 c 128,-1,21
 1128 1440 1128 1440 1180.5 1414.5 c 128,-1,22
 1233 1389 1233 1389 1261.5 1348 c 128,-1,23
 1290 1307 1290 1307 1290 1249 c 0,24,25
 1290 1188 1290 1188 1246 1142 c 128,-1,26
 1202 1096 1202 1096 1116 1096 c 0,27,28
 1096 1096 1096 1096 1081.5 1097 c 128,-1,29
 1067 1098 1067 1098 1057 1100 c 0,30,31
 1044 1102 1044 1102 1034 1106 c 1,32,-1
 1034 1403 l 1,33,-1
 1010 1407 l 2,34,35
 999 1409 999 1409 986 1411 c 128,-1,36
 973 1413 973 1413 963 1413 c 0,37,38
 924 1413 924 1413 890 1398.5 c 128,-1,39
 856 1384 856 1384 831.5 1341 c 128,-1,40
 807 1298 807 1298 792.5 1222.5 c 128,-1,41
 778 1147 778 1147 778 1024 c 2,42,-1
 778 952 l 1,43,-1
 1147 952 l 1,44,-1
 1147 911 l 1,45,-1
 778 891 l 1,46,-1
 778 -31 l 2,47,48
 778 -207 778 -207 670.5 -314.5 c 128,-1,49
 563 -422 563 -422 348 -422 c 0,50,51
 268 -422 268 -422 212 -404.5 c 128,-1,52
 156 -387 156 -387 119 -352 c 128,-1,53
 82 -317 82 -317 58.5 -265 c 128,-1,54
 35 -213 35 -213 20 -143 c 1,0,-1
EndSplineSet
EndChar

StartChar: circumflex
Encoding: 710 710 221
Width: 635
Flags: W
LayerCount: 2
Fore
SplineSet
0 1434 m 1,0,-1
 266 1761 l 1,1,-1
 369 1761 l 1,2,-1
 635 1434 l 1,3,-1
 545 1434 l 1,4,-1
 317 1620 l 1,5,-1
 90 1434 l 1,6,-1
 0 1434 l 1,0,-1
EndSplineSet
EndChar

StartChar: caron
Encoding: 711 711 222
Width: 635
Flags: W
LayerCount: 2
Fore
SplineSet
0 1761 m 1,0,-1
 90 1761 l 1,1,-1
 317 1575 l 1,2,-1
 545 1761 l 1,3,-1
 635 1761 l 1,4,-1
 369 1434 l 1,5,-1
 266 1434 l 1,6,-1
 0 1761 l 1,0,-1
EndSplineSet
EndChar

StartChar: tilde
Encoding: 732 732 223
Width: 594
Flags: W
LayerCount: 2
Fore
SplineSet
10 1434 m 1,0,1
 12 1497 12 1497 33 1550 c 1,2,3
 49 1595 49 1595 87 1632 c 128,-1,4
 125 1669 125 1669 195 1669 c 0,5,6
 240 1669 240 1669 271.5 1652.5 c 128,-1,7
 303 1636 303 1636 328 1618 c 2,8,-1
 377 1583 l 2,9,10
 399 1567 399 1567 430 1567 c 0,11,12
 469 1567 469 1567 492.5 1581 c 128,-1,13
 516 1595 516 1595 530 1612 c 0,14,15
 547 1632 547 1632 553 1659 c 1,16,-1
 584 1659 l 1,17,18
 582 1593 582 1593 561 1540 c 1,19,20
 545 1495 545 1495 507 1459 c 128,-1,21
 469 1423 469 1423 399 1423 c 0,22,23
 352 1423 352 1423 321.5 1439.5 c 128,-1,24
 291 1456 291 1456 266 1475 c 1,25,-1
 217 1509 l 1,26,27
 195 1526 195 1526 164 1526 c 0,28,29
 125 1526 125 1526 101.5 1510.5 c 128,-1,30
 78 1495 78 1495 63 1479 c 1,31,32
 47 1458 47 1458 41 1434 c 1,33,-1
 10 1434 l 1,0,1
EndSplineSet
EndChar

StartChar: endash
Encoding: 8211 8211 224
Width: 1157
Flags: W
LayerCount: 2
Fore
SplineSet
61 594 m 1,0,-1
 61 686 l 1,1,-1
 1096 686 l 1,2,-1
 1096 594 l 1,3,-1
 61 594 l 1,0,-1
EndSplineSet
EndChar

StartChar: emdash
Encoding: 8212 8212 225
Width: 1649
Flags: W
LayerCount: 2
Fore
SplineSet
61 594 m 1,0,-1
 61 686 l 1,1,-1
 1587 686 l 1,2,-1
 1587 594 l 1,3,-1
 61 594 l 1,0,-1
EndSplineSet
EndChar

StartChar: quoteleft
Encoding: 8216 8216 226
Width: 573
Flags: W
LayerCount: 2
Fore
SplineSet
123 1077 m 0,0,1
 123 1204 123 1204 162 1279 c 128,-1,2
 201 1354 201 1354 248 1393 c 0,3,4
 303 1438 303 1438 375 1454 c 1,5,-1
 393 1415 l 1,6,7
 342 1399 342 1399 299 1366 c 0,8,9
 262 1337 262 1337 229.5 1289 c 128,-1,10
 197 1241 197 1241 190 1165 c 1,11,12
 202 1175 202 1175 221 1184 c 0,13,14
 235 1190 235 1190 254.5 1196 c 128,-1,15
 274 1202 274 1202 297 1202 c 0,16,17
 363 1202 363 1202 407 1156 c 128,-1,18
 451 1110 451 1110 451 1038 c 256,19,20
 451 966 451 966 406.5 920 c 128,-1,21
 362 874 362 874 297 874 c 0,22,23
 225 874 225 874 174 924.5 c 128,-1,24
 123 975 123 975 123 1077 c 0,0,1
EndSplineSet
EndChar

StartChar: quoteright
Encoding: 8217 8217 227
Width: 573
Flags: W
LayerCount: 2
Fore
SplineSet
123 1290 m 256,0,1
 123 1362 123 1362 167 1408 c 128,-1,2
 211 1454 211 1454 276 1454 c 0,3,4
 348 1454 348 1454 399.5 1404 c 128,-1,5
 451 1354 451 1354 451 1251 c 0,6,7
 451 1122 451 1122 411 1048.5 c 128,-1,8
 371 975 371 975 324 936 c 0,9,10
 269 891 269 891 199 874 c 1,11,-1
 180 913 l 1,12,13
 231 929 231 929 274 963 c 0,14,15
 311 992 311 992 343 1038.5 c 128,-1,16
 375 1085 375 1085 383 1163 c 1,17,18
 367 1153 367 1153 350 1145 c 0,19,20
 334 1137 334 1137 316.5 1131.5 c 128,-1,21
 299 1126 299 1126 276 1126 c 0,22,23
 210 1126 210 1126 166.5 1172 c 128,-1,24
 123 1218 123 1218 123 1290 c 256,0,1
EndSplineSet
EndChar

StartChar: quotesinglbase
Encoding: 8218 8218 228
Width: 573
Flags: W
LayerCount: 2
Fore
SplineSet
123 143 m 256,0,1
 123 215 123 215 167 261 c 128,-1,2
 211 307 211 307 276 307 c 0,3,4
 348 307 348 307 399.5 257 c 128,-1,5
 451 207 451 207 451 104 c 0,6,7
 451 -25 451 -25 411 -98.5 c 128,-1,8
 371 -172 371 -172 324 -211 c 0,9,10
 269 -256 269 -256 199 -272 c 1,11,-1
 180 -233 l 1,12,13
 231 -217 231 -217 274 -184 c 0,14,15
 311 -155 311 -155 343 -108 c 128,-1,16
 375 -61 375 -61 383 16 c 1,17,18
 367 6 367 6 350 -2 c 0,19,20
 334 -10 334 -10 316.5 -15 c 128,-1,21
 299 -20 299 -20 276 -20 c 0,22,23
 210 -20 210 -20 166.5 25.5 c 128,-1,24
 123 71 123 71 123 143 c 256,0,1
EndSplineSet
EndChar

StartChar: quotedblleft
Encoding: 8220 8220 229
Width: 1004
Flags: W
LayerCount: 2
Fore
SplineSet
123 1077 m 0,0,1
 123 1204 123 1204 162 1279 c 128,-1,2
 201 1354 201 1354 248 1393 c 0,3,4
 303 1438 303 1438 375 1454 c 1,5,-1
 393 1415 l 1,6,7
 342 1399 342 1399 299 1366 c 0,8,9
 262 1337 262 1337 229.5 1289 c 128,-1,10
 197 1241 197 1241 190 1165 c 1,11,12
 203 1176 203 1176 221 1184 c 0,13,14
 236 1190 236 1190 255 1196 c 128,-1,15
 274 1202 274 1202 297 1202 c 0,16,17
 362 1202 362 1202 406.5 1156 c 128,-1,18
 451 1110 451 1110 451 1038 c 0,19,20
 451 967 451 967 406.5 920.5 c 128,-1,21
 362 874 362 874 297 874 c 0,22,23
 225 874 225 874 174 924.5 c 128,-1,24
 123 975 123 975 123 1077 c 0,0,1
553 1077 m 0,25,26
 553 1204 553 1204 592 1279 c 128,-1,27
 631 1354 631 1354 678 1393 c 0,28,29
 733 1438 733 1438 805 1454 c 1,30,-1
 823 1415 l 1,31,32
 772 1399 772 1399 729 1366 c 0,33,34
 692 1337 692 1337 659.5 1289 c 128,-1,35
 627 1241 627 1241 621 1165 c 1,36,37
 633 1176 633 1176 651 1184 c 0,38,39
 666 1190 666 1190 685.5 1196 c 128,-1,40
 705 1202 705 1202 727 1202 c 0,41,42
 793 1202 793 1202 837 1156 c 128,-1,43
 881 1110 881 1110 881 1038 c 0,44,45
 881 967 881 967 837 920.5 c 128,-1,46
 793 874 793 874 727 874 c 0,47,48
 655 874 655 874 604 924.5 c 128,-1,49
 553 975 553 975 553 1077 c 0,25,26
EndSplineSet
EndChar

StartChar: quotedblright
Encoding: 8221 8221 230
Width: 1004
Flags: W
LayerCount: 2
Fore
SplineSet
123 1290 m 0,0,1
 123 1362 123 1362 167 1408 c 128,-1,2
 211 1454 211 1454 276 1454 c 0,3,4
 348 1454 348 1454 399.5 1404 c 128,-1,5
 451 1354 451 1354 451 1251 c 0,6,7
 451 1122 451 1122 411 1048.5 c 128,-1,8
 371 975 371 975 324 936 c 0,9,10
 268 891 268 891 199 874 c 1,11,-1
 180 913 l 1,12,13
 231 930 231 930 274 963 c 0,14,15
 311 991 311 991 343 1038 c 128,-1,16
 375 1085 375 1085 383 1163 c 1,17,18
 367 1153 367 1153 350 1145 c 0,19,20
 334 1137 334 1137 316.5 1131.5 c 128,-1,21
 299 1126 299 1126 276 1126 c 0,22,23
 211 1126 211 1126 167 1172.5 c 128,-1,24
 123 1219 123 1219 123 1290 c 0,0,1
553 1290 m 0,25,26
 553 1362 553 1362 597 1408 c 128,-1,27
 641 1454 641 1454 707 1454 c 0,28,29
 778 1454 778 1454 829.5 1404 c 128,-1,30
 881 1354 881 1354 881 1251 c 0,31,32
 881 1122 881 1122 841 1048.5 c 128,-1,33
 801 975 801 975 754 936 c 0,34,35
 698 891 698 891 629 874 c 1,36,-1
 610 913 l 1,37,38
 662 930 662 930 705 963 c 0,39,40
 741 991 741 991 773 1038 c 128,-1,41
 805 1085 805 1085 813 1163 c 1,42,43
 797 1153 797 1153 780 1145 c 0,44,45
 764 1137 764 1137 746.5 1131.5 c 128,-1,46
 729 1126 729 1126 707 1126 c 0,47,48
 641 1126 641 1126 597 1172.5 c 128,-1,49
 553 1219 553 1219 553 1290 c 0,25,26
EndSplineSet
EndChar

StartChar: quotedblbase
Encoding: 8222 8222 231
Width: 1004
Flags: W
LayerCount: 2
Fore
SplineSet
123 143 m 0,0,1
 123 215 123 215 167 261 c 128,-1,2
 211 307 211 307 276 307 c 0,3,4
 348 307 348 307 399.5 257 c 128,-1,5
 451 207 451 207 451 104 c 0,6,7
 451 -25 451 -25 411 -98.5 c 128,-1,8
 371 -172 371 -172 324 -211 c 0,9,10
 268 -256 268 -256 199 -272 c 1,11,-1
 180 -233 l 1,12,13
 231 -217 231 -217 274 -184 c 0,14,15
 311 -156 311 -156 343 -108.5 c 128,-1,16
 375 -61 375 -61 383 16 c 1,17,18
 367 6 367 6 350 -2 c 0,19,20
 334 -10 334 -10 316.5 -15 c 128,-1,21
 299 -20 299 -20 276 -20 c 0,22,23
 211 -20 211 -20 167 26 c 128,-1,24
 123 72 123 72 123 143 c 0,0,1
553 143 m 0,25,26
 553 215 553 215 597 261 c 128,-1,27
 641 307 641 307 707 307 c 0,28,29
 778 307 778 307 829.5 257 c 128,-1,30
 881 207 881 207 881 104 c 0,31,32
 881 -25 881 -25 841 -98.5 c 128,-1,33
 801 -172 801 -172 754 -211 c 0,34,35
 698 -256 698 -256 629 -272 c 1,36,-1
 610 -233 l 1,37,38
 662 -217 662 -217 705 -184 c 0,39,40
 741 -156 741 -156 773 -108.5 c 128,-1,41
 805 -61 805 -61 813 16 c 1,42,43
 797 6 797 6 780 -2 c 0,44,45
 764 -10 764 -10 746.5 -15 c 128,-1,46
 729 -20 729 -20 707 -20 c 0,47,48
 641 -20 641 -20 597 26 c 128,-1,49
 553 72 553 72 553 143 c 0,25,26
EndSplineSet
EndChar

StartChar: dagger
Encoding: 8224 8224 232
Width: 963
Flags: W
LayerCount: 2
Fore
SplineSet
41 666 m 1,0,-1
 41 922 l 1,1,-1
 430 829 l 1,2,-1
 328 1249 l 1,3,-1
 481 1454 l 1,4,-1
 635 1249 l 1,5,-1
 532 829 l 1,6,-1
 922 922 l 1,7,-1
 922 666 l 1,8,-1
 532 758 l 1,9,-1
 676 -41 l 1,10,-1
 481 -430 l 1,11,-1
 287 -41 l 1,12,-1
 430 758 l 1,13,-1
 41 666 l 1,0,-1
EndSplineSet
EndChar

StartChar: daggerdbl
Encoding: 8225 8225 233
Width: 963
Flags: W
LayerCount: 2
Fore
SplineSet
41 102 m 1,0,-1
 41 358 l 1,1,-1
 430 266 l 1,2,-1
 348 512 l 1,3,-1
 430 758 l 1,4,-1
 41 666 l 1,5,-1
 41 922 l 1,6,-1
 430 829 l 1,7,-1
 328 1249 l 1,8,-1
 481 1454 l 1,9,-1
 635 1249 l 1,10,-1
 532 829 l 1,11,-1
 922 922 l 1,12,-1
 922 666 l 1,13,-1
 532 758 l 1,14,-1
 614 512 l 1,15,-1
 532 266 l 1,16,-1
 922 358 l 1,17,-1
 922 102 l 1,18,-1
 532 195 l 1,19,-1
 635 -225 l 1,20,-1
 481 -430 l 1,21,-1
 328 -225 l 1,22,-1
 430 195 l 1,23,-1
 41 102 l 1,0,-1
EndSplineSet
EndChar

StartChar: bullet
Encoding: 8226 8226 234
Width: 748
Flags: W
LayerCount: 2
Fore
SplineSet
164 680 m 0,0,1
 164 774 164 774 222.5 832.5 c 128,-1,2
 281 891 281 891 373 891 c 0,3,4
 467 891 467 891 525.5 832.5 c 128,-1,5
 584 774 584 774 584 680 c 0,6,7
 584 588 584 588 525.5 529.5 c 128,-1,8
 467 471 467 471 373 471 c 0,9,10
 281 471 281 471 222.5 529.5 c 128,-1,11
 164 588 164 588 164 680 c 0,0,1
EndSplineSet
EndChar

StartChar: ellipsis
Encoding: 8230 8230 235
Width: 1556
Flags: W
LayerCount: 2
Fore
SplineSet
123 143 m 256,0,1
 123 215 123 215 169 261 c 128,-1,2
 215 307 215 307 287 307 c 256,3,4
 359 307 359 307 405 261 c 128,-1,5
 451 215 451 215 451 143 c 256,6,7
 451 71 451 71 404.5 25.5 c 128,-1,8
 358 -20 358 -20 287 -20 c 0,9,10
 215 -20 215 -20 169 25.5 c 128,-1,11
 123 71 123 71 123 143 c 256,0,1
614 143 m 256,12,13
 614 215 614 215 660.5 261 c 128,-1,14
 707 307 707 307 778 307 c 0,15,16
 850 307 850 307 896 261 c 128,-1,17
 942 215 942 215 942 143 c 256,18,19
 942 71 942 71 896 25.5 c 128,-1,20
 850 -20 850 -20 778 -20 c 256,21,22
 706 -20 706 -20 660 25.5 c 128,-1,23
 614 71 614 71 614 143 c 256,12,13
1106 143 m 256,24,25
 1106 215 1106 215 1152 261 c 128,-1,26
 1198 307 1198 307 1270 307 c 256,27,28
 1342 307 1342 307 1388 261 c 128,-1,29
 1434 215 1434 215 1434 143 c 256,30,31
 1434 71 1434 71 1387.5 25.5 c 128,-1,32
 1341 -20 1341 -20 1270 -20 c 0,33,34
 1198 -20 1198 -20 1152 25.5 c 128,-1,35
 1106 71 1106 71 1106 143 c 256,24,25
EndSplineSet
EndChar

StartChar: perthousand
Encoding: 8240 8240 236
Width: 2345
Flags: W
LayerCount: 2
Fore
SplineSet
82 1096 m 0,0,1
 82 1257 82 1257 171 1355.5 c 128,-1,2
 260 1454 260 1454 430 1454 c 256,3,4
 600 1454 600 1454 689 1355.5 c 128,-1,5
 778 1257 778 1257 778 1096 c 0,6,7
 778 934 778 934 689 835.5 c 128,-1,8
 600 737 600 737 430 737 c 256,9,10
 260 737 260 737 171 835.5 c 128,-1,11
 82 934 82 934 82 1096 c 0,0,1
195 0 m 1,12,-1
 1290 1434 l 1,13,-1
 1382 1434 l 1,14,-1
 297 0 l 1,15,-1
 195 0 l 1,12,-1
317 1096 m 256,16,17
 317 920 317 920 350 849 c 128,-1,18
 383 778 383 778 430 778 c 0,19,20
 453 778 453 778 473.5 794.5 c 128,-1,21
 494 811 494 811 509 849 c 128,-1,22
 524 887 524 887 533.5 947.5 c 128,-1,23
 543 1008 543 1008 543 1096 c 256,24,25
 543 1184 543 1184 533.5 1244.5 c 128,-1,26
 524 1305 524 1305 509 1342.5 c 128,-1,27
 494 1380 494 1380 473.5 1396.5 c 128,-1,28
 453 1413 453 1413 430 1413 c 0,29,30
 383 1413 383 1413 350 1342.5 c 128,-1,31
 317 1272 317 1272 317 1096 c 256,16,17
809 338 m 256,32,33
 809 500 809 500 898 598 c 128,-1,34
 987 696 987 696 1157 696 c 256,35,36
 1327 696 1327 696 1416 598 c 128,-1,37
 1505 500 1505 500 1505 338 c 256,38,39
 1505 176 1505 176 1416 78 c 128,-1,40
 1327 -20 1327 -20 1157 -20 c 256,41,42
 987 -20 987 -20 898 78 c 128,-1,43
 809 176 809 176 809 338 c 256,32,33
1044 338 m 256,44,45
 1044 162 1044 162 1077 91 c 128,-1,46
 1110 20 1110 20 1157 20 c 0,47,48
 1180 20 1180 20 1200.5 36.5 c 128,-1,49
 1221 53 1221 53 1236 91 c 128,-1,50
 1251 129 1251 129 1260.5 189.5 c 128,-1,51
 1270 250 1270 250 1270 338 c 256,52,53
 1270 426 1270 426 1260.5 486.5 c 128,-1,54
 1251 547 1251 547 1236 585 c 128,-1,55
 1221 623 1221 623 1200.5 639 c 128,-1,56
 1180 655 1180 655 1157 655 c 0,57,58
 1110 655 1110 655 1077 584.5 c 128,-1,59
 1044 514 1044 514 1044 338 c 256,44,45
1567 338 m 256,60,61
 1567 500 1567 500 1656 598 c 128,-1,62
 1745 696 1745 696 1915 696 c 256,63,64
 2085 696 2085 696 2174 598 c 128,-1,65
 2263 500 2263 500 2263 338 c 256,66,67
 2263 176 2263 176 2174 78 c 128,-1,68
 2085 -20 2085 -20 1915 -20 c 256,69,70
 1745 -20 1745 -20 1656 78 c 128,-1,71
 1567 176 1567 176 1567 338 c 256,60,61
1802 338 m 256,72,73
 1802 162 1802 162 1835 91 c 128,-1,74
 1868 20 1868 20 1915 20 c 0,75,76
 1937 20 1937 20 1957.5 36.5 c 128,-1,77
 1978 53 1978 53 1993.5 91 c 128,-1,78
 2009 129 2009 129 2018.5 189.5 c 128,-1,79
 2028 250 2028 250 2028 338 c 256,80,81
 2028 426 2028 426 2018.5 486.5 c 128,-1,82
 2009 547 2009 547 1993.5 585 c 128,-1,83
 1978 623 1978 623 1957.5 639 c 128,-1,84
 1937 655 1937 655 1915 655 c 0,85,86
 1868 655 1868 655 1835 584.5 c 128,-1,87
 1802 514 1802 514 1802 338 c 256,72,73
EndSplineSet
EndChar

StartChar: guilsinglleft
Encoding: 8249 8249 237
Width: 840
Flags: W
LayerCount: 2
Fore
SplineSet
0 512 m 1,0,-1
 717 1024 l 1,1,-1
 758 973 l 1,2,-1
 236 512 l 1,3,-1
 758 51 l 1,4,-1
 717 0 l 1,5,-1
 0 512 l 1,0,-1
EndSplineSet
EndChar

StartChar: guilsinglright
Encoding: 8250 8250 238
Width: 840
Flags: W
LayerCount: 2
Fore
SplineSet
82 51 m 1,0,-1
 604 512 l 1,1,-1
 82 973 l 1,2,-1
 123 1024 l 1,3,-1
 840 512 l 1,4,-1
 123 0 l 1,5,-1
 82 51 l 1,0,-1
EndSplineSet
EndChar

StartChar: Euro
Encoding: 8364 8364 239
Width: 1516
Flags: W
LayerCount: 2
Fore
SplineSet
41 553 m 1,0,-1
 41 625 l 1,1,-1
 219 625 l 1,2,3
 217 647 217 647 216 669.5 c 128,-1,4
 215 692 215 692 215 717 c 0,5,6
 215 735 215 735 216 752.5 c 128,-1,7
 217 770 217 770 217 788 c 1,8,-1
 61 788 l 1,9,-1
 61 860 l 1,10,-1
 223 860 l 1,11,12
 246 1022 246 1022 312.5 1137.5 c 128,-1,13
 379 1253 379 1253 469 1325 c 128,-1,14
 559 1397 559 1397 662.5 1430.5 c 128,-1,15
 766 1464 766 1464 860 1464 c 0,16,17
 946 1464 946 1464 1009.5 1439.5 c 128,-1,18
 1073 1415 1073 1415 1118 1386 c 0,19,20
 1171 1352 1171 1352 1208 1311 c 1,21,22
 1231 1346 1231 1346 1255 1372 c 1,23,24
 1278 1395 1278 1395 1307.5 1414.5 c 128,-1,25
 1337 1434 1337 1434 1372 1434 c 2,26,-1
 1413 1434 l 1,27,-1
 1413 1044 l 1,28,-1
 1321 1044 l 1,29,30
 1294 1106 1294 1106 1252 1171.5 c 128,-1,31
 1210 1237 1210 1237 1156 1290 c 128,-1,32
 1102 1343 1102 1343 1034.5 1378 c 128,-1,33
 967 1413 967 1413 891 1413 c 0,34,35
 846 1413 846 1413 795.5 1384.5 c 128,-1,36
 745 1356 745 1356 700 1291.5 c 128,-1,37
 655 1227 655 1227 622.5 1120.5 c 128,-1,38
 590 1014 590 1014 578 860 c 1,39,-1
 1034 860 l 1,40,-1
 1034 788 l 1,41,-1
 573 788 l 1,42,-1
 573 717 l 1,43,-1
 573 670 l 2,44,45
 573 647 573 647 575 625 c 1,46,-1
 1014 625 l 1,47,-1
 1014 553 l 1,48,-1
 580 553 l 1,49,50
 592 406 592 406 628 303.5 c 128,-1,51
 664 201 664 201 714 138.5 c 128,-1,52
 764 76 764 76 825.5 48 c 128,-1,53
 887 20 887 20 952 20 c 0,54,55
 1022 20 1022 20 1087.5 41.5 c 128,-1,56
 1153 63 1153 63 1210.5 102 c 128,-1,57
 1268 141 1268 141 1313 193.5 c 128,-1,58
 1358 246 1358 246 1386 307 c 1,59,-1
 1434 276 l 1,60,61
 1399 211 1399 211 1351 154.5 c 128,-1,62
 1303 98 1303 98 1239.5 57 c 128,-1,63
 1176 16 1176 16 1097 -7.5 c 128,-1,64
 1018 -31 1018 -31 922 -31 c 0,65,66
 809 -31 809 -31 695.5 1 c 128,-1,67
 582 33 582 33 486.5 102.5 c 128,-1,68
 391 172 391 172 321.5 283.5 c 128,-1,69
 252 395 252 395 227 553 c 1,70,-1
 41 553 l 1,0,-1
EndSplineSet
EndChar

StartChar: trademark
Encoding: 8482 8482 240
Width: 1987
Flags: W
LayerCount: 2
Fore
SplineSet
82 1178 m 1,0,-1
 82 1434 l 1,1,-1
 788 1434 l 1,2,-1
 788 1178 l 1,3,-1
 748 1178 l 1,4,5
 725 1202 725 1202 705 1235 c 0,6,7
 688 1264 688 1264 673.5 1302.5 c 128,-1,8
 659 1341 659 1341 655 1393 c 1,9,-1
 553 1393 l 1,10,-1
 553 799 l 1,11,-1
 676 788 l 1,12,-1
 676 758 l 1,13,-1
 195 758 l 1,14,-1
 195 788 l 1,15,-1
 317 799 l 1,16,-1
 317 1393 l 1,17,-1
 215 1393 l 1,18,19
 211 1341 211 1341 196.5 1302.5 c 128,-1,20
 182 1264 182 1264 166 1235 c 1,21,22
 145 1202 145 1202 123 1178 c 1,23,-1
 82 1178 l 1,0,-1
850 758 m 1,24,-1
 850 788 l 1,25,-1
 973 799 l 1,26,-1
 973 1393 l 1,27,-1
 850 1403 l 1,28,-1
 850 1434 l 1,29,-1
 1034 1434 l 2,30,31
 1073 1434 1073 1434 1099.5 1424.5 c 128,-1,32
 1126 1415 1126 1415 1145.5 1399.5 c 128,-1,33
 1165 1384 1165 1384 1180 1364 c 1,34,-1
 1208 1321 l 1,35,-1
 1403 1014 l 1,36,-1
 1556 1321 l 1,37,38
 1569 1343 1569 1343 1583 1363.5 c 128,-1,39
 1597 1384 1597 1384 1616.5 1399.5 c 128,-1,40
 1636 1415 1636 1415 1664 1424.5 c 128,-1,41
 1692 1434 1692 1434 1731 1434 c 2,42,-1
 1905 1434 l 1,43,-1
 1905 1403 l 1,44,-1
 1782 1393 l 1,45,-1
 1782 799 l 1,46,-1
 1905 788 l 1,47,-1
 1905 758 l 1,48,-1
 1423 758 l 1,49,-1
 1423 788 l 1,50,-1
 1546 799 l 1,51,-1
 1546 1188 l 1,52,-1
 1321 737 l 1,53,-1
 1300 737 l 1,54,-1
 1024 1188 l 1,55,-1
 1024 799 l 1,56,-1
 1147 788 l 1,57,-1
 1147 758 l 1,58,-1
 850 758 l 1,24,-1
EndSplineSet
EndChar

StartChar: foundryicon
Encoding: 65540 -1 242
Width: 4925
Flags: W
LayerCount: 2
Fore
SplineSet
102 0 m 1,0,-1
 102 655 l 1,1,-1
 758 0 l 1,2,-1
 102 0 l 1,0,-1
399 778 m 1,3,-1
 1055 1434 l 1,4,-1
 1055 778 l 1,5,-1
 399 778 l 1,3,-1
758 0 m 1,6,-1
 758 328 l 1,7,-1
 1413 0 l 1,8,-1
 758 0 l 1,6,-1
758 328 m 1,9,-1
 758 655 l 1,10,-1
 1413 655 l 1,11,-1
 758 328 l 1,9,-1
1106 1106 m 256,12,13
 1106 1180 1106 1180 1132.5 1243.5 c 128,-1,14
 1159 1307 1159 1307 1206 1354 c 128,-1,15
 1253 1401 1253 1401 1316.5 1427.5 c 128,-1,16
 1380 1454 1380 1454 1454 1454 c 256,17,18
 1528 1454 1528 1454 1591.5 1427.5 c 128,-1,19
 1655 1401 1655 1401 1702 1354 c 128,-1,20
 1749 1307 1749 1307 1775.5 1243.5 c 128,-1,21
 1802 1180 1802 1180 1802 1106 c 256,22,23
 1802 1032 1802 1032 1775.5 968.5 c 128,-1,24
 1749 905 1749 905 1702 858 c 128,-1,25
 1655 811 1655 811 1591.5 784.5 c 128,-1,26
 1528 758 1528 758 1454 758 c 256,27,28
 1380 758 1380 758 1316.5 784.5 c 128,-1,29
 1253 811 1253 811 1206 858 c 128,-1,30
 1159 905 1159 905 1132.5 968.5 c 128,-1,31
 1106 1032 1106 1032 1106 1106 c 256,12,13
1434 0 m 1,32,-1
 1434 655 l 1,33,-1
 1761 0 l 1,34,-1
 1434 0 l 1,32,-1
1741 1434 m 1,35,-1
 2396 1434 l 1,36,-1
 2068 778 l 1,37,-1
 1741 1434 l 1,35,-1
1761 0 m 1,38,-1
 2089 655 l 1,39,-1
 2089 0 l 1,40,-1
 1761 0 l 1,38,-1
2140 328 m 256,41,42
 2140 402 2140 402 2166.5 465 c 128,-1,43
 2193 528 2193 528 2240.5 575.5 c 128,-1,44
 2288 623 2288 623 2351.5 649.5 c 128,-1,45
 2415 676 2415 676 2488 676 c 0,46,47
 2562 676 2562 676 2625.5 649.5 c 128,-1,48
 2689 623 2689 623 2736 575.5 c 128,-1,49
 2783 528 2783 528 2809.5 464.5 c 128,-1,50
 2836 401 2836 401 2836 328 c 0,51,52
 2836 254 2836 254 2809.5 190.5 c 128,-1,53
 2783 127 2783 127 2736 80 c 128,-1,54
 2689 33 2689 33 2625.5 6.5 c 128,-1,55
 2562 -20 2562 -20 2488 -20 c 256,56,57
 2414 -20 2414 -20 2351 6.5 c 128,-1,58
 2288 33 2288 33 2240.5 80 c 128,-1,59
 2193 127 2193 127 2166.5 190.5 c 128,-1,60
 2140 254 2140 254 2140 328 c 256,41,42
2161 778 m 1,61,-1
 2488 1434 l 1,62,-1
 2816 778 l 1,63,-1
 2161 778 l 1,61,-1
2836 778 m 1,64,-1
 2836 1382 l 1,65,-1
 3420 778 l 1,66,-1
 2836 778 l 1,64,-1
2888 0 m 1,67,-1
 2888 604 l 1,68,-1
 3471 0 l 1,69,-1
 2888 0 l 1,67,-1
2888 1434 m 1,70,-1
 3471 1434 l 1,71,-1
 3471 829 l 1,72,-1
 2888 1434 l 1,70,-1
2939 655 m 1,73,-1
 3523 655 l 1,74,-1
 3523 51 l 1,75,-1
 2939 655 l 1,73,-1
3543 0 m 1,76,-1
 3871 655 l 1,77,-1
 4198 0 l 1,78,-1
 3543 0 l 1,76,-1
3553 778 m 1,79,-1
 3553 1382 l 1,80,-1
 4137 778 l 1,81,-1
 3553 778 l 1,79,-1
3604 1434 m 1,82,-1
 4188 1434 l 1,83,-1
 4188 829 l 1,84,-1
 3604 1434 l 1,82,-1
4209 1434 m 1,85,-1
 4864 1434 l 1,86,-1
 4536 778 l 1,87,-1
 4209 1434 l 1,85,-1
4219 -20 m 1,88,-1
 4219 676 l 1,89,90
 4293 676 4293 676 4356.5 649.5 c 128,-1,91
 4420 623 4420 623 4467 575.5 c 128,-1,92
 4514 528 4514 528 4540.5 464.5 c 128,-1,93
 4567 401 4567 401 4567 328 c 0,94,95
 4567 254 4567 254 4540.5 190.5 c 128,-1,96
 4514 127 4514 127 4467 80 c 128,-1,97
 4420 33 4420 33 4356.5 6.5 c 128,-1,98
 4293 -20 4293 -20 4219 -20 c 1,88,-1
EndSplineSet
EndChar
